# Blender 4.3.2
# www.blender.org
o OuterFrame
v -0.500000 0.000000 -3.500000
v -0.500000 3.000000 -3.500000
v 0.500000 0.000000 -3.500000
v 0.500000 3.000000 3.500000
v 0.500000 3.000000 -3.500000
v -0.500000 0.000000 3.500000
v -0.500000 3.000000 3.500000
v 0.500000 0.000000 3.500000
v 0.500000 2.687500 -3.187500
v 0.500000 0.000000 -3.187500
v -0.500000 0.000000 -3.187500
v -0.500000 2.687500 3.187500
v -0.500000 0.000000 3.187500
v 0.500000 0.000000 3.187500
v -0.500000 2.687500 -3.187500
v 0.500000 2.687500 3.187500
vn -0.0000 -0.0000 -1.0000
vn -0.0000 -1.0000 -0.0000
vn 1.0000 -0.0000 -0.0000
vn -1.0000 -0.0000 -0.0000
vn -0.0000 1.0000 -0.0000
vn -0.0000 -0.0000 1.0000
vt 1.000000 0.875000
vt 0.937500 0.500000
vt 1.000000 0.500000
vt 0.937500 1.000000
vt 0.917969 0.875000
vt 0.937500 0.875000
vt 0.519531 0.835938
vt 0.500000 0.875000
vt 0.917969 0.835938
vt 0.500000 0.500000
vt 0.519531 1.000000
vt 0.519531 0.875000
vt 0.437500 0.500000
vt 0.687500 0.500000
vt 0.519531 0.375000
vt 0.519531 0.500000
vt 0.917969 0.375000
vt 0.917969 0.500000
vt 0.917969 1.000000
vt 0.500000 1.000000
vt 0.437500 0.875000
vt 0.687500 0.375000
s 0
f 2/1/1 3/2/1 1/3/1
f 10/4/2 1/5/2 3/6/2
f 16/7/3 5/6/3 4/8/3
f 1/2/4 15/9/4 2/6/4
f 9/9/3 3/2/3 5/6/3
f 8/10/3 16/7/3 4/8/3
f 2/4/5 4/8/5 5/6/5
f 6/11/2 14/8/2 8/12/2
f 2/6/4 12/7/4 7/8/4
f 4/8/6 6/13/6 8/10/6
f 9/14/6 11/15/6 10/16/6
f 9/17/2 12/16/2 15/18/2
f 12/14/1 14/15/1 13/16/1
f 12/7/4 6/10/4 7/8/4
f 2/1/1 5/6/1 3/2/1
f 10/4/2 11/19/2 1/5/2
f 16/7/3 9/9/3 5/6/3
f 1/2/4 11/18/4 15/9/4
f 9/9/3 10/18/3 3/2/3
f 8/10/3 14/16/3 16/7/3
f 2/4/5 7/20/5 4/8/5
f 6/11/2 13/20/2 14/8/2
f 2/6/4 15/9/4 12/7/4
f 4/8/6 7/21/6 6/13/6
f 9/14/6 15/22/6 11/15/6
f 9/17/2 16/15/2 12/16/2
f 12/14/1 16/22/1 14/15/1
f 12/7/4 13/16/4 6/10/4
o InnerFrame
v -0.375000 0.000000 3.187500
v -0.375000 2.687500 3.187500
v -0.375000 0.000000 2.937500
v -0.375000 2.687500 2.937500
v 0.375000 0.000000 3.187500
v 0.375000 2.687500 3.187500
v 0.375000 0.000000 2.937500
v 0.375000 2.687500 2.937500
v -0.250000 0.250000 3.187500
v -0.250000 2.437500 3.187500
v -0.250000 2.437500 2.937500
v -0.250000 0.250000 2.937500
v 0.250000 2.437500 2.937500
v 0.250000 0.250000 2.937500
v 0.250000 2.437500 3.187500
v 0.250000 0.250000 3.187500
v -0.250000 0.125000 2.937500
v 0.250000 0.125000 2.937500
v 0.250000 0.125000 3.187500
v -0.250000 0.125000 3.187500
v -0.250000 2.562500 3.187500
v -0.250000 2.562500 2.937500
v 0.250000 2.562500 2.937500
v 0.250000 2.562500 3.187500
v -0.375000 0.000000 3.062500
v -0.375000 2.687500 3.062500
v 0.375000 0.000000 3.062500
v 0.375000 2.687500 3.062500
v 0.250000 0.250000 3.062500
v 0.250000 2.437500 3.062500
v -0.250000 0.250000 3.062500
v -0.250000 2.437500 3.062500
v -0.250000 0.125000 3.062500
v 0.250000 0.125000 3.062500
v 0.250000 2.562500 3.062500
v -0.250000 2.562500 3.062500
v 0.375000 0.000000 -3.187500
v 0.375000 2.687500 -3.187500
v 0.375000 0.000000 -2.937500
v 0.375000 2.687500 -2.937500
v -0.375000 0.000000 -3.187500
v -0.375000 2.687500 -3.187500
v -0.375000 0.000000 -2.937500
v -0.375000 2.687500 -2.937500
v 0.250000 0.250000 -3.187500
v 0.250000 2.437500 -3.187500
v 0.250000 2.437500 -2.937500
v 0.250000 0.250000 -2.937500
v -0.250000 2.437500 -2.937500
v -0.250000 0.250000 -2.937500
v -0.250000 2.437500 -3.187500
v -0.250000 0.250000 -3.187500
v 0.250000 0.125000 -2.937500
v -0.250000 0.125000 -2.937500
v -0.250000 0.125000 -3.187500
v 0.250000 0.125000 -3.187500
v 0.250000 2.562500 -3.187500
v 0.250000 2.562500 -2.937500
v -0.250000 2.562500 -2.937500
v -0.250000 2.562500 -3.187500
v 0.375000 0.000000 -3.062500
v 0.375000 2.687500 -3.062500
v -0.375000 0.000000 -3.062500
v -0.375000 2.687500 -3.062500
v -0.250000 0.250000 -3.062500
v -0.250000 2.437500 -3.062500
v 0.250000 0.250000 -3.062500
v 0.250000 2.437500 -3.062500
v 0.250000 0.125000 -3.062500
v -0.250000 0.125000 -3.062500
v -0.250000 2.562500 -3.062500
v 0.250000 2.562500 -3.062500
vn -0.7071 -0.7071 -0.0000
vn -0.0000 -0.0000 -1.0000
vn 0.7071 -0.7071 -0.0000
vn -0.0000 -0.0000 1.0000
vn -0.0000 -1.0000 -0.0000
vn -0.0000 1.0000 -0.0000
vn 1.0000 -0.0000 -0.0000
vn -1.0000 -0.0000 -0.0000
vn -0.7071 0.7071 -0.0000
vn 0.7071 0.7071 -0.0000
vt 0.007812 0.664062
vt 0.015625 0.648438
vt 0.007812 0.648438
vt 0.062500 0.664062
vt 0.023438 0.648438
vt 0.054688 0.648438
vt 0.000000 0.648438
vt 0.625000 0.750000
vt 0.583333 1.000000
vt 0.583333 0.750000
vt 0.507812 1.000000
vt 0.500000 0.906250
vt 0.507812 0.906250
vt 0.875000 0.625000
vt 0.625000 0.625000
vt 0.458333 0.750000
vt 0.416667 1.000000
vt 0.416667 0.750000
vt 0.541667 0.750000
vt 0.458333 1.000000
vt 0.007812 0.359375
vt 0.000000 0.343750
vt 0.007812 0.343750
vt 0.054688 0.359375
vt 0.023438 0.343750
vt 0.054688 0.343750
vt 0.054688 0.632812
vt 0.023438 0.359375
vt 0.015625 0.359375
vt 0.015625 0.343750
vt 0.007812 0.632812
vt 0.015625 0.328125
vt 0.007812 0.328125
vt 0.062500 0.328125
vt 0.000000 0.328125
vt 0.375000 1.000000
vt 0.375000 0.750000
vt 0.541667 1.000000
vt 0.000000 0.632812
vt 0.023438 0.632812
vt 0.015625 0.632812
vt 0.875000 0.500000
vt 0.625000 0.500000
vt 0.515625 1.000000
vt 0.515625 0.906250
vt 0.015625 0.664062
vt 0.000000 0.664062
vt 0.625000 1.000000
vt 0.500000 1.000000
vt 0.875000 0.750000
vt 0.000000 0.359375
s 0
f 42/23/7 38/24/7 52/25/7
f 20/26/8 39/27/8 38/28/8
f 44/23/9 40/29/9 51/25/9
f 22/30/10 37/31/10 40/32/10
f 43/33/11 17/34/11 41/35/11
f 42/36/12 22/30/12 44/37/12
f 32/38/10 36/39/10 35/40/10
f 31/41/10 25/42/10 32/38/10
f 45/43/13 35/44/13 50/45/13
f 28/46/8 34/47/8 33/48/8
f 27/49/8 30/50/8 28/46/8
f 49/45/14 28/51/14 33/52/14
f 48/53/14 28/51/14 47/43/14
f 49/45/15 19/54/15 41/55/15
f 33/48/8 23/54/8 19/56/8
f 50/45/16 21/57/16 43/55/16
f 35/40/10 17/58/10 21/59/10
f 40/32/10 26/60/10 31/41/10
f 51/25/13 31/61/13 46/53/13
f 38/28/8 29/62/8 27/49/8
f 52/25/14 27/63/14 48/53/14
f 26/61/14 52/25/14 48/53/14
f 39/24/13 46/53/13 29/63/13
f 34/52/16 43/55/16 23/54/16
f 17/57/15 49/45/15 41/55/15
f 36/44/14 47/43/14 49/45/14
f 29/63/13 45/43/13 30/51/13
f 30/51/13 50/45/13 34/52/13
f 20/64/12 44/37/12 24/65/12
f 23/66/11 41/35/11 19/67/11
f 24/68/9 51/25/9 39/24/9
f 18/69/7 52/25/7 37/29/7
f 78/23/9 74/24/9 88/25/9
f 56/26/10 75/27/10 74/28/10
f 80/23/7 76/29/7 87/25/7
f 58/30/8 73/31/8 76/32/8
f 79/33/11 53/34/11 77/35/11
f 78/36/12 58/30/12 80/37/12
f 68/38/8 72/39/8 71/40/8
f 67/41/8 61/42/8 68/38/8
f 81/43/14 71/44/14 86/45/14
f 64/46/10 70/47/10 69/48/10
f 63/49/10 66/50/10 64/46/10
f 85/45/13 64/51/13 69/52/13
f 84/53/13 64/51/13 83/43/13
f 77/55/16 69/52/16 55/54/16
f 69/48/10 59/54/10 55/56/10
f 86/45/15 57/57/15 79/55/15
f 71/40/8 53/58/8 57/59/8
f 76/32/8 62/60/8 67/41/8
f 87/25/14 67/61/14 82/53/14
f 74/28/10 65/62/10 63/49/10
f 88/25/13 63/63/13 84/53/13
f 62/61/13 88/25/13 84/53/13
f 75/24/14 82/53/14 65/63/14
f 70/52/15 79/55/15 59/54/15
f 72/44/16 77/55/16 53/57/16
f 72/44/13 83/43/13 85/45/13
f 65/63/14 81/43/14 66/51/14
f 66/51/14 86/45/14 70/52/14
f 56/64/12 80/37/12 60/65/12
f 59/66/11 77/35/11 55/67/11
f 60/68/7 87/25/7 75/24/7
f 54/69/9 88/25/9 73/29/9
f 42/23/7 20/68/7 38/24/7
f 20/26/8 24/68/8 39/27/8
f 44/23/9 22/69/9 40/29/9
f 22/30/10 18/70/10 37/31/10
f 43/33/11 21/71/11 17/34/11
f 42/36/12 18/72/12 22/30/12
f 32/38/10 25/42/10 36/39/10
f 31/41/10 26/60/10 25/42/10
f 45/43/13 32/73/13 35/44/13
f 28/46/8 30/50/8 34/47/8
f 27/49/8 29/62/8 30/50/8
f 49/45/14 47/43/14 28/51/14
f 48/53/14 27/63/14 28/51/14
f 49/45/15 33/52/15 19/54/15
f 33/48/8 34/47/8 23/54/8
f 50/45/16 35/44/16 21/57/16
f 35/40/10 36/39/10 17/58/10
f 40/32/10 37/31/10 26/60/10
f 51/25/13 40/29/13 31/61/13
f 38/28/8 39/27/8 29/62/8
f 52/25/14 38/24/14 27/63/14
f 26/61/14 37/29/14 52/25/14
f 39/24/13 51/25/13 46/53/13
f 34/52/16 50/45/16 43/55/16
f 17/57/15 36/44/15 49/45/15
f 36/44/14 25/73/14 47/43/14
f 29/63/13 46/53/13 45/43/13
f 30/51/13 45/43/13 50/45/13
f 20/64/12 42/36/12 44/37/12
f 23/66/11 43/33/11 41/35/11
f 24/68/9 44/23/9 51/25/9
f 18/69/7 42/23/7 52/25/7
f 78/23/9 56/68/9 74/24/9
f 56/26/10 60/68/10 75/27/10
f 80/23/7 58/69/7 76/29/7
f 58/30/8 54/70/8 73/31/8
f 79/33/11 57/71/11 53/34/11
f 78/36/12 54/72/12 58/30/12
f 68/38/8 61/42/8 72/39/8
f 67/41/8 62/60/8 61/42/8
f 81/43/14 68/73/14 71/44/14
f 64/46/10 66/50/10 70/47/10
f 63/49/10 65/62/10 66/50/10
f 85/45/13 83/43/13 64/51/13
f 84/53/13 63/63/13 64/51/13
f 77/55/16 85/45/16 69/52/16
f 69/48/10 70/47/10 59/54/10
f 86/45/15 71/44/15 57/57/15
f 71/40/8 72/39/8 53/58/8
f 76/32/8 73/31/8 62/60/8
f 87/25/14 76/29/14 67/61/14
f 74/28/10 75/27/10 65/62/10
f 88/25/13 74/24/13 63/63/13
f 62/61/13 73/29/13 88/25/13
f 75/24/14 87/25/14 82/53/14
f 70/52/15 86/45/15 79/55/15
f 72/44/16 85/45/16 77/55/16
f 72/44/13 61/73/13 83/43/13
f 65/63/14 82/53/14 81/43/14
f 66/51/14 81/43/14 86/45/14
f 56/64/12 78/36/12 80/37/12
f 59/66/11 79/33/11 77/35/11
f 60/68/7 80/23/7 87/25/7
f 54/69/9 78/23/9 88/25/9
o Light
v -0.250000 0.250000 3.187500
v -0.250000 2.437500 3.187500
v 0.250000 2.437500 3.187500
v 0.250000 0.250000 3.187500
v 0.250000 0.250000 3.062500
v 0.250000 2.437500 3.062500
v -0.250000 0.250000 3.062500
v -0.250000 2.437500 3.062500
v 0.250000 0.250000 -3.187500
v 0.250000 2.437500 -3.187500
v -0.250000 2.437500 -3.187500
v -0.250000 0.250000 -3.187500
v -0.250000 0.250000 -3.062500
v -0.250000 2.437500 -3.062500
v 0.250000 0.250000 -3.062500
v 0.250000 2.437500 -3.062500
vn 1.0000 -0.0000 -0.0000
vn -1.0000 -0.0000 -0.0000
vt 0.007812 0.632812
vt 0.000000 0.359375
vt 0.007812 0.359375
vt 0.000000 0.632812
s 0
f 94/74/17 92/75/17 93/76/17
f 90/77/18 95/76/18 89/75/18
f 102/74/18 100/75/18 101/76/18
f 98/77/17 103/76/17 97/75/17
f 94/74/17 91/77/17 92/75/17
f 90/77/18 96/74/18 95/76/18
f 102/74/18 99/77/18 100/75/18
f 98/77/17 104/74/17 103/76/17
o DoorLeft
v 0.000000 0.566674 0.562500
v 0.000000 0.566674 0.437500
v 0.129631 0.620369 0.562500
v 0.129631 0.620369 0.437500
v 0.183326 0.750000 0.562500
v 0.183326 0.750000 0.437500
v 0.129631 0.879631 0.562500
v 0.129631 0.879631 0.437500
v 0.000000 0.933326 0.562500
v 0.000000 0.933326 0.437500
v -0.129631 0.879631 0.562500
v -0.129631 0.879631 0.437500
v -0.183326 0.750000 0.562500
v -0.183326 0.750000 0.437500
v -0.129631 0.620369 0.562500
v -0.129631 0.620369 0.437500
v 0.000000 0.566674 2.937500
v 0.000000 0.566674 2.812500
v 0.129631 0.620369 2.937500
v 0.129631 0.620369 2.812500
v 0.183326 0.750000 2.937500
v 0.183326 0.750000 2.812500
v 0.129631 0.879631 2.937500
v 0.129631 0.879631 2.812500
v 0.000000 0.933326 2.937500
v 0.000000 0.933326 2.812500
v -0.129631 0.879631 2.937500
v -0.129631 0.879631 2.812500
v -0.183326 0.750000 2.937500
v -0.183326 0.750000 2.812500
v -0.129631 0.620369 2.937500
v -0.129631 0.620369 2.812500
v 0.000000 0.597843 2.812500
v 0.000000 0.597843 0.562500
v 0.107591 0.642409 2.812500
v 0.107591 0.642409 0.562500
v 0.152157 0.750000 2.812500
v 0.152157 0.750000 0.562500
v 0.107591 0.857591 2.812500
v 0.107591 0.857591 0.562500
v 0.000000 0.902157 2.812500
v 0.000000 0.902157 0.562500
v -0.107591 0.857591 2.812500
v -0.107591 0.857591 0.562500
v -0.152157 0.750000 2.812500
v -0.152157 0.750000 0.562500
v -0.107591 0.642409 2.812500
v -0.107591 0.642409 0.562500
v 0.000000 1.754174 0.562500
v 0.000000 1.754174 0.437500
v 0.129631 1.807869 0.562500
v 0.129631 1.807869 0.437500
v 0.183326 1.937500 0.562500
v 0.183326 1.937500 0.437500
v 0.129631 2.067131 0.562500
v 0.129631 2.067131 0.437500
v 0.000000 2.120826 0.562500
v 0.000000 2.120826 0.437500
v -0.129631 2.067131 0.562500
v -0.129631 2.067131 0.437500
v -0.183326 1.937500 0.562500
v -0.183326 1.937500 0.437500
v -0.129631 1.807869 0.562500
v -0.129631 1.807869 0.437500
v 0.000000 1.754174 2.937500
v 0.000000 1.754174 2.812500
v 0.129631 1.807869 2.937500
v 0.129631 1.807869 2.812500
v 0.183326 1.937500 2.937500
v 0.183326 1.937500 2.812500
v 0.129631 2.067131 2.937500
v 0.129631 2.067131 2.812500
v 0.000000 2.120826 2.937500
v 0.000000 2.120826 2.812500
v -0.129631 2.067131 2.937500
v -0.129631 2.067131 2.812500
v -0.183326 1.937500 2.937500
v -0.183326 1.937500 2.812500
v -0.129631 1.807869 2.937500
v -0.129631 1.807869 2.812500
v 0.000000 1.785343 2.812500
v 0.000000 1.785343 0.562500
v 0.107591 1.829909 2.812500
v 0.107591 1.829909 0.562500
v 0.152157 1.937500 2.812500
v 0.152157 1.937500 0.562500
v 0.107591 2.045091 2.812500
v 0.107591 2.045091 0.562500
v 0.000000 2.089657 2.812500
v 0.000000 2.089657 0.562500
v -0.107591 2.045091 2.812500
v -0.107591 2.045091 0.562500
v -0.152157 1.937500 2.812500
v -0.152157 1.937500 0.562500
v -0.107591 1.829909 2.812500
v -0.107591 1.829909 0.562500
v 0.000000 0.566674 1.750000
v 0.000000 0.566674 1.625000
v 0.129631 0.620369 1.750000
v 0.129631 0.620369 1.625000
v 0.183326 0.750000 1.750000
v 0.183326 0.750000 1.625000
v 0.129631 0.879631 1.750000
v 0.129631 0.879631 1.625000
v 0.000000 0.933326 1.750000
v 0.000000 0.933326 1.625000
v -0.129631 0.879631 1.750000
v -0.129631 0.879631 1.625000
v -0.183326 0.750000 1.750000
v -0.183326 0.750000 1.625000
v -0.129631 0.620369 1.750000
v -0.129631 0.620369 1.625000
v 0.000000 1.754174 1.750000
v 0.000000 1.754174 1.625000
v 0.129631 1.807869 1.750000
v 0.129631 1.807869 1.625000
v 0.183326 1.937500 1.750000
v 0.183326 1.937500 1.625000
v 0.129631 2.067131 1.750000
v 0.129631 2.067131 1.625000
v 0.000000 2.120826 1.750000
v 0.000000 2.120826 1.625000
v -0.129631 2.067131 1.750000
v -0.129631 2.067131 1.625000
v -0.183326 1.937500 1.750000
v -0.183326 1.937500 1.625000
v -0.129631 1.807869 1.750000
v -0.129631 1.807869 1.625000
v -0.187500 0.000000 0.437500
v -0.187500 2.687500 0.437500
v -0.187500 0.000000 0.187500
v -0.187500 2.687500 0.187500
v 0.187500 0.000000 0.437500
v 0.187500 2.687500 0.437500
v 0.187500 0.000000 0.187500
v 0.187500 2.687500 0.187500
v 0.187500 0.500000 0.187500
v 0.187500 1.000000 0.187500
v -0.187500 0.500000 0.187500
v -0.187500 1.000000 0.187500
v 0.187500 2.500000 0.187500
v 0.187500 2.687500 0.187500
v -0.187500 2.500000 0.187500
v -0.187500 2.687500 0.187500
v 0.125000 2.000000 0.187500
v 0.187500 2.071793 0.187500
v 0.125000 2.500000 -0.312500
v 0.187500 2.500000 -0.241371
v -0.125000 1.500000 0.187500
v -0.187500 1.424179 0.187500
v 0.125000 0.500000 -0.312500
v 0.187500 0.500000 -0.237181
v 0.125000 0.000000 0.187500
v 0.187500 0.075821 0.187500
v -0.187500 0.075821 0.187500
v -0.125000 -0.000000 0.187500
v -0.125000 1.000000 -0.312500
v -0.187500 1.000000 -0.237181
v 0.187500 1.424179 0.187500
v 0.125000 1.500000 0.187500
v 0.187500 1.000000 -0.237181
v 0.125000 1.000000 -0.312500
v -0.187500 0.500000 -0.237181
v -0.125000 0.500000 -0.312500
v -0.187500 2.071793 0.187500
v -0.125000 2.000000 0.187500
v 0.187500 2.687500 -0.241702
v 0.125000 2.687500 -0.312500
v -0.125000 2.500000 -0.312500
v -0.187500 2.500000 -0.241371
v -0.125000 2.687500 -0.312500
v -0.187500 2.687500 -0.241702
v -0.187500 1.000000 2.937500
v -0.187500 1.687500 2.937500
v -0.187500 1.000000 0.437500
v -0.187500 1.687500 0.437500
v 0.187500 1.000000 2.937500
v 0.187500 1.687500 2.937500
v 0.187500 1.000000 0.437500
v 0.187500 1.687500 0.437500
v -0.312500 0.000000 2.937500
v -0.187500 0.500000 2.937500
v -0.312500 0.000000 0.312500
v -0.187500 0.500000 0.437500
v 0.312500 0.000000 2.937500
v 0.187500 0.500000 2.937500
v 0.312500 0.000000 0.312500
v 0.187500 0.500000 0.437500
v -0.187500 0.125000 2.937500
v -0.187500 0.125000 0.437500
v 0.187500 0.125000 0.437500
v 0.187500 0.125000 2.937500
v -0.187500 2.187500 2.937500
v -0.312500 2.687500 2.937500
v -0.187500 2.187500 0.437500
v -0.312500 2.687500 0.312500
v 0.187500 2.187500 2.937500
v 0.312500 2.687500 2.937500
v 0.187500 2.187500 0.437500
v 0.312500 2.687500 0.312500
v -0.187500 2.562500 2.937500
v -0.187500 2.562500 0.437500
v 0.187500 2.562500 0.437500
v 0.187500 2.562500 2.937500
v -0.125000 2.125000 0.437500
v -0.125000 2.125000 2.937500
v 0.125000 2.125000 0.437500
v 0.125000 2.125000 2.937500
v -0.125000 1.750000 2.937500
v -0.125000 1.750000 0.437500
v 0.125000 1.750000 0.437500
v 0.125000 1.750000 2.937500
v -0.125000 0.937500 0.437500
v -0.125000 0.937500 2.937500
v 0.125000 0.937500 0.437500
v 0.125000 0.937500 2.937500
v -0.125000 0.562500 2.937500
v -0.125000 0.562500 0.437500
v 0.125000 0.562500 0.437500
v 0.125000 0.562500 2.937500
v -0.062500 0.000000 2.937500
v -0.062500 2.687500 2.937500
v -0.062500 0.000000 0.437500
v -0.062500 2.687500 0.437500
v 0.062500 0.000000 2.937500
v 0.062500 2.687500 2.937500
v 0.062500 0.000000 0.437500
v 0.062500 2.687500 0.437500
vn -0.9239 0.3827 -0.0000
vn 0.9239 -0.3827 -0.0000
vn 0.3827 0.9239 -0.0000
vn 0.3827 -0.9239 -0.0000
vn -0.9239 -0.3827 -0.0000
vn -0.0000 -0.0000 1.0000
vn -0.3827 -0.9239 -0.0000
vn -0.3827 0.9239 -0.0000
vn -0.0000 -0.0000 -1.0000
vn 0.9239 0.3827 -0.0000
vn -1.0000 -0.0000 -0.0000
vn 1.0000 -0.0000 -0.0000
vn -0.0000 -1.0000 -0.0000
vn -0.7497 -0.0000 -0.6618
vn 0.6484 0.5387 -0.5380
vn -0.6511 0.5367 -0.5367
vn 0.6511 -0.5367 -0.5367
vn 0.6305 -0.5489 -0.5489
vn -0.6484 -0.5387 -0.5380
vn -0.6266 -0.5515 -0.5506
vn 0.7512 -0.0012 -0.6601
vn -0.7696 -0.0000 -0.6386
vn 0.7696 -0.0000 -0.6386
vn -0.0000 -0.7071 -0.7071
vn -0.0000 0.7071 -0.7071
vn 0.7071 -0.7071 -0.0000
vn 0.7071 0.7071 -0.0000
vn -0.7071 0.7071 -0.0000
vn -0.7071 -0.7071 -0.0000
vn -0.0000 1.0000 -0.0000
vn -0.7512 -0.0012 -0.6601
vn 0.6511 0.5367 -0.5367
vn -0.6484 0.5387 -0.5380
vn 0.6484 -0.5387 -0.5380
vn 0.6266 -0.5515 -0.5506
vn -0.6511 -0.5367 -0.5367
vn -0.6305 -0.5489 -0.5489
vn 0.7497 -0.0000 -0.6618
vt 0.066406 0.320312
vt 0.062500 0.328125
vt 0.062500 0.320312
vt 0.070312 0.328125
vt 0.066406 0.328125
vt 0.070312 0.320312
vt 0.335938 1.000000
vt 0.351562 0.664062
vt 0.335938 0.664062
vt 0.375000 1.000000
vt 0.375000 0.664062
vt 0.351562 1.000000
vt 0.671875 0.960938
vt 0.656250 0.914062
vt 0.671875 0.914062
vt 0.382812 0.976562
vt 0.378388 1.000000
vt 0.382812 1.000000
vt 0.382812 0.789062
vt 0.351562 0.842085
vt 0.378105 0.789062
vt 0.351562 0.851562
vt 0.382812 0.726562
vt 0.351562 0.673540
vt 0.351562 0.923037
vt 0.351562 0.914062
vt 0.378105 0.726562
vt 0.378367 0.976562
vt 0.367188 0.914062
vt 0.351562 0.976562
vt 0.367188 1.000000
vt 0.367188 0.976562
vt 0.367188 0.851562
vt 0.351562 0.789062
vt 0.367188 0.789062
vt 0.351562 0.726562
vt 0.367188 0.718750
vt 0.367188 0.664062
vt 0.351562 0.718750
vt 0.000000 0.875000
vt 0.156250 0.789062
vt 0.000000 0.789062
vt 0.156250 0.875000
vt 0.156250 0.781250
vt 0.000000 0.726562
vt 0.156250 0.679688
vt 0.000000 0.679688
vt 0.156250 0.726562
vt 0.164062 0.664062
vt 0.000000 0.664062
vt 0.000000 0.734375
vt 0.000000 1.000000
vt 0.156250 0.984375
vt 0.000000 0.984375
vt 0.164062 1.000000
vt 0.000000 0.937500
vt 0.156250 0.937500
vt 0.156250 0.929688
vt 0.000000 0.929688
vt 0.156250 0.882812
vt 0.000000 0.882812
vt 0.000000 0.781250
vt 0.156250 0.734375
vt 0.156250 0.664062
vt 0.156250 1.000000
vt 0.656250 0.960938
s 0
f 195/78/19 198/79/19 197/80/19
f 205/78/20 204/81/20 206/82/20
f 118/78/19 115/81/19 116/82/19
f 210/78/21 207/81/21 208/82/21
f 123/78/22 122/81/22 124/82/22
f 134/78/19 131/81/19 132/82/19
f 136/78/23 133/81/23 134/82/23
f 105/83/22 108/82/22 107/78/22
f 105/78/24 107/83/24 111/81/24
f 107/78/24 109/83/24 111/81/24
f 111/78/24 113/83/24 115/81/24
f 115/78/24 117/83/24 119/81/24
f 204/78/22 201/81/22 202/82/22
f 109/78/20 108/81/20 110/82/20
f 125/78/20 124/81/20 126/82/20
f 201/78/25 216/81/25 202/82/25
f 211/78/26 210/81/26 212/82/26
f 113/83/26 116/82/26 115/78/26
f 126/78/27 124/83/27 122/81/27
f 122/78/27 136/83/27 126/81/27
f 206/83/27 214/82/27 208/78/27
f 134/78/27 132/83/27 130/81/27
f 130/78/27 128/83/27 134/81/27
f 216/78/23 213/81/23 214/82/23
f 119/83/25 106/82/25 105/78/25
f 138/80/25 151/82/25 152/79/25
f 153/83/22 156/82/22 155/78/22
f 149/78/23 152/79/23 151/80/23
f 145/78/26 148/79/26 147/80/26
f 197/78/23 200/79/23 199/80/23
f 143/80/28 142/82/28 144/79/28
f 139/78/20 142/79/20 141/80/20
f 199/78/25 186/79/25 185/80/25
f 167/83/25 154/82/25 153/78/25
f 229/83/23 232/82/23 231/78/23
f 155/83/20 158/82/20 157/78/20
f 157/83/28 160/82/28 159/78/28
f 231/83/25 218/82/25 217/78/25
f 161/83/26 164/82/26 163/78/26
f 163/83/19 166/82/19 165/78/19
f 126/83/27 134/82/27 128/78/27
f 167/78/24 153/83/24 155/81/24
f 155/78/24 157/83/24 159/81/24
f 159/78/24 161/83/24 163/81/24
f 163/78/24 165/83/24 167/81/24
f 165/83/23 168/82/23 167/78/23
f 163/83/24 155/82/24 159/78/24
f 219/83/20 222/82/20 221/78/20
f 169/83/22 172/82/22 171/78/22
f 173/83/28 176/82/28 175/78/28
f 175/83/21 178/82/21 177/78/21
f 177/83/26 180/82/26 179/78/26
f 174/78/27 172/83/27 170/81/27
f 170/78/27 184/83/27 174/81/27
f 143/78/21 146/79/21 145/80/21
f 182/78/27 180/83/27 178/81/27
f 178/78/27 176/83/27 182/81/27
f 227/83/24 219/82/24 223/78/24
f 181/83/23 184/82/23 183/78/23
f 193/78/26 196/79/26 195/80/26
f 127/78/28 126/81/28 128/82/28
f 137/78/22 140/79/22 139/80/22
f 211/83/24 201/82/24 207/78/24
f 191/78/21 194/79/21 193/80/21
f 189/78/28 192/79/28 191/80/28
f 187/78/20 190/79/20 189/80/20
f 185/78/22 188/79/22 187/80/22
f 129/78/21 128/81/21 130/82/21
f 211/83/19 214/82/19 213/78/19
f 111/78/28 110/81/28 112/82/28
f 122/78/25 135/81/25 136/82/25
f 113/78/21 112/81/21 114/82/21
f 120/78/23 117/81/23 118/82/23
f 206/78/27 204/83/27 202/81/27
f 202/78/27 216/83/27 206/81/27
f 222/83/27 230/82/27 224/78/27
f 214/78/27 212/83/27 210/81/27
f 210/78/27 208/83/27 214/81/27
f 205/83/28 208/82/28 207/78/28
f 132/78/26 129/81/26 130/82/26
f 149/78/19 148/79/19 150/80/19
f 221/83/28 224/82/28 223/78/28
f 223/83/21 226/82/21 225/78/21
f 225/83/26 228/82/26 227/78/26
f 227/83/19 230/82/19 229/78/19
f 183/83/25 170/82/25 169/78/25
f 222/78/27 220/83/27 218/81/27
f 218/78/27 232/83/27 222/81/27
f 174/83/27 182/82/27 176/78/27
f 230/78/27 228/83/27 226/81/27
f 226/78/27 224/83/27 230/81/27
f 217/83/22 220/82/22 219/78/22
f 159/83/21 162/82/21 161/78/21
f 231/78/24 217/83/24 219/81/24
f 219/78/24 221/83/24 223/81/24
f 223/78/24 225/83/24 227/81/24
f 227/78/24 229/83/24 231/81/24
f 179/83/19 182/82/19 181/78/19
f 115/83/24 105/82/24 111/78/24
f 201/78/24 203/83/24 207/81/24
f 203/78/24 205/83/24 207/81/24
f 207/78/24 209/83/24 211/81/24
f 211/78/24 213/83/24 215/81/24
f 171/83/20 174/82/20 173/78/20
f 234/84/29 235/85/29 233/86/29
f 236/87/27 239/85/27 235/88/27
f 240/89/30 237/86/30 239/85/30
f 238/84/24 233/86/24 237/86/24
f 239/90/31 233/91/31 235/92/31
f 273/93/32 276/94/32 275/95/32
f 266/96/33 263/97/33 265/98/33
f 261/96/34 254/97/34 253/99/34
f 255/100/35 258/101/35 257/85/35
f 251/93/36 250/102/36 249/103/36
f 268/100/37 259/101/37 267/104/37
f 273/93/38 269/102/38 274/105/38
f 251/93/39 271/94/39 252/105/39
f 268/100/40 262/98/40 261/96/40
f 266/96/41 256/104/41 255/100/41
f 270/106/42 251/107/42 249/103/42
f 250/102/30 252/105/30 245/107/30
f 275/108/27 251/107/27 273/109/27
f 252/105/30 246/89/30 245/107/30
f 253/110/43 266/111/43 261/112/43
f 244/111/29 254/97/29 262/98/29
f 265/98/30 241/113/30 256/104/30
f 258/101/30 256/104/30 241/113/30
f 268/114/42 257/85/42 260/115/42
f 261/112/27 255/116/27 268/114/27
f 259/101/29 243/113/29 267/104/29
f 244/111/29 267/104/29 243/113/29
f 265/98/30 263/97/30 242/111/30
f 269/102/29 247/107/29 274/105/29
f 248/89/29 274/105/29 247/107/29
f 278/117/29 279/118/29 277/119/29
f 284/120/30 281/119/30 283/118/30
f 281/119/44 319/121/44 283/118/44
f 286/122/29 294/123/29 293/124/29
f 292/125/30 296/124/30 295/123/30
f 291/126/31 285/127/31 287/126/31
f 292/125/45 324/128/45 290/122/45
f 295/123/45 289/127/45 291/126/45
f 294/123/43 291/126/43 287/126/43
f 285/127/46 294/123/46 287/126/46
f 298/129/47 306/130/47 305/131/47
f 300/132/42 307/130/42 306/130/42
f 307/130/44 302/129/44 308/131/44
f 302/129/24 305/131/24 308/131/24
f 307/130/30 301/133/30 303/134/30
f 305/131/29 299/134/29 297/133/29
f 311/135/31 310/136/31 309/135/31
f 299/134/47 310/136/47 297/133/47
f 301/133/44 311/135/44 303/134/44
f 314/137/48 316/138/48 315/137/48
f 284/120/45 316/138/45 282/117/45
f 278/117/46 314/137/46 280/120/46
f 319/121/31 318/139/31 317/121/31
f 279/118/47 318/139/47 277/119/47
f 322/140/48 324/128/48 323/140/48
f 286/122/46 322/140/46 288/125/46
f 326/129/29 327/141/29 325/127/29
f 332/142/30 329/127/30 331/141/30
f 195/78/19 196/82/19 198/79/19
f 205/78/20 203/83/20 204/81/20
f 118/78/19 117/83/19 115/81/19
f 210/78/21 209/83/21 207/81/21
f 123/78/22 121/83/22 122/81/22
f 134/78/19 133/83/19 131/81/19
f 136/78/23 135/83/23 133/81/23
f 105/83/22 106/81/22 108/82/22
f 204/78/22 203/83/22 201/81/22
f 109/78/20 107/83/20 108/81/20
f 125/78/20 123/83/20 124/81/20
f 201/78/25 215/83/25 216/81/25
f 211/78/26 209/83/26 210/81/26
f 113/83/26 114/81/26 116/82/26
f 206/83/27 216/81/27 214/82/27
f 216/78/23 215/83/23 213/81/23
f 119/83/25 120/81/25 106/82/25
f 138/80/25 137/78/25 151/82/25
f 153/83/22 154/81/22 156/82/22
f 149/78/23 150/82/23 152/79/23
f 145/78/26 146/82/26 148/79/26
f 197/78/23 198/82/23 200/79/23
f 143/80/28 141/78/28 142/82/28
f 139/78/20 140/82/20 142/79/20
f 199/78/25 200/82/25 186/79/25
f 167/83/25 168/81/25 154/82/25
f 229/83/23 230/81/23 232/82/23
f 155/83/20 156/81/20 158/82/20
f 157/83/28 158/81/28 160/82/28
f 231/83/25 232/81/25 218/82/25
f 161/83/26 162/81/26 164/82/26
f 163/83/19 164/81/19 166/82/19
f 126/83/27 136/81/27 134/82/27
f 165/83/23 166/81/23 168/82/23
f 163/83/24 167/81/24 155/82/24
f 219/83/20 220/81/20 222/82/20
f 169/83/22 170/81/22 172/82/22
f 173/83/28 174/81/28 176/82/28
f 175/83/21 176/81/21 178/82/21
f 177/83/26 178/81/26 180/82/26
f 143/78/21 144/82/21 146/79/21
f 227/83/24 231/81/24 219/82/24
f 181/83/23 182/81/23 184/82/23
f 193/78/26 194/82/26 196/79/26
f 127/78/28 125/83/28 126/81/28
f 137/78/22 138/82/22 140/79/22
f 211/83/24 215/81/24 201/82/24
f 191/78/21 192/82/21 194/79/21
f 189/78/28 190/82/28 192/79/28
f 187/78/20 188/82/20 190/79/20
f 185/78/22 186/82/22 188/79/22
f 129/78/21 127/83/21 128/81/21
f 211/83/19 212/81/19 214/82/19
f 111/78/28 109/83/28 110/81/28
f 122/78/25 121/83/25 135/81/25
f 113/78/21 111/83/21 112/81/21
f 120/78/23 119/83/23 117/81/23
f 222/83/27 232/81/27 230/82/27
f 205/83/28 206/81/28 208/82/28
f 132/78/26 131/83/26 129/81/26
f 149/78/19 147/82/19 148/79/19
f 221/83/28 222/81/28 224/82/28
f 223/83/21 224/81/21 226/82/21
f 225/83/26 226/81/26 228/82/26
f 227/83/19 228/81/19 230/82/19
f 183/83/25 184/81/25 170/82/25
f 174/83/27 184/81/27 182/82/27
f 217/83/22 218/81/22 220/82/22
f 159/83/21 160/81/21 162/82/21
f 179/83/19 180/81/19 182/82/19
f 115/83/24 119/81/24 105/82/24
f 171/83/20 172/81/20 174/82/20
f 234/84/29 236/89/29 235/85/29
f 236/87/27 240/89/27 239/85/27
f 240/89/30 238/84/30 237/86/30
f 238/84/24 234/84/24 233/86/24
f 239/90/31 237/143/31 233/91/31
f 273/93/49 274/105/49 276/94/49
f 266/96/50 264/99/50 263/97/50
f 261/96/51 262/98/51 254/97/51
f 255/100/52 256/104/52 258/101/52
f 251/93/53 252/105/53 250/102/53
f 268/100/54 260/85/54 259/101/54
f 273/93/55 270/103/55 269/102/55
f 251/93/56 272/95/56 271/94/56
f 268/100/40 267/104/40 262/98/40
f 266/96/41 265/98/41 256/104/41
f 270/106/42 273/109/42 251/107/42
f 275/108/27 272/89/27 251/107/27
f 252/105/30 271/94/30 246/89/30
f 253/110/43 264/99/43 266/111/43
f 265/98/30 242/111/30 241/113/30
f 268/114/42 255/116/42 257/85/42
f 261/112/27 266/111/27 255/116/27
f 244/111/29 262/98/29 267/104/29
f 248/89/29 276/94/29 274/105/29
f 278/117/29 280/120/29 279/118/29
f 284/120/30 282/117/30 281/119/30
f 281/119/44 320/139/44 319/121/44
f 286/122/29 288/125/29 294/123/29
f 292/125/30 290/122/30 296/124/30
f 291/126/31 289/127/31 285/127/31
f 292/125/45 323/140/45 324/128/45
f 295/123/45 296/124/45 289/127/45
f 294/123/43 295/123/43 291/126/43
f 285/127/46 293/124/46 294/123/46
f 298/129/47 300/132/47 306/130/47
f 300/132/42 304/132/42 307/130/42
f 307/130/44 304/132/44 302/129/44
f 302/129/24 298/129/24 305/131/24
f 307/130/30 308/131/30 301/133/30
f 305/131/29 306/130/29 299/134/29
f 311/135/31 312/136/31 310/136/31
f 299/134/47 309/135/47 310/136/47
f 301/133/44 312/136/44 311/135/44
f 314/137/48 313/138/48 316/138/48
f 284/120/45 315/137/45 316/138/45
f 278/117/46 313/138/46 314/137/46
f 319/121/31 320/139/31 318/139/31
f 279/118/47 317/121/47 318/139/47
f 322/140/48 321/128/48 324/128/48
f 286/122/46 321/128/46 322/140/46
f 326/129/29 328/142/29 327/141/29
f 332/142/30 330/129/30 329/127/30
o Track
v -0.187500 0.001000 2.937500
v 0.187500 0.001000 2.937500
v -0.187500 0.001000 -2.937500
v 0.187500 0.001000 -2.937500
vn -0.0000 1.0000 -0.0000
vt 0.000000 0.000000
vt 0.367188 0.046875
vt 0.000000 0.046875
vt 0.367188 0.000000
s 0
f 334/144/57 335/145/57 333/146/57
f 334/144/57 336/147/57 335/145/57
o DoorRight
v 0.224917 0.000000 -0.419494
v 0.224917 2.687500 -0.419494
v 0.203128 0.000000 -0.170445
v 0.203128 2.687500 -0.170445
v -0.148656 0.000000 -0.452177
v -0.148656 2.687500 -0.452177
v -0.170445 0.000000 -0.203128
v -0.170445 2.687500 -0.203128
v -0.187500 0.000000 -0.312500
v 0.187500 0.000000 -0.312500
v -0.187500 1.500000 -0.312500
v -0.187500 2.000000 -0.312500
v 0.187500 1.500000 -0.312500
v 0.187500 2.000000 -0.312500
v -0.125000 0.000000 0.187500
v -0.187500 0.000000 0.099112
v -0.187500 0.411612 -0.312500
v -0.125000 0.500000 -0.312500
v 0.187500 0.000000 0.099112
v 0.125000 0.000000 0.187500
v 0.125000 0.500000 -0.312500
v 0.187500 0.411612 -0.312500
v 0.125000 2.500000 -0.312500
v 0.187500 2.424179 -0.312500
v -0.125000 1.500000 0.187500
v -0.187500 1.500000 0.112181
v -0.125000 1.000000 -0.312500
v -0.187500 1.075821 -0.312500
v 0.187500 1.075821 -0.312500
v 0.125000 1.000000 -0.312500
v 0.125000 2.000000 0.187500
v 0.187500 2.000000 0.112181
v -0.187500 2.424179 -0.312500
v -0.125000 2.500000 -0.312500
v -0.187500 2.000000 0.112181
v -0.125000 2.000000 0.187500
v 0.187500 1.500000 0.112181
v 0.125000 1.500000 0.187500
v 0.187500 1.000000 -2.937500
v 0.187500 1.687500 -2.937500
v 0.187500 1.000000 -0.437500
v 0.187500 1.687500 -0.437500
v -0.187500 1.000000 -2.937500
v -0.187500 1.687500 -2.937500
v -0.187500 1.000000 -0.437500
v -0.187500 1.687500 -0.437500
v 0.312500 0.000000 -2.937500
v 0.187500 0.500000 -2.937500
v 0.312500 0.000000 -0.312500
v 0.187500 0.500000 -0.437500
v -0.312500 0.000000 -2.937500
v -0.187500 0.500000 -2.937500
v -0.312500 0.000000 -0.312500
v -0.187500 0.500000 -0.437500
v 0.187500 0.125000 -2.937500
v 0.187500 0.125000 -0.437500
v -0.187500 0.125000 -0.437500
v -0.187500 0.125000 -2.937500
v 0.187500 2.187500 -2.937500
v 0.312500 2.687500 -2.937500
v 0.187500 2.187500 -0.437500
v 0.312500 2.687500 -0.312500
v -0.187500 2.187500 -2.937500
v -0.312500 2.687500 -2.937500
v -0.187500 2.187500 -0.437500
v -0.312500 2.687500 -0.312500
v 0.187500 2.562500 -2.937500
v 0.187500 2.562500 -0.437500
v -0.187500 2.562500 -0.437500
v -0.187500 2.562500 -2.937500
v 0.125000 2.125000 -0.437500
v 0.125000 2.125000 -2.937500
v -0.125000 2.125000 -0.437500
v -0.125000 2.125000 -2.937500
v 0.125000 1.750000 -2.937500
v 0.125000 1.750000 -0.437500
v -0.125000 1.750000 -0.437500
v -0.125000 1.750000 -2.937500
v 0.125000 0.937500 -0.437500
v 0.125000 0.937500 -2.937500
v -0.125000 0.937500 -0.437500
v -0.125000 0.937500 -2.937500
v 0.125000 0.562500 -2.937500
v 0.125000 0.562500 -0.437500
v -0.125000 0.562500 -0.437500
v -0.125000 0.562500 -2.937500
v 0.062500 0.000000 -2.937500
v 0.062500 2.687500 -2.937500
v 0.062500 0.000000 -0.437500
v 0.062500 2.687500 -0.437500
v -0.062500 0.000000 -2.937500
v -0.062500 2.687500 -2.937500
v -0.062500 0.000000 -0.437500
v -0.062500 2.687500 -0.437500
v -0.000000 0.566674 -0.562500
v -0.000000 0.566674 -0.437500
v -0.129631 0.620369 -0.562500
v -0.129631 0.620369 -0.437500
v -0.183326 0.750000 -0.562500
v -0.183326 0.750000 -0.437500
v -0.129631 0.879631 -0.562500
v -0.129631 0.879631 -0.437500
v -0.000000 0.933326 -0.562500
v -0.000000 0.933326 -0.437500
v 0.129631 0.879631 -0.562500
v 0.129631 0.879631 -0.437500
v 0.183326 0.750000 -0.562500
v 0.183326 0.750000 -0.437500
v 0.129631 0.620369 -0.562500
v 0.129631 0.620369 -0.437500
v -0.000000 0.566674 -2.937500
v -0.000000 0.566674 -2.812500
v -0.129632 0.620369 -2.937500
v -0.129631 0.620369 -2.812500
v -0.183326 0.750000 -2.937500
v -0.183326 0.750000 -2.812500
v -0.129632 0.879631 -2.937500
v -0.129631 0.879631 -2.812500
v -0.000000 0.933326 -2.937500
v -0.000000 0.933326 -2.812500
v 0.129631 0.879631 -2.937500
v 0.129631 0.879631 -2.812500
v 0.183326 0.750000 -2.937500
v 0.183326 0.750000 -2.812500
v 0.129631 0.620369 -2.937500
v 0.129631 0.620369 -2.812500
v -0.000000 0.597843 -2.812500
v -0.000000 0.597843 -0.562500
v -0.107592 0.642409 -2.812500
v -0.107591 0.642409 -0.562500
v -0.152158 0.750000 -2.812500
v -0.152157 0.750000 -0.562500
v -0.107592 0.857591 -2.812500
v -0.107591 0.857591 -0.562500
v -0.000000 0.902157 -2.812500
v -0.000000 0.902157 -0.562500
v 0.107591 0.857591 -2.812500
v 0.107591 0.857591 -0.562500
v 0.152157 0.750000 -2.812500
v 0.152157 0.750000 -0.562500
v 0.107591 0.642409 -2.812500
v 0.107591 0.642409 -0.562500
v -0.000000 1.754174 -0.562500
v -0.000000 1.754174 -0.437500
v -0.129631 1.807869 -0.562500
v -0.129631 1.807869 -0.437500
v -0.183326 1.937500 -0.562500
v -0.183326 1.937500 -0.437500
v -0.129631 2.067131 -0.562500
v -0.129631 2.067131 -0.437500
v -0.000000 2.120826 -0.562500
v -0.000000 2.120826 -0.437500
v 0.129631 2.067131 -0.562500
v 0.129631 2.067131 -0.437500
v 0.183326 1.937500 -0.562500
v 0.183326 1.937500 -0.437500
v 0.129631 1.807869 -0.562500
v 0.129631 1.807869 -0.437500
v -0.000000 1.754174 -2.937500
v -0.000000 1.754174 -2.812500
v -0.129632 1.807869 -2.937500
v -0.129631 1.807869 -2.812500
v -0.183326 1.937500 -2.937500
v -0.183326 1.937500 -2.812500
v -0.129632 2.067131 -2.937500
v -0.129631 2.067131 -2.812500
v -0.000000 2.120826 -2.937500
v -0.000000 2.120826 -2.812500
v 0.129631 2.067131 -2.937500
v 0.129631 2.067131 -2.812500
v 0.183326 1.937500 -2.937500
v 0.183326 1.937500 -2.812500
v 0.129631 1.807869 -2.937500
v 0.129631 1.807869 -2.812500
v -0.000000 1.785343 -2.812500
v -0.000000 1.785343 -0.562500
v -0.107592 1.829909 -2.812500
v -0.107591 1.829909 -0.562500
v -0.152158 1.937500 -2.812500
v -0.152157 1.937500 -0.562500
v -0.107592 2.045091 -2.812500
v -0.107591 2.045091 -0.562500
v -0.000000 2.089657 -2.812500
v -0.000000 2.089657 -0.562500
v 0.107591 2.045091 -2.812500
v 0.107591 2.045091 -0.562500
v 0.152157 1.937500 -2.812500
v 0.152157 1.937500 -0.562500
v 0.107591 1.829909 -2.812500
v 0.107591 1.829909 -0.562500
v -0.000000 0.566674 -1.750000
v -0.000000 0.566674 -1.625000
v -0.129631 0.620369 -1.750000
v -0.129631 0.620369 -1.625000
v -0.183326 0.750000 -1.750000
v -0.183326 0.750000 -1.625000
v -0.129631 0.879631 -1.750000
v -0.129631 0.879631 -1.625000
v -0.000000 0.933326 -1.750000
v -0.000000 0.933326 -1.625000
v 0.129631 0.879631 -1.750000
v 0.129631 0.879631 -1.625000
v 0.183326 0.750000 -1.750000
v 0.183326 0.750000 -1.625000
v 0.129631 0.620369 -1.750000
v 0.129631 0.620369 -1.625000
v -0.000000 1.754174 -1.750000
v -0.000000 1.754174 -1.625000
v -0.129631 1.807869 -1.750000
v -0.129631 1.807869 -1.625000
v -0.183326 1.937500 -1.750000
v -0.183326 1.937500 -1.625000
v -0.129631 2.067131 -1.750000
v -0.129631 2.067131 -1.625000
v -0.000000 2.120826 -1.750000
v -0.000000 2.120826 -1.625000
v 0.129631 2.067131 -1.750000
v 0.129631 2.067131 -1.625000
v 0.183326 1.937500 -1.750000
v 0.183326 1.937500 -1.625000
v 0.129631 1.807869 -1.750000
v 0.129631 1.807869 -1.625000
vn 0.9962 -0.0000 0.0872
vn -0.0872 -0.0000 0.9962
vn -0.9962 -0.0000 -0.0872
vn 0.0872 -0.0000 -0.9962
vn -0.0000 -1.0000 -0.0000
vn -0.6484 0.5387 0.5380
vn 0.6511 0.5367 0.5367
vn -0.6511 -0.5367 0.5367
vn 0.7071 0.5000 0.5000
vn -0.7071 0.5000 0.5000
vn 0.6484 -0.5387 0.5380
vn 0.7696 -0.0000 0.6386
vn -0.7696 -0.0000 0.6386
vn -1.0000 -0.0000 -0.0000
vn -0.0000 0.7071 0.7071
vn 1.0000 -0.0000 -0.0000
vn -0.0000 -0.7071 0.7071
vn -0.0000 -0.0000 1.0000
vn -0.7071 -0.7071 -0.0000
vn -0.7071 0.7071 -0.0000
vn 0.7071 0.7071 -0.0000
vn 0.7071 -0.7071 -0.0000
vn -0.0000 -0.0000 -1.0000
vn -0.0000 1.0000 -0.0000
vn 0.9239 0.3827 -0.0000
vn -0.9239 -0.3827 -0.0000
vn -0.3827 0.9239 -0.0000
vn -0.3827 -0.9239 -0.0000
vn 0.9239 -0.3827 -0.0000
vn 0.3827 -0.9239 -0.0000
vn 0.3827 0.9239 -0.0000
vn -0.9239 0.3827 -0.0000
vn -0.6511 0.5367 0.5367
vn 0.6484 0.5387 0.5380
vn -0.6484 -0.5387 0.5380
vn 0.6511 -0.5367 0.5367
vt 0.335938 1.000000
vt 0.351562 0.664062
vt 0.335938 0.664062
vt 0.375000 1.000000
vt 0.375000 0.664062
vt 0.351562 1.000000
vt 0.671875 0.960938
vt 0.656250 0.914062
vt 0.671875 0.914062
vt 0.351562 0.914062
vt 0.382812 0.967085
vt 0.356270 0.914062
vt 0.382812 0.976562
vt 0.351562 0.851562
vt 0.382812 0.798540
vt 0.382812 0.789062
vt 0.382812 0.715514
vt 0.382812 0.726562
vt 0.357087 0.664062
vt 0.356270 0.851562
vt 0.382812 0.664062
vt 0.351562 0.718750
vt 0.367188 0.664062
vt 0.351562 0.976562
vt 0.367188 0.914062
vt 0.382812 0.914062
vt 0.382812 0.851562
vt 0.367188 0.789062
vt 0.351562 0.789062
vt 0.367188 0.851562
vt 0.332031 0.875000
vt 0.175781 0.789062
vt 0.332031 0.789062
vt 0.175781 0.875000
vt 0.175781 0.781250
vt 0.332031 0.726562
vt 0.175781 0.679688
vt 0.332031 0.679688
vt 0.175781 0.726562
vt 0.167969 0.664062
vt 0.332031 0.664062
vt 0.332031 0.734375
vt 0.332031 1.000000
vt 0.175781 0.984375
vt 0.332031 0.984375
vt 0.167969 1.000000
vt 0.332031 0.937500
vt 0.175781 0.937500
vt 0.175781 0.929688
vt 0.332031 0.929688
vt 0.175781 0.882812
vt 0.332031 0.882812
vt 0.332031 0.781250
vt 0.175781 0.734375
vt 0.175781 0.664062
vt 0.175781 1.000000
vt 0.066406 0.320312
vt 0.062500 0.328125
vt 0.062500 0.320312
vt 0.070312 0.320312
vt 0.066406 0.328125
vt 0.070312 0.328125
vt 0.656250 0.960938
vt 0.367188 0.718750
vt 0.367188 0.976562
s 0
f 338/148/58 339/149/58 337/150/58
f 340/151/59 343/149/59 339/152/59
f 344/153/60 341/150/60 343/149/60
f 342/148/61 337/150/61 341/150/61
f 343/154/62 337/155/62 339/156/62
f 372/157/63 369/158/63 371/159/63
f 367/157/64 360/158/64 359/160/64
f 361/161/65 364/162/65 363/163/65
f 356/149/66 358/164/66 357/165/66
f 354/165/67 352/166/67 351/149/67
f 374/161/68 365/162/68 373/167/68
f 374/161/69 368/159/69 367/157/69
f 372/157/70 362/167/70 361/161/70
f 352/166/71 353/164/71 345/168/71
f 357/169/72 351/170/72 356/149/72
f 346/168/73 358/164/73 355/166/73
f 359/171/72 372/172/72 367/157/72
f 350/173/73 360/158/73 368/159/73
f 371/159/71 347/174/71 362/167/71
f 364/162/71 362/167/71 347/174/71
f 374/161/74 363/175/74 366/176/74
f 367/157/75 361/177/75 374/161/75
f 365/162/73 349/174/73 373/167/73
f 350/173/73 373/167/73 349/174/73
f 371/159/71 369/158/71 348/173/71
f 376/178/73 377/179/73 375/180/73
f 382/181/71 379/180/71 381/179/71
f 379/180/76 417/182/76 381/179/76
f 384/183/73 392/184/73 391/185/73
f 390/186/71 394/185/71 393/184/71
f 389/187/62 383/188/62 385/187/62
f 390/186/77 422/189/77 388/183/77
f 393/184/77 387/188/77 389/187/77
f 392/184/72 389/187/72 385/187/72
f 383/188/78 392/184/78 385/187/78
f 396/190/79 404/191/79 403/192/79
f 398/193/74 405/191/74 404/191/74
f 405/191/76 400/190/76 406/192/76
f 400/190/80 403/192/80 406/192/80
f 405/191/71 399/194/71 401/195/71
f 403/192/73 397/195/73 395/194/73
f 409/196/62 408/197/62 407/196/62
f 397/195/79 408/197/79 395/194/79
f 399/194/76 409/196/76 401/195/76
f 412/198/81 414/199/81 413/198/81
f 382/181/77 414/199/77 380/178/77
f 376/178/78 412/198/78 378/181/78
f 417/182/62 416/200/62 415/182/62
f 377/179/79 416/200/79 375/180/79
f 420/201/81 422/189/81 421/201/81
f 384/183/78 420/201/78 386/186/78
f 424/190/73 425/202/73 423/188/73
f 430/203/71 427/188/71 429/202/71
f 521/204/82 524/205/82 523/206/82
f 529/207/83 532/208/83 531/204/83
f 443/207/82 442/208/82 444/204/82
f 535/207/84 534/208/84 536/204/84
f 449/204/85 448/209/85 450/208/85
f 459/207/82 458/208/82 460/204/82
f 462/204/86 459/209/86 460/208/86
f 431/207/85 434/208/85 433/204/85
f 431/204/80 433/207/80 437/209/80
f 433/204/80 435/207/80 437/209/80
f 437/204/80 439/207/80 441/209/80
f 441/204/80 443/207/80 445/209/80
f 529/207/85 528/208/85 530/204/85
f 433/207/83 436/208/83 435/204/83
f 451/204/83 450/209/83 452/208/83
f 541/207/87 528/208/87 527/204/87
f 537/204/88 536/209/88 538/208/88
f 441/204/88 440/209/88 442/208/88
f 452/204/75 450/207/75 448/209/75
f 448/204/75 462/207/75 452/209/75
f 532/207/75 540/208/75 534/204/75
f 460/204/75 458/207/75 456/209/75
f 456/204/75 454/207/75 460/209/75
f 542/204/86 539/209/86 540/208/86
f 445/207/87 432/208/87 431/204/87
f 463/204/87 478/205/87 464/206/87
f 479/207/85 482/208/85 481/204/85
f 475/204/86 478/205/86 477/206/86
f 471/204/88 474/205/88 473/206/88
f 523/204/86 526/205/86 525/206/86
f 469/206/89 468/208/89 470/205/89
f 465/204/83 468/205/83 467/206/83
f 525/204/87 512/205/87 511/206/87
f 493/207/87 480/208/87 479/204/87
f 555/207/86 558/208/86 557/204/86
f 481/207/83 484/208/83 483/204/83
f 483/207/89 486/208/89 485/204/89
f 557/207/87 544/208/87 543/204/87
f 487/207/88 490/208/88 489/204/88
f 489/207/82 492/208/82 491/204/82
f 452/207/75 460/208/75 454/204/75
f 493/204/80 479/207/80 481/209/80
f 481/204/80 483/207/80 485/209/80
f 485/204/80 487/207/80 489/209/80
f 489/204/80 491/207/80 493/209/80
f 491/207/86 494/208/86 493/204/86
f 489/207/80 481/208/80 485/204/80
f 545/207/83 548/208/83 547/204/83
f 495/207/85 498/208/85 497/204/85
f 499/207/89 502/208/89 501/204/89
f 501/207/84 504/208/84 503/204/84
f 503/207/88 506/208/88 505/204/88
f 500/204/75 498/207/75 496/209/75
f 496/204/75 510/207/75 500/209/75
f 469/204/84 472/205/84 471/206/84
f 508/204/75 506/207/75 504/209/75
f 504/204/75 502/207/75 508/209/75
f 553/207/80 545/208/80 549/204/80
f 507/207/86 510/208/86 509/204/86
f 519/204/88 522/205/88 521/206/88
f 451/207/89 454/208/89 453/204/89
f 463/204/85 466/205/85 465/206/85
f 537/207/80 527/208/80 533/204/80
f 517/204/84 520/205/84 519/206/84
f 515/204/89 518/205/89 517/206/89
f 513/204/83 516/205/83 515/206/83
f 511/204/85 514/205/85 513/206/85
f 455/204/84 454/209/84 456/208/84
f 539/204/82 538/209/82 540/208/82
f 437/204/89 436/209/89 438/208/89
f 448/204/87 461/209/87 462/208/87
f 437/207/84 440/208/84 439/204/84
f 445/207/86 444/208/86 446/204/86
f 532/204/75 530/207/75 528/209/75
f 528/204/75 542/207/75 532/209/75
f 548/207/75 556/208/75 550/204/75
f 540/204/75 538/207/75 536/209/75
f 536/204/75 534/207/75 540/209/75
f 531/207/89 534/208/89 533/204/89
f 458/204/88 455/209/88 456/208/88
f 475/204/82 474/205/82 476/206/82
f 547/207/89 550/208/89 549/204/89
f 549/207/84 552/208/84 551/204/84
f 551/207/88 554/208/88 553/204/88
f 553/207/82 556/208/82 555/204/82
f 509/207/87 496/208/87 495/204/87
f 548/204/75 546/207/75 544/209/75
f 544/204/75 558/207/75 548/209/75
f 500/207/75 508/208/75 502/204/75
f 556/204/75 554/207/75 552/209/75
f 552/204/75 550/207/75 556/209/75
f 543/207/85 546/208/85 545/204/85
f 485/207/84 488/208/84 487/204/84
f 557/204/80 543/207/80 545/209/80
f 545/204/80 547/207/80 549/209/80
f 549/204/80 551/207/80 553/209/80
f 553/204/80 555/207/80 557/209/80
f 505/207/82 508/208/82 507/204/82
f 441/207/80 431/208/80 437/204/80
f 527/204/80 529/207/80 533/209/80
f 529/204/80 531/207/80 533/209/80
f 533/204/80 535/207/80 537/209/80
f 537/204/80 539/207/80 541/209/80
f 497/207/83 500/208/83 499/204/83
f 338/148/58 340/153/58 339/149/58
f 340/151/59 344/153/59 343/149/59
f 344/153/60 342/148/60 341/150/60
f 342/148/61 338/148/61 337/150/61
f 343/154/62 341/210/62 337/155/62
f 372/157/90 370/160/90 369/158/90
f 367/157/91 368/159/91 360/158/91
f 361/161/92 362/167/92 364/162/92
f 356/149/66 355/166/66 358/164/66
f 354/165/67 353/164/67 352/166/67
f 374/161/93 366/163/93 365/162/93
f 374/161/69 373/167/69 368/159/69
f 372/157/70 371/159/70 362/167/70
f 357/169/72 354/211/72 351/170/72
f 359/171/72 370/212/72 372/172/72
f 371/159/71 348/173/71 347/174/71
f 374/161/74 361/177/74 363/175/74
f 367/157/75 372/172/75 361/177/75
f 350/173/73 368/159/73 373/167/73
f 376/178/73 378/181/73 377/179/73
f 382/181/71 380/178/71 379/180/71
f 379/180/76 418/200/76 417/182/76
f 384/183/73 386/186/73 392/184/73
f 390/186/71 388/183/71 394/185/71
f 389/187/62 387/188/62 383/188/62
f 390/186/77 421/201/77 422/189/77
f 393/184/77 394/185/77 387/188/77
f 392/184/72 393/184/72 389/187/72
f 383/188/78 391/185/78 392/184/78
f 396/190/79 398/193/79 404/191/79
f 398/193/74 402/193/74 405/191/74
f 405/191/76 402/193/76 400/190/76
f 400/190/80 396/190/80 403/192/80
f 405/191/71 406/192/71 399/194/71
f 403/192/73 404/191/73 397/195/73
f 409/196/62 410/197/62 408/197/62
f 397/195/79 407/196/79 408/197/79
f 399/194/76 410/197/76 409/196/76
f 412/198/81 411/199/81 414/199/81
f 382/181/77 413/198/77 414/199/77
f 376/178/78 411/199/78 412/198/78
f 417/182/62 418/200/62 416/200/62
f 377/179/79 415/182/79 416/200/79
f 420/201/81 419/189/81 422/189/81
f 384/183/78 419/189/78 420/201/78
f 424/190/73 426/203/73 425/202/73
f 430/203/71 428/190/71 427/188/71
f 521/204/82 522/208/82 524/205/82
f 529/207/83 530/209/83 532/208/83
f 443/207/82 441/209/82 442/208/82
f 535/207/84 533/209/84 534/208/84
f 449/204/85 447/207/85 448/209/85
f 459/207/82 457/209/82 458/208/82
f 462/204/86 461/207/86 459/209/86
f 431/207/85 432/209/85 434/208/85
f 529/207/85 527/209/85 528/208/85
f 433/207/83 434/209/83 436/208/83
f 451/204/83 449/207/83 450/209/83
f 541/207/87 542/209/87 528/208/87
f 537/204/88 535/207/88 536/209/88
f 441/204/88 439/207/88 440/209/88
f 532/207/75 542/209/75 540/208/75
f 542/204/86 541/207/86 539/209/86
f 445/207/87 446/209/87 432/208/87
f 463/204/87 477/208/87 478/205/87
f 479/207/85 480/209/85 482/208/85
f 475/204/86 476/208/86 478/205/86
f 471/204/88 472/208/88 474/205/88
f 523/204/86 524/208/86 526/205/86
f 469/206/89 467/204/89 468/208/89
f 465/204/83 466/208/83 468/205/83
f 525/204/87 526/208/87 512/205/87
f 493/207/87 494/209/87 480/208/87
f 555/207/86 556/209/86 558/208/86
f 481/207/83 482/209/83 484/208/83
f 483/207/89 484/209/89 486/208/89
f 557/207/87 558/209/87 544/208/87
f 487/207/88 488/209/88 490/208/88
f 489/207/82 490/209/82 492/208/82
f 452/207/75 462/209/75 460/208/75
f 491/207/86 492/209/86 494/208/86
f 489/207/80 493/209/80 481/208/80
f 545/207/83 546/209/83 548/208/83
f 495/207/85 496/209/85 498/208/85
f 499/207/89 500/209/89 502/208/89
f 501/207/84 502/209/84 504/208/84
f 503/207/88 504/209/88 506/208/88
f 469/204/84 470/208/84 472/205/84
f 553/207/80 557/209/80 545/208/80
f 507/207/86 508/209/86 510/208/86
f 519/204/88 520/208/88 522/205/88
f 451/207/89 452/209/89 454/208/89
f 463/204/85 464/208/85 466/205/85
f 537/207/80 541/209/80 527/208/80
f 517/204/84 518/208/84 520/205/84
f 515/204/89 516/208/89 518/205/89
f 513/204/83 514/208/83 516/205/83
f 511/204/85 512/208/85 514/205/85
f 455/204/84 453/207/84 454/209/84
f 539/204/82 537/207/82 538/209/82
f 437/204/89 435/207/89 436/209/89
f 448/204/87 447/207/87 461/209/87
f 437/207/84 438/209/84 440/208/84
f 445/207/86 443/209/86 444/208/86
f 548/207/75 558/209/75 556/208/75
f 531/207/89 532/209/89 534/208/89
f 458/204/88 457/207/88 455/209/88
f 475/204/82 473/208/82 474/205/82
f 547/207/89 548/209/89 550/208/89
f 549/207/84 550/209/84 552/208/84
f 551/207/88 552/209/88 554/208/88
f 553/207/82 554/209/82 556/208/82
f 509/207/87 510/209/87 496/208/87
f 500/207/75 510/209/75 508/208/75
f 543/207/85 544/209/85 546/208/85
f 485/207/84 486/209/84 488/208/84
f 505/207/82 506/209/82 508/208/82
f 441/207/80 445/209/80 431/208/80
f 497/207/83 498/209/83 500/208/83
