# Blender 4.5.3 LTS
# www.blender.org
o end_nX
v -0.437500 -0.062500 0.375000
v -0.437500 0.000000 0.375000
v -0.437500 -0.062500 -0.375000
v -0.437500 0.000000 -0.375000
v -0.375000 -0.062500 0.375000
v -0.375000 0.000000 0.375000
v -0.375000 -0.062500 -0.375000
v -0.375000 0.000000 -0.375000
vn -1.0000 -0.0000 -0.0000
vn -0.0000 -0.0000 -1.0000
vn 1.0000 -0.0000 -0.0000
vn -0.0000 -0.0000 1.0000
vn -0.0000 -1.0000 -0.0000
vn -0.0000 1.0000 -0.0000
vt 0.531250 0.562500
vt 0.500000 0.937500
vt 0.500000 0.562500
vt 0.531250 0.968750
vt 0.500000 1.000000
vt 0.500000 0.968750
vt 0.531250 0.500000
vt 0.500000 0.531250
vt 0.500000 0.500000
vt 0.531250 0.937500
vt 0.531250 1.000000
vt 0.531250 0.531250
s 0
f 2/1/1 3/2/1 1/3/1
f 4/4/2 7/5/2 3/6/2
f 8/1/3 5/2/3 7/3/3
f 6/7/4 1/8/4 5/9/4
f 7/1/5 1/2/5 3/3/5
f 4/1/6 6/2/6 8/3/6
f 2/1/1 4/10/1 3/2/1
f 4/4/2 8/11/2 7/5/2
f 8/1/3 6/10/3 5/2/3
f 6/7/4 2/12/4 1/8/4
f 7/1/5 5/10/5 1/2/5
f 4/1/6 2/10/6 6/2/6
o core
v -0.375000 -0.031240 0.375000
v -0.375000 -0.031240 -0.375000
v 0.375000 -0.031240 0.375000
v 0.375000 -0.031240 -0.375000
v -0.375000 -0.031260 0.375000
v -0.375000 -0.031260 -0.375000
v 0.375000 -0.031260 0.375000
v 0.375000 -0.031260 -0.375000
vn -0.0000 1.0000 -0.0000
vn -0.0000 -1.0000 -0.0000
vt 0.062500 0.562500
vt 0.437500 0.937500
vt 0.062500 0.937500
vt 0.437500 0.562500
s 0
f 9/13/7 12/14/7 10/15/7
f 16/14/8 13/13/8 14/15/8
f 9/13/7 11/16/7 12/14/7
f 16/14/8 15/16/8 13/13/8
o end_pX
v 0.375000 -0.062500 0.375000
v 0.375000 0.000000 0.375000
v 0.375000 -0.062500 -0.375000
v 0.375000 0.000000 -0.375000
v 0.437500 -0.062500 0.375000
v 0.437500 0.000000 0.375000
v 0.437500 -0.062500 -0.375000
v 0.437500 0.000000 -0.375000
vn -1.0000 -0.0000 -0.0000
vn -0.0000 -0.0000 -1.0000
vn 1.0000 -0.0000 -0.0000
vn -0.0000 -0.0000 1.0000
vn -0.0000 -1.0000 -0.0000
vn -0.0000 1.0000 -0.0000
vt 0.531250 0.562500
vt 0.500000 0.937500
vt 0.500000 0.562500
vt 0.531250 0.968750
vt 0.500000 1.000000
vt 0.500000 0.968750
vt 0.531250 0.500000
vt 0.500000 0.531250
vt 0.500000 0.500000
vt 0.531250 0.937500
vt 0.531250 1.000000
vt 0.531250 0.531250
s 0
f 18/17/9 19/18/9 17/19/9
f 20/20/10 23/21/10 19/22/10
f 24/17/11 21/18/11 23/19/11
f 22/23/12 17/24/12 21/25/12
f 23/17/13 17/18/13 19/19/13
f 20/17/14 22/18/14 24/19/14
f 18/17/9 20/26/9 19/18/9
f 20/20/10 24/27/10 23/21/10
f 24/17/11 22/26/11 21/18/11
f 22/23/12 18/28/12 17/24/12
f 23/17/13 21/26/13 17/18/13
f 20/17/14 18/26/14 22/18/14
o end_nZ
v -0.375000 -0.062500 -0.437500
v -0.375000 0.000000 -0.437500
v 0.375000 -0.062500 -0.437500
v 0.375000 0.000000 -0.437500
v -0.375000 -0.062500 -0.375000
v -0.375000 0.000000 -0.375000
v 0.375000 -0.062500 -0.375000
v 0.375000 0.000000 -0.375000
vn -0.0000 -0.0000 -1.0000
vn 1.0000 -0.0000 -0.0000
vn -0.0000 -0.0000 1.0000
vn -1.0000 -0.0000 -0.0000
vn -0.0000 -1.0000 -0.0000
vn -0.0000 1.0000 -0.0000
vt 0.531250 0.562500
vt 0.500000 0.937500
vt 0.500000 0.562500
vt 0.531250 0.968750
vt 0.500000 1.000000
vt 0.500000 0.968750
vt 0.531250 0.500000
vt 0.500000 0.531250
vt 0.500000 0.500000
vt 0.531250 0.937500
vt 0.531250 1.000000
vt 0.531250 0.531250
s 0
f 26/29/15 27/30/15 25/31/15
f 28/32/16 31/33/16 27/34/16
f 32/29/17 29/30/17 31/31/17
f 30/35/18 25/36/18 29/37/18
f 31/29/19 25/30/19 27/31/19
f 28/29/20 30/30/20 32/31/20
f 26/29/15 28/38/15 27/30/15
f 28/32/16 32/39/16 31/33/16
f 32/29/17 30/38/17 29/30/17
f 30/35/18 26/40/18 25/36/18
f 31/29/19 29/38/19 25/30/19
f 28/29/20 26/38/20 30/30/20
o end_pZ
v -0.375000 -0.062500 0.375000
v -0.375000 0.000000 0.375000
v 0.375000 -0.062500 0.375000
v 0.375000 0.000000 0.375000
v -0.375000 -0.062500 0.437500
v -0.375000 0.000000 0.437500
v 0.375000 -0.062500 0.437500
v 0.375000 0.000000 0.437500
vn -0.0000 -0.0000 -1.0000
vn 1.0000 -0.0000 -0.0000
vn -0.0000 -0.0000 1.0000
vn -1.0000 -0.0000 -0.0000
vn -0.0000 -1.0000 -0.0000
vn -0.0000 1.0000 -0.0000
vt 0.531250 0.562500
vt 0.500000 0.937500
vt 0.500000 0.562500
vt 0.531250 0.968750
vt 0.500000 1.000000
vt 0.500000 0.968750
vt 0.531250 0.500000
vt 0.500000 0.531250
vt 0.500000 0.500000
vt 0.531250 0.937500
vt 0.531250 1.000000
vt 0.531250 0.531250
s 0
f 34/41/21 35/42/21 33/43/21
f 36/44/22 39/45/22 35/46/22
f 40/41/23 37/42/23 39/43/23
f 38/47/24 33/48/24 37/49/24
f 39/41/25 33/42/25 35/43/25
f 36/41/26 38/42/26 40/43/26
f 34/41/21 36/50/21 35/42/21
f 36/44/22 40/51/22 39/45/22
f 40/41/23 38/50/23 37/42/23
f 38/47/24 34/52/24 33/48/24
f 39/41/25 37/50/25 33/42/25
f 36/41/26 34/50/26 38/42/26
o end_pXnZ
v 0.375000 -0.062500 -0.375000
v 0.375000 0.000000 -0.375000
v 0.375000 -0.062500 -0.437500
v 0.375000 0.000000 -0.437500
v 0.437500 -0.062500 -0.375000
v 0.437500 0.000000 -0.375000
v 0.437500 -0.062500 -0.437500
v 0.437500 0.000000 -0.437500
vn -1.0000 -0.0000 -0.0000
vn -0.0000 -0.0000 -1.0000
vn 1.0000 -0.0000 -0.0000
vn -0.0000 -0.0000 1.0000
vn -0.0000 -1.0000 -0.0000
vn -0.0000 1.0000 -0.0000
vt 0.531250 0.937500
vt 0.500000 0.968750
vt 0.500000 0.937500
vt 0.531250 0.968750
vt 0.500000 1.000000
vt 0.531250 0.500000
vt 0.500000 0.531250
vt 0.500000 0.500000
vt 0.531250 1.000000
vt 0.531250 0.531250
s 0
f 42/53/27 43/54/27 41/55/27
f 44/56/28 47/57/28 43/54/28
f 48/53/29 45/54/29 47/55/29
f 46/58/30 41/59/30 45/60/30
f 47/53/31 41/54/31 43/55/31
f 44/53/32 46/54/32 48/55/32
f 42/53/27 44/56/27 43/54/27
f 44/56/28 48/61/28 47/57/28
f 48/53/29 46/56/29 45/54/29
f 46/58/30 42/62/30 41/59/30
f 47/53/31 45/56/31 41/54/31
f 44/53/32 42/56/32 46/54/32
o end_pXpZ
v 0.375000 -0.062500 0.437500
v 0.375000 0.000000 0.437500
v 0.375000 -0.062500 0.375000
v 0.375000 0.000000 0.375000
v 0.437500 -0.062500 0.437500
v 0.437500 0.000000 0.437500
v 0.437500 -0.062500 0.375000
v 0.437500 0.000000 0.375000
vn -1.0000 -0.0000 -0.0000
vn -0.0000 -0.0000 -1.0000
vn 1.0000 -0.0000 -0.0000
vn -0.0000 -0.0000 1.0000
vn -0.0000 -1.0000 -0.0000
vn -0.0000 1.0000 -0.0000
vt 0.531250 0.531250
vt 0.500000 0.562500
vt 0.500000 0.531250
vt 0.531250 0.968750
vt 0.500000 1.000000
vt 0.500000 0.968750
vt 0.531250 0.500000
vt 0.500000 0.500000
vt 0.531250 0.562500
vt 0.531250 1.000000
s 0
f 50/63/33 51/64/33 49/65/33
f 52/66/34 55/67/34 51/68/34
f 56/63/35 53/64/35 55/65/35
f 54/69/36 49/65/36 53/70/36
f 55/63/37 49/64/37 51/65/37
f 52/63/38 54/64/38 56/65/38
f 50/63/33 52/71/33 51/64/33
f 52/66/34 56/72/34 55/67/34
f 56/63/35 54/71/35 53/64/35
f 54/69/36 50/63/36 49/65/36
f 55/63/37 53/71/37 49/64/37
f 52/63/38 50/71/38 54/64/38
o end_nXnZ
v -0.437500 -0.062500 -0.375000
v -0.437500 0.000000 -0.375000
v -0.437500 -0.062500 -0.437500
v -0.437500 0.000000 -0.437500
v -0.375000 -0.062500 -0.375000
v -0.375000 0.000000 -0.375000
v -0.375000 -0.062500 -0.437500
v -0.375000 0.000000 -0.437500
vn -1.0000 -0.0000 -0.0000
vn -0.0000 -0.0000 -1.0000
vn 1.0000 -0.0000 -0.0000
vn -0.0000 -0.0000 1.0000
vn -0.0000 -1.0000 -0.0000
vn -0.0000 1.0000 -0.0000
vt 0.531250 0.937500
vt 0.500000 0.968750
vt 0.500000 0.937500
vt 0.531250 0.968750
vt 0.500000 1.000000
vt 0.531250 0.500000
vt 0.500000 0.531250
vt 0.500000 0.500000
vt 0.531250 1.000000
vt 0.531250 0.531250
s 0
f 58/73/39 59/74/39 57/75/39
f 60/76/40 63/77/40 59/74/40
f 64/73/41 61/74/41 63/75/41
f 62/78/42 57/79/42 61/80/42
f 63/73/43 57/74/43 59/75/43
f 60/73/44 62/74/44 64/75/44
f 58/73/39 60/76/39 59/74/39
f 60/76/40 64/81/40 63/77/40
f 64/73/41 62/76/41 61/74/41
f 62/78/42 58/82/42 57/79/42
f 63/73/43 61/76/43 57/74/43
f 60/73/44 58/76/44 62/74/44
o end_nXpZ
v -0.437500 -0.062500 0.437500
v -0.437500 0.000000 0.437500
v -0.437500 -0.062500 0.375000
v -0.437500 0.000000 0.375000
v -0.375000 -0.062500 0.437500
v -0.375000 0.000000 0.437500
v -0.375000 -0.062500 0.375000
v -0.375000 0.000000 0.375000
vn -1.0000 -0.0000 -0.0000
vn -0.0000 -0.0000 -1.0000
vn 1.0000 -0.0000 -0.0000
vn -0.0000 -0.0000 1.0000
vn -0.0000 -1.0000 -0.0000
vn -0.0000 1.0000 -0.0000
vt 0.531250 0.531250
vt 0.500000 0.562500
vt 0.500000 0.531250
vt 0.531250 0.968750
vt 0.500000 1.000000
vt 0.500000 0.968750
vt 0.531250 0.500000
vt 0.500000 0.500000
vt 0.531250 0.562500
vt 0.531250 1.000000
s 0
f 66/83/45 67/84/45 65/85/45
f 68/86/46 71/87/46 67/88/46
f 72/83/47 69/84/47 71/85/47
f 70/89/48 65/85/48 69/90/48
f 71/83/49 65/84/49 67/85/49
f 68/83/50 70/84/50 72/85/50
f 66/83/45 68/91/45 67/84/45
f 68/86/46 72/92/46 71/87/46
f 72/83/47 70/91/47 69/84/47
f 70/89/48 66/83/48 65/85/48
f 71/83/49 69/91/49 65/84/49
f 68/83/50 66/91/50 70/84/50
o connect_nX
v -0.500000 -0.031240 0.375000
v -0.500000 -0.031240 -0.375000
v -0.375000 -0.031240 0.375000
v -0.375000 -0.031240 -0.375000
v -0.500000 -0.031260 0.375000
v -0.500000 -0.031260 -0.375000
v -0.375000 -0.031260 0.375000
v -0.375000 -0.031260 -0.375000
vn -0.0000 1.0000 -0.0000
vn -0.0000 -1.0000 -0.0000
vt 0.000000 0.562500
vt 0.062500 0.937500
vt 0.000000 0.937500
vt 0.062500 0.562500
s 0
f 73/93/51 76/94/51 74/95/51
f 80/94/52 77/93/52 78/95/52
f 73/93/51 75/96/51 76/94/51
f 80/94/52 79/96/52 77/93/52
o connect_pX
v 0.375000 -0.031240 0.375000
v 0.375000 -0.031240 -0.375000
v 0.500000 -0.031240 0.375000
v 0.500000 -0.031240 -0.375000
v 0.375000 -0.031260 0.375000
v 0.375000 -0.031260 -0.375000
v 0.500000 -0.031260 0.375000
v 0.500000 -0.031260 -0.375000
vn -0.0000 1.0000 -0.0000
vn -0.0000 -1.0000 -0.0000
vt 0.437500 0.562500
vt 0.500000 0.937500
vt 0.437500 0.937500
vt 0.500000 0.562500
s 0
f 81/97/53 84/98/53 82/99/53
f 88/98/54 85/97/54 86/99/54
f 81/97/53 83/100/53 84/98/53
f 88/98/54 87/100/54 85/97/54
o connect_pZ
v -0.375000 -0.031240 0.500000
v -0.375000 -0.031240 0.375000
v 0.375000 -0.031240 0.500000
v 0.375000 -0.031240 0.375000
v -0.375000 -0.031260 0.500000
v -0.375000 -0.031260 0.375000
v 0.375000 -0.031260 0.500000
v 0.375000 -0.031260 0.375000
vn -0.0000 1.0000 -0.0000
vn -0.0000 -1.0000 -0.0000
vt 0.062500 0.500000
vt 0.437500 0.562500
vt 0.062500 0.562500
vt 0.437500 0.500000
s 0
f 89/101/55 92/102/55 90/103/55
f 96/102/56 93/101/56 94/103/56
f 89/101/55 91/104/55 92/102/55
f 96/102/56 95/104/56 93/101/56
o connect_nZ
v -0.375000 -0.031240 -0.375000
v -0.375000 -0.031240 -0.500000
v 0.375000 -0.031240 -0.375000
v 0.375000 -0.031240 -0.500000
v -0.375000 -0.031260 -0.375000
v -0.375000 -0.031260 -0.500000
v 0.375000 -0.031260 -0.375000
v 0.375000 -0.031260 -0.500000
vn -0.0000 1.0000 -0.0000
vn -0.0000 -1.0000 -0.0000
vt 0.062500 0.937500
vt 0.437500 1.000000
vt 0.062500 1.000000
vt 0.437500 0.937500
s 0
f 97/105/57 100/106/57 98/107/57
f 104/106/58 101/105/58 102/107/58
f 97/105/57 99/108/57 100/106/57
f 104/106/58 103/108/58 101/105/58
o connect_pXpZ
v 0.375000 -0.031240 0.500000
v 0.375000 -0.031240 0.375000
v 0.500000 -0.031240 0.500000
v 0.500000 -0.031240 0.375000
v 0.375000 -0.031260 0.500000
v 0.375000 -0.031260 0.375000
v 0.500000 -0.031260 0.500000
v 0.500000 -0.031260 0.375000
vn -0.0000 1.0000 -0.0000
vn -0.0000 -1.0000 -0.0000
vt 0.437500 0.500000
vt 0.500000 0.562500
vt 0.437500 0.562500
vt 0.500000 0.500000
s 0
f 105/109/59 108/110/59 106/111/59
f 112/110/60 109/109/60 110/111/60
f 105/109/59 107/112/59 108/110/59
f 112/110/60 111/112/60 109/109/60
o connect_pXnZ
v 0.375000 -0.031240 -0.375000
v 0.375000 -0.031240 -0.500000
v 0.500000 -0.031240 -0.375000
v 0.500000 -0.031240 -0.500000
v 0.375000 -0.031260 -0.375000
v 0.375000 -0.031260 -0.500000
v 0.500000 -0.031260 -0.375000
v 0.500000 -0.031260 -0.500000
vn -0.0000 1.0000 -0.0000
vn -0.0000 -1.0000 -0.0000
vt 0.437500 0.937500
vt 0.500000 1.000000
vt 0.437500 1.000000
vt 0.500000 0.937500
s 0
f 113/113/61 116/114/61 114/115/61
f 120/114/62 117/113/62 118/115/62
f 113/113/61 115/116/61 116/114/61
f 120/114/62 119/116/62 117/113/62
o connect_nXpZ
v -0.500000 -0.031240 0.500000
v -0.500000 -0.031240 0.375000
v -0.375000 -0.031240 0.500000
v -0.375000 -0.031240 0.375000
v -0.500000 -0.031260 0.500000
v -0.500000 -0.031260 0.375000
v -0.375000 -0.031260 0.500000
v -0.375000 -0.031260 0.375000
vn -0.0000 1.0000 -0.0000
vn -0.0000 -1.0000 -0.0000
vt 0.000000 0.500000
vt 0.062500 0.562500
vt 0.000000 0.562500
vt 0.062500 0.500000
s 0
f 121/117/63 124/118/63 122/119/63
f 128/118/64 125/117/64 126/119/64
f 121/117/63 123/120/63 124/118/63
f 128/118/64 127/120/64 125/117/64
o connect_nXnZ
v -0.500000 -0.031240 -0.375000
v -0.500000 -0.031240 -0.500000
v -0.375000 -0.031240 -0.375000
v -0.375000 -0.031240 -0.500000
v -0.500000 -0.031260 -0.375000
v -0.500000 -0.031260 -0.500000
v -0.375000 -0.031260 -0.375000
v -0.375000 -0.031260 -0.500000
vn -0.0000 1.0000 -0.0000
vn -0.0000 -1.0000 -0.0000
vt 0.000000 0.937500
vt 0.062500 1.000000
vt 0.000000 1.000000
vt 0.062500 0.937500
s 0
f 129/121/65 132/122/65 130/123/65
f 136/122/66 133/121/66 134/123/66
f 129/121/65 131/124/65 132/122/65
f 136/122/66 135/124/66 133/121/66
o turn_pXpZ
v 0.375000 -0.062500 0.500000
v 0.375000 0.000000 0.500000
v 0.375000 -0.062500 0.437500
v 0.375000 0.000000 0.437500
v 0.437500 -0.062500 0.500000
v 0.437500 0.000000 0.500000
v 0.437500 -0.062500 0.437500
v 0.437500 0.000000 0.437500
v 0.375000 -0.062500 0.375000
v 0.375000 0.000000 0.375000
v 0.500000 -0.062500 0.375000
v 0.500000 0.000000 0.375000
v 0.375000 -0.062500 0.437500
v 0.375000 0.000000 0.437500
v 0.500000 -0.062500 0.437500
v 0.500000 0.000000 0.437500
vn -1.0000 -0.0000 -0.0000
vn -0.0000 -0.0000 -1.0000
vn 1.0000 -0.0000 -0.0000
vn -0.0000 -0.0000 1.0000
vn -0.0000 -1.0000 -0.0000
vn -0.0000 1.0000 -0.0000
vt 0.531250 0.500000
vt 0.500000 0.531250
vt 0.500000 0.500000
vt 0.531250 0.968750
vt 0.500000 1.000000
vt 0.500000 0.968750
vt 0.531250 0.937500
vt 0.500000 0.937500
vt 0.531250 1.000000
vt 0.531250 0.531250
s 0
f 138/125/67 139/126/67 137/127/67
f 140/128/68 143/129/68 139/130/68
f 144/125/69 141/126/69 143/127/69
f 142/125/70 137/126/70 141/127/70
f 143/125/71 137/126/71 139/127/71
f 140/125/72 142/126/72 144/127/72
f 146/131/68 147/129/68 145/132/68
f 148/128/69 151/129/69 147/130/69
f 152/131/70 149/129/70 151/132/70
f 150/125/67 145/126/67 149/127/67
f 151/131/71 145/129/71 147/132/71
f 152/132/72 146/133/72 150/129/72
f 138/125/67 140/134/67 139/126/67
f 140/128/68 144/133/68 143/129/68
f 144/125/69 142/134/69 141/126/69
f 142/125/70 138/134/70 137/126/70
f 143/125/71 141/134/71 137/126/71
f 140/125/72 138/134/72 142/126/72
f 146/131/68 148/133/68 147/129/68
f 148/128/69 152/133/69 151/129/69
f 152/131/70 150/133/70 149/129/70
f 150/125/67 146/134/67 145/126/67
f 151/131/71 149/133/71 145/129/71
f 152/132/72 148/131/72 146/133/72
o turn_nXpZ
v -0.437500 -0.062500 0.500000
v -0.437500 0.000000 0.500000
v -0.437500 -0.062500 0.437500
v -0.437500 0.000000 0.437500
v -0.375000 -0.062500 0.500000
v -0.375000 0.000000 0.500000
v -0.375000 -0.062500 0.437500
v -0.375000 0.000000 0.437500
v -0.500000 -0.062500 0.375000
v -0.500000 0.000000 0.375000
v -0.375000 -0.062500 0.375000
v -0.375000 0.000000 0.375000
v -0.500000 -0.062500 0.437500
v -0.500000 0.000000 0.437500
v -0.375000 -0.062500 0.437500
v -0.375000 0.000000 0.437500
vn -1.0000 -0.0000 -0.0000
vn -0.0000 -0.0000 -1.0000
vn 1.0000 -0.0000 -0.0000
vn -0.0000 -0.0000 1.0000
vn -0.0000 -1.0000 -0.0000
vn -0.0000 1.0000 -0.0000
vt 0.531250 0.500000
vt 0.500000 0.531250
vt 0.500000 0.500000
vt 0.531250 0.968750
vt 0.500000 1.000000
vt 0.500000 0.968750
vt 0.500000 0.562500
vt 0.531250 0.562500
vt 0.531250 0.531250
vt 0.531250 1.000000
s 0
f 154/135/73 155/136/73 153/137/73
f 156/138/74 159/139/74 155/140/74
f 160/135/75 157/136/75 159/137/75
f 158/135/76 153/136/76 157/137/76
f 159/135/77 153/136/77 155/137/77
f 156/135/78 158/136/78 160/137/78
f 162/135/74 163/141/74 161/137/74
f 164/138/75 167/139/75 163/140/75
f 168/135/76 165/141/76 167/137/76
f 166/135/73 161/136/73 165/137/73
f 167/135/77 161/141/77 163/137/77
f 168/137/78 162/142/78 166/141/78
f 154/135/73 156/143/73 155/136/73
f 156/138/74 160/144/74 159/139/74
f 160/135/75 158/143/75 157/136/75
f 158/135/76 154/143/76 153/136/76
f 159/135/77 157/143/77 153/136/77
f 156/135/78 154/143/78 158/136/78
f 162/135/74 164/142/74 163/141/74
f 164/138/75 168/144/75 167/139/75
f 168/135/76 166/142/76 165/141/76
f 166/135/73 162/143/73 161/136/73
f 167/135/77 165/142/77 161/141/77
f 168/137/78 164/135/78 162/142/78
o turn_pXnZ
v 0.375000 -0.062500 -0.437500
v 0.375000 0.000000 -0.437500
v 0.375000 -0.062500 -0.500000
v 0.375000 0.000000 -0.500000
v 0.437500 -0.062500 -0.437500
v 0.437500 0.000000 -0.437500
v 0.437500 -0.062500 -0.500000
v 0.437500 0.000000 -0.500000
v 0.375000 -0.062500 -0.437500
v 0.375000 0.000000 -0.437500
v 0.500000 -0.062500 -0.437500
v 0.500000 0.000000 -0.437500
v 0.375000 -0.062500 -0.375000
v 0.375000 0.000000 -0.375000
v 0.500000 -0.062500 -0.375000
v 0.500000 0.000000 -0.375000
vn -1.0000 -0.0000 -0.0000
vn -0.0000 -0.0000 -1.0000
vn 1.0000 -0.0000 -0.0000
vn -0.0000 -0.0000 1.0000
vn -0.0000 -1.0000 -0.0000
vn -0.0000 1.0000 -0.0000
vt 0.531250 0.968750
vt 0.500000 1.000000
vt 0.500000 0.968750
vt 0.531250 0.500000
vt 0.500000 0.531250
vt 0.500000 0.500000
vt 0.531250 0.937500
vt 0.500000 0.937500
vt 0.531250 1.000000
vt 0.531250 0.531250
s 0
f 170/145/79 171/146/79 169/147/79
f 172/145/80 175/146/80 171/147/80
f 176/145/81 173/146/81 175/147/81
f 174/148/82 169/149/82 173/150/82
f 175/145/83 169/146/83 171/147/83
f 172/145/84 174/146/84 176/147/84
f 178/151/80 179/146/80 177/152/80
f 180/145/81 183/146/81 179/147/81
f 184/151/82 181/146/82 183/152/82
f 182/148/79 177/149/79 181/150/79
f 183/151/83 177/146/83 179/152/83
f 184/152/84 178/153/84 182/146/84
f 170/145/79 172/153/79 171/146/79
f 172/145/80 176/153/80 175/146/80
f 176/145/81 174/153/81 173/146/81
f 174/148/82 170/154/82 169/149/82
f 175/145/83 173/153/83 169/146/83
f 172/145/84 170/153/84 174/146/84
f 178/151/80 180/153/80 179/146/80
f 180/145/81 184/153/81 183/146/81
f 184/151/82 182/153/82 181/146/82
f 182/148/79 178/154/79 177/149/79
f 183/151/83 181/153/83 177/146/83
f 184/152/84 180/151/84 178/153/84
o turn_nXnZ
v -0.437500 -0.062500 -0.437500
v -0.437500 0.000000 -0.437500
v -0.437500 -0.062500 -0.500000
v -0.437500 0.000000 -0.500000
v -0.375000 -0.062500 -0.437500
v -0.375000 0.000000 -0.437500
v -0.375000 -0.062500 -0.500000
v -0.375000 0.000000 -0.500000
v -0.500000 -0.062500 -0.437500
v -0.500000 0.000000 -0.437500
v -0.375000 -0.062500 -0.437500
v -0.375000 0.000000 -0.437500
v -0.500000 -0.062500 -0.375000
v -0.500000 0.000000 -0.375000
v -0.375000 -0.062500 -0.375000
v -0.375000 0.000000 -0.375000
vn -1.0000 -0.0000 -0.0000
vn -0.0000 -0.0000 -1.0000
vn 1.0000 -0.0000 -0.0000
vn -0.0000 -0.0000 1.0000
vn -0.0000 -1.0000 -0.0000
vn -0.0000 1.0000 -0.0000
vt 0.531250 0.968750
vt 0.500000 1.000000
vt 0.500000 0.968750
vt 0.531250 0.500000
vt 0.500000 0.531250
vt 0.500000 0.500000
vt 0.500000 0.562500
vt 0.531250 1.000000
vt 0.531250 0.531250
vt 0.531250 0.562500
s 0
f 186/155/85 187/156/85 185/157/85
f 188/155/86 191/156/86 187/157/86
f 192/155/87 189/156/87 191/157/87
f 190/158/88 185/159/88 189/160/88
f 191/155/89 185/156/89 187/157/89
f 188/155/90 190/156/90 192/157/90
f 194/158/86 195/161/86 193/160/86
f 196/155/87 199/156/87 195/157/87
f 200/158/88 197/161/88 199/160/88
f 198/158/85 193/159/85 197/160/85
f 199/158/89 193/161/89 195/160/89
f 196/158/90 198/161/90 200/160/90
f 186/155/85 188/162/85 187/156/85
f 188/155/86 192/162/86 191/156/86
f 192/155/87 190/162/87 189/156/87
f 190/158/88 186/163/88 185/159/88
f 191/155/89 189/162/89 185/156/89
f 188/155/90 186/162/90 190/156/90
f 194/158/86 196/164/86 195/161/86
f 196/155/87 200/162/87 199/156/87
f 200/158/88 198/164/88 197/161/88
f 198/158/85 194/163/85 193/159/85
f 199/158/89 197/164/89 193/161/89
f 196/158/90 194/164/90 198/161/90
o straight_pXnZ
v 0.375000 -0.062500 -0.375000
v 0.375000 0.000000 -0.375000
v 0.375000 -0.062500 -0.500000
v 0.375000 0.000000 -0.500000
v 0.437500 -0.062500 -0.375000
v 0.437500 0.000000 -0.375000
v 0.437500 -0.062500 -0.500000
v 0.437500 0.000000 -0.500000
vn -1.0000 -0.0000 -0.0000
vn -0.0000 -0.0000 -1.0000
vn 1.0000 -0.0000 -0.0000
vn -0.0000 -0.0000 1.0000
vn -0.0000 -1.0000 -0.0000
vn -0.0000 1.0000 -0.0000
vt 0.531250 0.937500
vt 0.500000 1.000000
vt 0.500000 0.937500
vt 0.531250 0.968750
vt 0.500000 0.968750
vt 0.531250 0.500000
vt 0.500000 0.531250
vt 0.500000 0.500000
vt 0.531250 1.000000
vt 0.531250 0.531250
s 0
f 202/165/91 203/166/91 201/167/91
f 204/168/92 207/166/92 203/169/92
f 208/165/93 205/166/93 207/167/93
f 206/170/94 201/171/94 205/172/94
f 207/165/95 201/166/95 203/167/95
f 204/165/96 206/166/96 208/167/96
f 202/165/91 204/173/91 203/166/91
f 204/168/92 208/173/92 207/166/92
f 208/165/93 206/173/93 205/166/93
f 206/170/94 202/174/94 201/171/94
f 207/165/95 205/173/95 201/166/95
f 204/165/96 202/173/96 206/166/96
o straight_pXpZ
v 0.375000 -0.062500 0.500000
v 0.375000 0.000000 0.500000
v 0.375000 -0.062500 0.375000
v 0.375000 0.000000 0.375000
v 0.437500 -0.062500 0.500000
v 0.437500 0.000000 0.500000
v 0.437500 -0.062500 0.375000
v 0.437500 0.000000 0.375000
vn -1.0000 -0.0000 -0.0000
vn -0.0000 -0.0000 -1.0000
vn 1.0000 -0.0000 -0.0000
vn -0.0000 -0.0000 1.0000
vn -0.0000 -1.0000 -0.0000
vn -0.0000 1.0000 -0.0000
vt 0.531250 0.500000
vt 0.500000 0.562500
vt 0.500000 0.500000
vt 0.531250 0.968750
vt 0.500000 1.000000
vt 0.500000 0.968750
vt 0.500000 0.531250
vt 0.531250 0.562500
vt 0.531250 1.000000
vt 0.531250 0.531250
s 0
f 210/175/97 211/176/97 209/177/97
f 212/178/98 215/179/98 211/180/98
f 216/175/99 213/176/99 215/177/99
f 214/175/100 209/181/100 213/177/100
f 215/175/101 209/176/101 211/177/101
f 212/175/102 214/176/102 216/177/102
f 210/175/97 212/182/97 211/176/97
f 212/178/98 216/183/98 215/179/98
f 216/175/99 214/182/99 213/176/99
f 214/175/100 210/184/100 209/181/100
f 215/175/101 213/182/101 209/176/101
f 212/175/102 210/182/102 214/176/102
o straight_nXnZ
v -0.437500 -0.062500 -0.375000
v -0.437500 0.000000 -0.375000
v -0.437500 -0.062500 -0.500000
v -0.437500 0.000000 -0.500000
v -0.375000 -0.062500 -0.375000
v -0.375000 0.000000 -0.375000
v -0.375000 -0.062500 -0.500000
v -0.375000 0.000000 -0.500000
vn -1.0000 -0.0000 -0.0000
vn -0.0000 -0.0000 -1.0000
vn 1.0000 -0.0000 -0.0000
vn -0.0000 -0.0000 1.0000
vn -0.0000 -1.0000 -0.0000
vn -0.0000 1.0000 -0.0000
vt 0.531250 0.937500
vt 0.500000 1.000000
vt 0.500000 0.937500
vt 0.531250 0.968750
vt 0.500000 0.968750
vt 0.531250 0.500000
vt 0.500000 0.531250
vt 0.500000 0.500000
vt 0.531250 1.000000
vt 0.531250 0.531250
s 0
f 218/185/103 219/186/103 217/187/103
f 220/188/104 223/186/104 219/189/104
f 224/185/105 221/186/105 223/187/105
f 222/190/106 217/191/106 221/192/106
f 223/185/107 217/186/107 219/187/107
f 220/185/108 222/186/108 224/187/108
f 218/185/103 220/193/103 219/186/103
f 220/188/104 224/193/104 223/186/104
f 224/185/105 222/193/105 221/186/105
f 222/190/106 218/194/106 217/191/106
f 223/185/107 221/193/107 217/186/107
f 220/185/108 218/193/108 222/186/108
o straight_nXpZ
v -0.437500 -0.062500 0.500000
v -0.437500 0.000000 0.500000
v -0.437500 -0.062500 0.375000
v -0.437500 0.000000 0.375000
v -0.375000 -0.062500 0.500000
v -0.375000 0.000000 0.500000
v -0.375000 -0.062500 0.375000
v -0.375000 0.000000 0.375000
vn -1.0000 -0.0000 -0.0000
vn -0.0000 -0.0000 -1.0000
vn 1.0000 -0.0000 -0.0000
vn -0.0000 -0.0000 1.0000
vn -0.0000 -1.0000 -0.0000
vn -0.0000 1.0000 -0.0000
vt 0.531250 0.500000
vt 0.500000 0.562500
vt 0.500000 0.500000
vt 0.531250 0.968750
vt 0.500000 1.000000
vt 0.500000 0.968750
vt 0.500000 0.531250
vt 0.531250 0.562500
vt 0.531250 1.000000
vt 0.531250 0.531250
s 0
f 226/195/109 227/196/109 225/197/109
f 228/198/110 231/199/110 227/200/110
f 232/195/111 229/196/111 231/197/111
f 230/195/112 225/201/112 229/197/112
f 231/195/113 225/196/113 227/197/113
f 228/195/114 230/196/114 232/197/114
f 226/195/109 228/202/109 227/196/109
f 228/198/110 232/203/110 231/199/110
f 232/195/111 230/202/111 229/196/111
f 230/195/112 226/204/112 225/201/112
f 231/195/113 229/202/113 225/196/113
f 228/195/114 226/202/114 230/196/114
o straight_pZpX
v 0.375000 -0.062500 0.375000
v 0.375000 0.000000 0.375000
v 0.500000 -0.062500 0.375000
v 0.500000 0.000000 0.375000
v 0.375000 -0.062500 0.437500
v 0.375000 0.000000 0.437500
v 0.500000 -0.062500 0.437500
v 0.500000 0.000000 0.437500
vn -0.0000 -0.0000 -1.0000
vn 1.0000 -0.0000 -0.0000
vn -0.0000 -0.0000 1.0000
vn -1.0000 -0.0000 -0.0000
vn -0.0000 -1.0000 -0.0000
vn -0.0000 1.0000 -0.0000
vt 0.531250 0.937500
vt 0.500000 1.000000
vt 0.500000 0.937500
vt 0.531250 0.968750
vt 0.500000 0.968750
vt 0.531250 0.500000
vt 0.500000 0.531250
vt 0.500000 0.500000
vt 0.531250 1.000000
vt 0.531250 0.531250
s 0
f 234/205/115 235/206/115 233/207/115
f 236/208/116 239/206/116 235/209/116
f 240/205/117 237/206/117 239/207/117
f 238/210/118 233/211/118 237/212/118
f 239/205/119 233/206/119 235/207/119
f 236/205/120 238/206/120 240/207/120
f 234/205/115 236/213/115 235/206/115
f 236/208/116 240/213/116 239/206/116
f 240/205/117 238/213/117 237/206/117
f 238/210/118 234/214/118 233/211/118
f 239/205/119 237/213/119 233/206/119
f 236/205/120 234/213/120 238/206/120
o straight_pZnX
v -0.500000 -0.062500 0.375000
v -0.500000 0.000000 0.375000
v -0.375000 -0.062500 0.375000
v -0.375000 0.000000 0.375000
v -0.500000 -0.062500 0.437500
v -0.500000 0.000000 0.437500
v -0.375000 -0.062500 0.437500
v -0.375000 0.000000 0.437500
vn -0.0000 -0.0000 -1.0000
vn 1.0000 -0.0000 -0.0000
vn -0.0000 -0.0000 1.0000
vn -1.0000 -0.0000 -0.0000
vn -0.0000 -1.0000 -0.0000
vn -0.0000 1.0000 -0.0000
vt 0.531250 0.500000
vt 0.500000 0.562500
vt 0.500000 0.500000
vt 0.531250 0.968750
vt 0.500000 1.000000
vt 0.500000 0.968750
vt 0.500000 0.531250
vt 0.531250 0.562500
vt 0.531250 1.000000
vt 0.531250 0.531250
s 0
f 242/215/121 243/216/121 241/217/121
f 244/218/122 247/219/122 243/220/122
f 248/215/123 245/216/123 247/217/123
f 246/215/124 241/221/124 245/217/124
f 247/215/125 241/216/125 243/217/125
f 244/215/126 246/216/126 248/217/126
f 242/215/121 244/222/121 243/216/121
f 244/218/122 248/223/122 247/219/122
f 248/215/123 246/222/123 245/216/123
f 246/215/124 242/224/124 241/221/124
f 247/215/125 245/222/125 241/216/125
f 244/215/126 242/222/126 246/216/126
o straight_nZpX
v 0.375000 -0.062500 -0.437500
v 0.375000 0.000000 -0.437500
v 0.500000 -0.062500 -0.437500
v 0.500000 0.000000 -0.437500
v 0.375000 -0.062500 -0.375000
v 0.375000 0.000000 -0.375000
v 0.500000 -0.062500 -0.375000
v 0.500000 0.000000 -0.375000
vn -0.0000 -0.0000 -1.0000
vn 1.0000 -0.0000 -0.0000
vn -0.0000 -0.0000 1.0000
vn -1.0000 -0.0000 -0.0000
vn -0.0000 -1.0000 -0.0000
vn -0.0000 1.0000 -0.0000
vt 0.531250 0.937500
vt 0.500000 1.000000
vt 0.500000 0.937500
vt 0.531250 0.968750
vt 0.500000 0.968750
vt 0.531250 0.500000
vt 0.500000 0.531250
vt 0.500000 0.500000
vt 0.531250 1.000000
vt 0.531250 0.531250
s 0
f 250/225/127 251/226/127 249/227/127
f 252/228/128 255/226/128 251/229/128
f 256/225/129 253/226/129 255/227/129
f 254/230/130 249/231/130 253/232/130
f 255/225/131 249/226/131 251/227/131
f 252/225/132 254/226/132 256/227/132
f 250/225/127 252/233/127 251/226/127
f 252/228/128 256/233/128 255/226/128
f 256/225/129 254/233/129 253/226/129
f 254/230/130 250/234/130 249/231/130
f 255/225/131 253/233/131 249/226/131
f 252/225/132 250/233/132 254/226/132
o straight_nZnX
v -0.500000 -0.062500 -0.437500
v -0.500000 0.000000 -0.437500
v -0.375000 -0.062500 -0.437500
v -0.375000 0.000000 -0.437500
v -0.500000 -0.062500 -0.375000
v -0.500000 0.000000 -0.375000
v -0.375000 -0.062500 -0.375000
v -0.375000 0.000000 -0.375000
vn -0.0000 -0.0000 -1.0000
vn 1.0000 -0.0000 -0.0000
vn -0.0000 -0.0000 1.0000
vn -1.0000 -0.0000 -0.0000
vn -0.0000 -1.0000 -0.0000
vn -0.0000 1.0000 -0.0000
vt 0.531250 0.500000
vt 0.500000 0.562500
vt 0.500000 0.500000
vt 0.531250 0.968750
vt 0.500000 1.000000
vt 0.500000 0.968750
vt 0.500000 0.531250
vt 0.531250 0.562500
vt 0.531250 1.000000
vt 0.531250 0.531250
s 0
f 258/235/133 259/236/133 257/237/133
f 260/238/134 263/239/134 259/240/134
f 264/235/135 261/236/135 263/237/135
f 262/235/136 257/241/136 261/237/136
f 263/235/137 257/236/137 259/237/137
f 260/235/138 262/236/138 264/237/138
f 258/235/133 260/242/133 259/236/133
f 260/238/134 264/243/134 263/239/134
f 264/235/135 262/242/135 261/236/135
f 262/235/136 258/244/136 257/241/136
f 263/235/137 261/242/137 257/236/137
f 260/235/138 258/242/138 262/236/138
