# Blender 4.5.3 LTS
# www.blender.org
o OuterFrame
v -0.500000 0.000000 -1.250000
v -0.500000 0.000000 -1.500000
v -0.500000 3.000000 -1.500000
v 0.500000 0.000000 -1.250000
v 0.500000 2.750000 -1.250000
v 0.500000 0.000000 -1.500000
v -0.500000 2.750000 -1.250000
v 0.500000 2.750000 1.250000
v 0.500000 3.000000 1.500000
v 0.500000 3.000000 -1.500000
v -0.500000 0.000000 1.500000
v -0.500000 3.000000 1.500000
v -0.500000 0.000000 1.250000
v -0.500000 2.750000 1.250000
v 0.500000 0.000000 1.500000
v 0.500000 0.000000 1.250000
v 0.500000 2.687500 -1.187500
v 0.500000 0.000000 -1.187500
v -0.500000 0.000000 -1.187500
v -0.500000 2.687500 1.187500
v -0.500000 0.000000 1.187500
v 0.500000 0.000000 1.187500
v -0.500000 2.687500 -1.187500
v 0.500000 2.687500 1.187500
vn -1.0000 -0.0000 -0.0000
vn -0.0000 -0.0000 -1.0000
vn 1.0000 -0.0000 -0.0000
vn -0.0000 -1.0000 -0.0000
vn -0.0000 1.0000 -0.0000
vn -0.0000 -0.0000 1.0000
vt 0.625000 0.000000
vt 0.375000 0.250000
vt 0.375000 0.000000
vt 0.625000 0.250000
vt 0.375000 0.500000
vt 0.625000 0.750000
vt 0.375000 0.750000
vt 0.125000 0.750000
vt 0.125000 0.500000
vt 0.625000 0.500000
vt 0.875000 0.500000
vt 0.375000 1.000000
vt 0.875000 0.750000
vt 0.625000 1.000000
s 0
f 7/1/1 2/2/1 1/3/1
f 3/4/2 6/5/2 2/2/2
f 6/5/3 5/6/3 4/7/3
f 7/2/1 20/3/1 14/3/1
f 6/5/4 1/8/4 2/9/4
f 12/1/1 7/2/1 14/3/1
f 10/10/3 8/7/3 5/5/3
f 13/9/4 22/5/4 16/5/4
f 3/11/5 9/6/5 10/10/5
f 11/3/1 14/4/1 13/2/1
f 8/7/3 17/5/3 5/5/3
f 8/10/3 15/7/3 16/5/3
f 9/6/6 11/12/6 15/7/6
f 16/5/4 11/8/4 13/9/4
f 17/6/6 19/12/6 18/7/6
f 17/5/4 20/8/4 23/9/4
f 20/4/2 22/5/2 21/2/2
f 16/5/3 24/10/3 8/10/3
f 1/3/1 23/1/1 7/1/1
f 4/7/3 17/6/3 18/7/3
f 13/2/1 20/4/1 21/2/1
f 4/7/4 19/8/4 1/8/4
f 7/1/1 3/4/1 2/2/1
f 3/4/2 10/10/2 6/5/2
f 6/5/3 10/10/3 5/6/3
f 7/2/1 23/2/1 20/3/1
f 6/5/4 4/7/4 1/8/4
f 12/1/1 3/4/1 7/2/1
f 10/10/3 9/6/3 8/7/3
f 13/9/4 21/9/4 22/5/4
f 3/11/5 12/13/5 9/6/5
f 11/3/1 12/1/1 14/4/1
f 8/7/3 24/7/3 17/5/3
f 8/10/3 9/6/3 15/7/3
f 9/6/6 12/14/6 11/12/6
f 16/5/4 15/7/4 11/8/4
f 17/6/6 23/14/6 19/12/6
f 17/5/4 24/7/4 20/8/4
f 20/4/2 24/10/2 22/5/2
f 16/5/3 22/5/3 24/10/3
f 1/3/1 19/3/1 23/1/1
f 4/7/3 5/6/3 17/6/3
f 13/2/1 14/4/1 20/4/1
f 4/7/4 18/7/4 19/8/4
o InnerFrame
v -0.375000 0.000000 1.187500
v -0.375000 2.687500 1.187500
v -0.375000 0.000000 0.937500
v -0.375000 2.687500 0.937500
v 0.375000 0.000000 1.187500
v 0.375000 2.687500 1.187500
v 0.375000 0.000000 0.937500
v 0.375000 2.687500 0.937500
v -0.250000 0.250000 1.187500
v -0.250000 2.437500 1.187500
v -0.250000 2.437500 0.937500
v -0.250000 0.250000 0.937500
v 0.250000 2.437500 0.937500
v 0.250000 0.250000 0.937500
v 0.250000 2.437500 1.187500
v 0.250000 0.250000 1.187500
v -0.250000 0.125000 0.937500
v 0.250000 0.125000 0.937500
v 0.250000 0.125000 1.187500
v -0.250000 0.125000 1.187500
v -0.250000 2.562500 1.187500
v -0.250000 2.562500 0.937500
v 0.250000 2.562500 0.937500
v 0.250000 2.562500 1.187500
v -0.375000 0.000000 1.062500
v -0.375000 2.687500 1.062500
v 0.375000 0.000000 1.062500
v 0.375000 2.687500 1.062500
v 0.250000 0.250000 1.062500
v 0.250000 2.437500 1.062500
v -0.250000 0.250000 1.062500
v -0.250000 2.437500 1.062500
v -0.250000 0.125000 1.062500
v 0.250000 0.125000 1.062500
v 0.250000 2.562500 1.062500
v -0.250000 2.562500 1.062500
v -0.375000 0.000000 -0.937500
v -0.375000 2.687500 -0.937500
v -0.375000 0.000000 -1.187500
v -0.375000 2.687500 -1.187500
v 0.375000 0.000000 -0.937500
v 0.375000 2.687500 -0.937500
v 0.375000 0.000000 -1.187500
v 0.375000 2.687500 -1.187500
v -0.250000 0.250000 -0.937500
v -0.250000 2.437500 -0.937500
v -0.250000 2.437500 -1.187500
v -0.250000 0.250000 -1.187500
v 0.250000 2.437500 -1.187500
v 0.250000 0.250000 -1.187500
v 0.250000 2.437500 -0.937500
v 0.250000 0.250000 -0.937500
v -0.250000 0.125000 -1.187500
v 0.250000 0.125000 -1.187500
v 0.250000 0.125000 -0.937500
v -0.250000 0.125000 -0.937500
v -0.250000 2.562500 -0.937500
v -0.250000 2.562500 -1.187500
v 0.250000 2.562500 -1.187500
v 0.250000 2.562500 -0.937500
v -0.375000 0.000000 -1.062500
v -0.375000 2.687500 -1.062500
v 0.375000 0.000000 -1.062500
v 0.375000 2.687500 -1.062500
v 0.250000 0.250000 -1.062500
v 0.250000 2.437500 -1.062500
v -0.250000 0.250000 -1.062500
v -0.250000 2.437500 -1.062500
v -0.250000 0.125000 -1.062500
v 0.250000 0.125000 -1.062500
v 0.250000 2.562500 -1.062500
v -0.250000 2.562500 -1.062500
vn -0.7071 -0.7071 -0.0000
vn -0.0000 -0.0000 -1.0000
vn 0.7071 -0.7071 -0.0000
vn -0.0000 -0.0000 1.0000
vn -0.0000 -1.0000 -0.0000
vn -0.0000 1.0000 -0.0000
vn 1.0000 -0.0000 -0.0000
vn -1.0000 -0.0000 -0.0000
vn -0.7071 0.7071 -0.0000
vn 0.7071 0.7071 -0.0000
vt 0.625000 0.125000
vt 0.583333 0.250000
vt 0.583333 0.125000
vt 0.625000 0.250000
vt 0.583333 0.500000
vt 0.625000 0.625000
vt 0.583333 0.750000
vt 0.583333 0.625000
vt 0.625000 0.750000
vt 0.583333 1.000000
vt 0.375000 0.625000
vt 0.125000 0.750000
vt 0.125000 0.625000
vt 0.875000 0.625000
vt 0.458333 0.750000
vt 0.416667 1.000000
vt 0.416667 0.750000
vt 0.541667 0.750000
vt 0.458333 1.000000
vt 0.458333 0.625000
vt 0.416667 0.625000
vt 0.458333 0.250000
vt 0.416667 0.500000
vt 0.416667 0.250000
vt 0.541667 0.250000
vt 0.458333 0.500000
vt 0.416667 0.125000
vt 0.541667 0.125000
vt 0.458333 0.125000
vt 0.375000 0.250000
vt 0.375000 0.125000
vt 0.375000 0.500000
vt 0.375000 0.750000
vt 0.375000 1.000000
vt 0.541667 1.000000
vt 0.541667 0.625000
vt 0.541667 0.500000
vt 0.541667 0.000000
vt 0.416667 0.000000
vt 0.375000 0.000000
vt 0.875000 0.500000
vt 0.625000 0.500000
vt 0.125000 0.500000
vt 0.625000 0.000000
vt 0.583333 0.000000
vt 0.458333 0.000000
vt 0.625000 1.000000
vt 0.875000 0.750000
s 0
f 50/15/7 46/16/7 60/17/7
f 28/18/8 47/19/8 46/16/8
f 52/20/9 48/21/9 59/22/9
f 30/23/10 45/24/10 48/21/10
f 51/25/11 25/26/11 49/27/11
f 50/28/12 30/23/12 52/20/12
f 40/29/10 44/30/10 43/31/10
f 39/32/10 33/33/10 40/29/10
f 53/34/13 43/31/13 58/35/13
f 36/36/8 42/37/8 41/38/8
f 35/39/8 38/40/8 36/36/8
f 57/41/14 36/36/14 41/38/14
f 56/42/14 36/36/14 55/43/14
f 57/41/15 27/44/15 49/45/15
f 41/38/8 31/46/8 27/44/8
f 58/35/16 29/47/16 51/25/16
f 43/31/10 25/48/10 29/47/10
f 48/21/10 34/49/10 39/32/10
f 59/22/13 39/32/13 54/50/13
f 46/16/8 37/51/8 35/39/8
f 60/17/14 35/39/14 56/42/14
f 34/52/14 60/17/14 56/42/14
f 47/19/13 54/50/13 37/51/13
f 42/37/16 51/25/16 31/46/16
f 44/53/15 49/45/15 25/54/15
f 44/53/14 55/43/14 57/41/14
f 37/51/13 53/34/13 38/40/13
f 38/40/13 58/35/13 42/37/13
f 28/55/12 52/20/12 32/56/12
f 31/46/11 49/27/11 27/57/11
f 32/56/9 59/22/9 47/19/9
f 26/58/7 60/17/7 45/59/7
f 86/15/7 82/16/7 96/17/7
f 64/18/8 83/19/8 82/16/8
f 88/20/9 84/21/9 95/22/9
f 66/23/10 81/24/10 84/21/10
f 87/25/11 61/26/11 85/27/11
f 86/28/12 66/23/12 88/20/12
f 76/29/10 80/30/10 79/31/10
f 75/32/10 69/33/10 76/29/10
f 89/34/13 79/31/13 94/35/13
f 90/50/13 76/29/13 89/34/13
f 72/36/8 78/37/8 77/38/8
f 71/39/8 74/40/8 72/36/8
f 93/41/14 72/36/14 77/38/14
f 93/41/15 63/44/15 85/45/15
f 77/38/8 67/46/8 63/44/8
f 94/35/16 65/47/16 87/25/16
f 79/31/10 61/48/10 65/47/10
f 84/21/10 70/49/10 75/32/10
f 95/22/13 75/32/13 90/50/13
f 82/16/8 73/51/8 71/39/8
f 96/17/14 71/39/14 92/42/14
f 70/52/14 96/17/14 92/42/14
f 83/19/13 90/50/13 73/51/13
f 78/37/16 87/25/16 67/46/16
f 80/53/15 85/45/15 61/54/15
f 70/52/14 91/43/14 69/60/14
f 80/53/14 91/43/14 93/41/14
f 74/40/13 94/35/13 78/37/13
f 64/55/12 88/20/12 68/56/12
f 67/46/11 85/27/11 63/57/11
f 68/56/9 95/22/9 83/19/9
f 62/58/7 96/17/7 81/59/7
f 50/15/7 28/18/7 46/16/7
f 28/18/8 32/56/8 47/19/8
f 52/20/9 30/23/9 48/21/9
f 30/23/10 26/61/10 45/24/10
f 51/25/11 29/47/11 25/26/11
f 50/28/12 26/62/12 30/23/12
f 40/29/10 33/33/10 44/30/10
f 39/32/10 34/49/10 33/33/10
f 53/34/13 40/29/13 43/31/13
f 36/36/8 38/40/8 42/37/8
f 35/39/8 37/51/8 38/40/8
f 57/41/14 55/43/14 36/36/14
f 56/42/14 35/39/14 36/36/14
f 57/41/15 41/38/15 27/44/15
f 41/38/8 42/37/8 31/46/8
f 58/35/16 43/31/16 29/47/16
f 43/31/10 44/30/10 25/48/10
f 48/21/10 45/24/10 34/49/10
f 59/22/13 48/21/13 39/32/13
f 46/16/8 47/19/8 37/51/8
f 60/17/14 46/16/14 35/39/14
f 34/52/14 45/59/14 60/17/14
f 47/19/13 59/22/13 54/50/13
f 42/37/16 58/35/16 51/25/16
f 44/53/15 57/41/15 49/45/15
f 44/53/14 33/60/14 55/43/14
f 37/51/13 54/50/13 53/34/13
f 38/40/13 53/34/13 58/35/13
f 28/55/12 50/28/12 52/20/12
f 31/46/11 51/25/11 49/27/11
f 32/56/9 52/20/9 59/22/9
f 26/58/7 50/15/7 60/17/7
f 86/15/7 64/18/7 82/16/7
f 64/18/8 68/56/8 83/19/8
f 88/20/9 66/23/9 84/21/9
f 66/23/10 62/61/10 81/24/10
f 87/25/11 65/47/11 61/26/11
f 86/28/12 62/62/12 66/23/12
f 76/29/10 69/33/10 80/30/10
f 75/32/10 70/49/10 69/33/10
f 89/34/13 76/29/13 79/31/13
f 90/50/13 75/32/13 76/29/13
f 72/36/8 74/40/8 78/37/8
f 71/39/8 73/51/8 74/40/8
f 93/41/14 91/43/14 72/36/14
f 93/41/15 77/38/15 63/44/15
f 77/38/8 78/37/8 67/46/8
f 94/35/16 79/31/16 65/47/16
f 79/31/10 80/30/10 61/48/10
f 84/21/10 81/24/10 70/49/10
f 95/22/13 84/21/13 75/32/13
f 82/16/8 83/19/8 73/51/8
f 96/17/14 82/16/14 71/39/14
f 70/52/14 81/59/14 96/17/14
f 83/19/13 95/22/13 90/50/13
f 78/37/16 94/35/16 87/25/16
f 80/53/15 93/41/15 85/45/15
f 70/52/14 92/42/14 91/43/14
f 80/53/14 69/60/14 91/43/14
f 74/40/13 89/34/13 94/35/13
f 64/55/12 86/28/12 88/20/12
f 67/46/11 87/25/11 85/27/11
f 68/56/9 88/20/9 95/22/9
f 62/58/7 86/15/7 96/17/7
o Light
v -0.250000 0.250000 1.187500
v -0.250000 2.437500 1.187500
v 0.250000 2.437500 1.187500
v 0.250000 0.250000 1.187500
v 0.250000 0.250000 1.062500
v 0.250000 2.437500 1.062500
v -0.250000 0.250000 1.062500
v -0.250000 2.437500 1.062500
v -0.250000 2.437500 -1.187500
v -0.250000 0.250000 -1.187500
v 0.250000 2.437500 -1.187500
v 0.250000 0.250000 -1.187500
v 0.250000 0.250000 -1.062500
v 0.250000 2.437500 -1.062500
v -0.250000 0.250000 -1.062500
v -0.250000 2.437500 -1.062500
vn 1.0000 -0.0000 -0.0000
vn -1.0000 -0.0000 -0.0000
vt 0.541667 0.625000
vt 0.458333 0.750000
vt 0.458333 0.625000
vt 0.541667 0.000000
vt 0.458333 0.125000
vt 0.458333 0.000000
vt 0.541667 0.125000
vt 0.458333 0.250000
vt 0.541667 0.500000
vt 0.458333 0.500000
vt 0.541667 0.750000
vt 0.541667 0.250000
s 0
f 102/63/17 100/64/17 101/65/17
f 98/66/18 103/67/18 97/68/18
f 112/69/18 106/70/18 111/67/18
f 107/71/17 109/65/17 108/72/17
f 102/63/17 99/73/17 100/64/17
f 98/66/18 104/69/18 103/67/18
f 112/69/18 105/74/18 106/70/18
f 107/71/17 110/63/17 109/65/17
o Cube
v -0.187500 0.000000 -0.750000
v -0.187500 2.687500 -0.750000
v -0.187500 0.000000 -1.000000
v -0.187500 2.687500 -1.000000
v 0.187500 0.000000 -0.750000
v 0.187500 2.687500 -0.750000
v 0.187500 0.000000 -1.000000
v 0.187500 2.687500 -1.000000
vn -1.0000 -0.0000 -0.0000
vn -0.0000 -0.0000 -1.0000
vn 1.0000 -0.0000 -0.0000
vn -0.0000 -0.0000 1.0000
vn -0.0000 -1.0000 -0.0000
vn -0.0000 1.0000 -0.0000
vt 0.625000 0.000000
vt 0.375000 0.250000
vt 0.375000 0.000000
vt 0.625000 0.250000
vt 0.375000 0.500000
vt 0.625000 0.500000
vt 0.375000 0.750000
vt 0.625000 0.750000
vt 0.375000 1.000000
vt 0.125000 0.750000
vt 0.125000 0.500000
vt 0.875000 0.500000
vt 0.625000 1.000000
vt 0.875000 0.750000
s 0
f 114/75/19 115/76/19 113/77/19
f 116/78/20 119/79/20 115/76/20
f 120/80/21 117/81/21 119/79/21
f 118/82/22 113/83/22 117/81/22
f 119/79/23 113/84/23 115/85/23
f 116/86/24 118/82/24 120/80/24
f 114/75/19 116/78/19 115/76/19
f 116/78/20 120/80/20 119/79/20
f 120/80/21 118/82/21 117/81/21
f 118/82/22 114/87/22 113/83/22
f 119/79/23 117/81/23 113/84/23
f 116/86/24 114/88/24 118/82/24
o Cube.001
v -0.187500 0.000000 0.000000
v -0.187500 2.687500 0.000000
v -0.187500 0.000000 -0.250000
v -0.187500 2.687500 -0.250000
v 0.187500 0.000000 0.000000
v 0.187500 2.687500 0.000000
v 0.187500 0.000000 -0.250000
v 0.187500 2.687500 -0.250000
vn -1.0000 -0.0000 -0.0000
vn -0.0000 -0.0000 -1.0000
vn 1.0000 -0.0000 -0.0000
vn -0.0000 -0.0000 1.0000
vn -0.0000 -1.0000 -0.0000
vn -0.0000 1.0000 -0.0000
vt 0.625000 0.000000
vt 0.375000 0.250000
vt 0.375000 0.000000
vt 0.625000 0.250000
vt 0.375000 0.500000
vt 0.625000 0.500000
vt 0.375000 0.750000
vt 0.625000 0.750000
vt 0.375000 1.000000
vt 0.125000 0.750000
vt 0.125000 0.500000
vt 0.875000 0.500000
vt 0.625000 1.000000
vt 0.875000 0.750000
s 0
f 122/89/25 123/90/25 121/91/25
f 124/92/26 127/93/26 123/90/26
f 128/94/27 125/95/27 127/93/27
f 126/96/28 121/97/28 125/95/28
f 127/93/29 121/98/29 123/99/29
f 124/100/30 126/96/30 128/94/30
f 122/89/25 124/92/25 123/90/25
f 124/92/26 128/94/26 127/93/26
f 128/94/27 126/96/27 125/95/27
f 126/96/28 122/101/28 121/97/28
f 127/93/29 125/95/29 121/98/29
f 124/100/30 122/102/30 126/96/30
o Cube.002
v -0.187500 0.000000 -0.750000
v 0.187500 0.000000 -0.750000
v -0.187500 1.500000 -0.750000
v -0.187500 2.000000 -0.750000
v 0.187500 1.500000 -0.750000
v 0.187500 2.000000 -0.750000
v -0.125000 0.000000 -0.250000
v -0.187500 0.000000 -0.338388
v -0.187500 0.411612 -0.750000
v -0.125000 0.500000 -0.750000
v 0.187500 0.000000 -0.338388
v 0.125000 0.000000 -0.250000
v 0.125000 0.500000 -0.750000
v 0.187500 0.411612 -0.750000
v 0.125000 2.500000 -0.750000
v 0.187500 2.424179 -0.750000
v -0.125000 1.500000 -0.250000
v -0.187500 1.500000 -0.325319
v -0.125000 1.000000 -0.750000
v -0.187500 1.075821 -0.750000
v 0.187500 1.075821 -0.750000
v 0.125000 1.000000 -0.750000
v 0.125000 2.000000 -0.250000
v 0.187500 2.000000 -0.325319
v -0.187500 2.424179 -0.750000
v -0.125000 2.500000 -0.750000
v -0.187500 2.000000 -0.325319
v -0.125000 2.000000 -0.250000
v 0.187500 1.500000 -0.325319
v 0.125000 1.500000 -0.250000
vn -0.6484 0.5387 0.5380
vn 0.6511 0.5367 0.5367
vn -0.6511 -0.5367 0.5367
vn 0.7071 0.5000 0.5000
vn -0.7071 0.5000 0.5000
vn 0.6484 -0.5387 0.5380
vn 0.7696 -0.0000 0.6386
vn -0.7696 -0.0000 0.6386
vn -1.0000 -0.0000 -0.0000
vn -0.0000 0.7071 0.7071
vn 1.0000 -0.0000 -0.0000
vn -0.0000 -0.7071 0.7071
vn -0.0000 -0.0000 1.0000
vn -0.6511 0.5367 0.5367
vn 0.6484 0.5387 0.5380
vn -0.6484 -0.5387 0.5380
vn 0.6511 -0.5367 0.5367
vt 0.375000 0.958333
vt 0.606045 1.000000
vt 0.393830 1.000000
vt 0.375000 0.791667
vt 0.587089 0.712089
vt 0.625000 0.791667
vt 0.625000 0.000000
vt 0.412911 0.037911
vt 0.375000 0.000000
vt 0.580806 0.705806
vt 0.625000 0.250000
vt 0.375000 0.044194
vt 0.625000 0.781951
vt 0.412911 0.500000
vt 0.625000 0.712341
vt 0.375000 0.791667
vt 0.625000 0.791667
vt 0.375000 0.037659
vt 0.580806 0.250000
vt 0.375000 0.250000
vt 0.375000 0.958333
vt 0.375000 0.500000
vt 0.375000 0.705806
vt 0.375000 0.712341
vt 0.625000 0.037659
vt 0.625000 0.037659
vt 0.375000 0.958333
vt 0.625000 0.500000
vt 0.375000 0.712341
vt 0.375000 0.037659
vt 0.587089 0.250000
vt 0.625000 0.958333
vt 0.625000 0.958333
s 0
f 156/103/31 153/104/31 155/105/31
f 151/106/32 144/107/32 143/108/32
f 145/109/33 148/110/33 147/111/33
f 140/106/34 142/112/34 141/108/34
f 138/113/35 136/114/35 135/111/35
f 158/115/36 149/116/36 157/117/36
f 158/118/37 152/117/37 151/119/37
f 156/109/38 146/120/38 145/111/38
f 136/114/39 137/121/39 129/122/39
f 141/108/40 135/123/40 140/106/40
f 130/124/41 142/112/41 139/125/41
f 143/108/40 156/103/40 151/106/40
f 134/124/41 144/107/41 152/126/41
f 155/127/39 131/122/39 146/120/39
f 148/110/39 146/128/39 131/113/39
f 158/115/42 147/123/42 150/118/42
f 151/119/43 145/129/43 158/118/43
f 149/116/41 133/130/41 157/117/41
f 134/130/41 157/131/41 133/124/41
f 155/132/39 153/133/39 132/122/39
f 156/103/44 154/134/44 153/104/44
f 151/106/45 152/126/45 144/107/45
f 145/109/46 146/128/46 148/110/46
f 140/106/34 139/125/34 142/112/34
f 138/113/35 137/121/35 136/114/35
f 158/115/47 150/124/47 149/116/47
f 158/118/37 157/131/37 152/117/37
f 156/109/38 155/127/38 146/120/38
f 141/108/40 138/135/40 135/123/40
f 143/108/40 154/134/40 156/103/40
f 155/127/39 132/113/39 131/122/39
f 158/115/42 145/135/42 147/123/42
f 151/119/43 156/135/43 145/129/43
f 134/130/41 152/117/41 157/131/41
o Cube.003
v 0.187500 0.500000 -0.250000
v 0.187500 1.000000 -0.250000
v -0.187500 0.500000 -0.250000
v -0.187500 1.000000 -0.250000
v 0.187500 2.500000 -0.250000
v 0.187500 2.687500 -0.250000
v -0.187500 2.500000 -0.250000
v -0.187500 2.687500 -0.250000
v 0.125000 2.000000 -0.250000
v 0.187500 2.071793 -0.250000
v 0.125000 2.500000 -0.750000
v 0.187500 2.500000 -0.678871
v -0.125000 1.500000 -0.250000
v -0.187500 1.424179 -0.250000
v 0.125000 0.500000 -0.750000
v 0.187500 0.500000 -0.674681
v 0.125000 0.000000 -0.250000
v 0.187500 0.075821 -0.250000
v -0.187500 0.075821 -0.250000
v -0.125000 -0.000000 -0.250000
v -0.125000 1.000000 -0.750000
v -0.187500 1.000000 -0.674681
v 0.187500 1.424179 -0.250000
v 0.125000 1.500000 -0.250000
v 0.187500 1.000000 -0.674681
v 0.125000 1.000000 -0.750000
v -0.187500 0.500000 -0.674681
v -0.125000 0.500000 -0.750000
v -0.187500 2.071793 -0.250000
v -0.125000 2.000000 -0.250000
v 0.187500 2.687500 -0.679202
v 0.125000 2.687500 -0.750000
v -0.125000 2.500000 -0.750000
v -0.187500 2.500000 -0.678871
v -0.125000 2.687500 -0.750000
v -0.187500 2.687500 -0.679202
vn -0.7497 -0.0000 -0.6618
vn 0.6484 0.5387 -0.5380
vn -0.6511 0.5367 -0.5367
vn 0.6511 -0.5367 -0.5367
vn 0.6305 -0.5489 -0.5489
vn -0.6484 -0.5387 -0.5380
vn -0.6266 -0.5515 -0.5506
vn 0.7512 -0.0012 -0.6601
vn -0.7696 -0.0000 -0.6386
vn 0.7696 -0.0000 -0.6386
vn -0.0000 -0.7071 -0.7071
vn 1.0000 -0.0000 -0.0000
vn -0.0000 -0.0000 -1.0000
vn -0.0000 0.7071 -0.7071
vn -1.0000 -0.0000 -0.0000
vn -0.7512 -0.0012 -0.6601
vn 0.6511 0.5367 -0.5367
vn -0.6484 0.5387 -0.5380
vn 0.6484 -0.5387 -0.5380
vn 0.6266 -0.5515 -0.5506
vn -0.6511 -0.5367 -0.5367
vn -0.6305 -0.5489 -0.5489
vn 0.7497 -0.0000 -0.6618
vt 0.375000 0.791667
vt 0.625000 0.714601
vt 0.625000 0.791667
vt 0.375000 0.958333
vt 0.606045 1.000000
vt 0.393830 1.000000
vt 0.375000 0.791667
vt 0.587089 0.712089
vt 0.625000 0.000000
vt 0.412911 0.037911
vt 0.375000 0.000000
vt 0.625000 0.958333
vt 0.392948 1.000000
vt 0.375000 0.958333
vt 0.625000 0.781951
vt 0.412911 0.500000
vt 0.625000 0.712341
vt 0.625000 0.791667
vt 0.392948 0.750000
vt 0.618510 0.727415
vt 0.625000 0.035399
vt 0.375000 0.035565
vt 0.375000 0.791667
vt 0.625000 0.712341
vt 0.625000 0.791667
vt 0.375000 0.037659
vt 0.375000 0.791667
vt 0.410897 0.035897
vt 0.625000 0.035565
vt 0.625000 0.250000
vt 0.375000 0.958333
vt 0.375000 0.250000
vt 0.375000 0.500000
vt 0.375000 0.712341
vt 0.625000 0.037659
vt 0.625000 0.037659
vt 0.625000 0.500000
vt 0.375000 0.712341
vt 0.375000 0.037659
vt 0.587089 0.250000
vt 0.410897 0.500000
vt 0.375000 0.714435
vt 0.625000 0.958333
vt 0.607218 1.000000
s 0
f 191/136/48 194/137/48 193/138/48
f 184/139/49 181/140/49 183/141/49
f 179/142/50 172/143/50 171/138/50
f 173/144/51 176/145/51 175/146/51
f 169/147/52 168/148/52 167/149/52
f 186/150/53 177/151/53 185/152/53
f 191/153/54 187/154/54 192/155/54
f 169/146/55 189/156/55 170/157/55
f 186/158/56 180/159/56 179/160/56
f 184/144/57 174/161/57 173/146/57
f 191/153/58 167/149/58 188/162/58
f 168/163/59 170/164/59 163/165/59
f 193/138/60 169/166/60 191/136/60
f 170/157/59 164/165/59 163/167/59
f 171/138/61 184/139/61 179/142/61
f 162/168/62 172/143/62 180/169/62
f 183/170/59 159/167/59 174/161/59
f 176/145/59 174/171/59 159/165/59
f 186/150/58 175/149/58 178/136/58
f 179/160/60 173/166/60 186/158/60
f 177/151/62 161/172/62 185/152/62
f 162/172/62 185/173/62 161/168/62
f 183/174/59 181/175/59 160/167/59
f 187/176/62 165/172/62 192/155/62
f 166/172/62 192/177/62 165/168/62
f 191/136/63 192/177/63 194/137/63
f 184/139/64 182/178/64 181/140/64
f 179/142/65 180/169/65 172/143/65
f 173/144/66 174/171/66 176/145/66
f 169/147/67 170/179/67 168/148/67
f 186/150/68 178/168/68 177/151/68
f 191/153/69 188/162/69 187/154/69
f 169/146/70 190/144/70 189/156/70
f 186/158/56 185/173/56 180/159/56
f 184/144/57 183/170/57 174/161/57
f 191/153/58 169/147/58 167/149/58
f 193/138/60 190/147/60 169/166/60
f 170/157/59 189/156/59 164/165/59
f 171/138/61 182/178/61 184/139/61
f 183/170/59 160/165/59 159/167/59
f 186/150/58 173/147/58 175/149/58
f 179/160/60 184/147/60 173/166/60
f 162/172/62 180/159/62 185/173/62
f 166/172/62 194/137/62 192/177/62
o Cube.004
v -0.062500 0.000000 0.937500
v -0.062500 2.687500 0.937500
v -0.062500 0.000000 0.000000
v -0.062500 2.687500 0.000000
v 0.062500 0.000000 0.937500
v 0.062500 2.687500 0.937500
v 0.062500 0.000000 0.000000
v 0.062500 2.687500 0.000000
vn -1.0000 -0.0000 -0.0000
vn -0.0000 -0.0000 -1.0000
vn 1.0000 -0.0000 -0.0000
vn -0.0000 -0.0000 1.0000
vn -0.0000 -1.0000 -0.0000
vn -0.0000 1.0000 -0.0000
vt 0.625000 0.000000
vt 0.375000 0.250000
vt 0.375000 0.000000
vt 0.625000 0.250000
vt 0.375000 0.500000
vt 0.625000 0.500000
vt 0.375000 0.750000
vt 0.625000 0.750000
vt 0.375000 1.000000
vt 0.125000 0.750000
vt 0.125000 0.500000
vt 0.875000 0.500000
vt 0.625000 1.000000
vt 0.875000 0.750000
s 0
f 196/180/71 197/181/71 195/182/71
f 198/183/72 201/184/72 197/181/72
f 202/185/73 199/186/73 201/184/73
f 200/187/74 195/188/74 199/186/74
f 201/184/75 195/189/75 197/190/75
f 198/191/76 200/187/76 202/185/76
f 196/180/71 198/183/71 197/181/71
f 198/183/72 202/185/72 201/184/72
f 202/185/73 200/187/73 199/186/73
f 200/187/74 196/192/74 195/188/74
f 201/184/75 199/186/75 195/189/75
f 198/191/76 196/193/76 200/187/76
o Cube.005
v -0.187500 1.000000 0.937500
v -0.187500 1.687500 0.937500
v -0.187500 1.000000 0.000000
v -0.187500 1.687500 0.000000
v 0.187500 1.000000 0.937500
v 0.187500 1.687500 0.937500
v 0.187500 1.000000 0.000000
v 0.187500 1.687500 0.000000
v -0.312500 0.000000 0.937500
v -0.187500 0.500000 0.937500
v -0.312500 0.000000 -0.125000
v -0.187500 0.500000 0.000000
v 0.312500 0.000000 0.937500
v 0.187500 0.500000 0.937500
v 0.312500 0.000000 -0.125000
v 0.187500 0.500000 0.000000
v -0.187500 0.125000 0.937500
v -0.187500 0.125000 0.000000
v 0.187500 0.125000 0.000000
v 0.187500 0.125000 0.937500
v -0.187500 2.187500 0.937500
v -0.312500 2.687500 0.937500
v -0.187500 2.187500 0.000000
v -0.312500 2.687500 -0.125000
v 0.187500 2.187500 0.937500
v 0.312500 2.687500 0.937500
v 0.187500 2.187500 0.000000
v 0.312500 2.687500 -0.125000
v -0.187500 2.562500 0.937500
v -0.187500 2.562500 0.000000
v 0.187500 2.562500 0.000000
v 0.187500 2.562500 0.937500
v -0.125000 2.125000 0.000000
v -0.125000 2.125000 0.937500
v 0.125000 2.125000 0.000000
v 0.125000 2.125000 0.937500
v -0.125000 1.750000 0.937500
v -0.125000 1.750000 0.000000
v 0.125000 1.750000 0.000000
v 0.125000 1.750000 0.937500
v -0.125000 0.937500 0.000000
v -0.125000 0.937500 0.937500
v 0.125000 0.937500 0.000000
v 0.125000 0.937500 0.937500
v -0.125000 0.562500 0.937500
v -0.125000 0.562500 0.000000
v 0.125000 0.562500 0.000000
v 0.125000 0.562500 0.937500
vn -1.0000 -0.0000 -0.0000
vn -0.0000 -0.0000 -1.0000
vn 1.0000 -0.0000 -0.0000
vn -0.0000 -0.0000 1.0000
vn 0.7071 -0.7071 -0.0000
vn -0.0000 -1.0000 -0.0000
vn 0.7071 0.7071 -0.0000
vn -0.0000 0.7071 -0.7071
vn -0.7071 0.7071 -0.0000
vn -0.7071 -0.7071 -0.0000
vn -0.0000 -0.7071 -0.7071
vn -0.0000 1.0000 -0.0000
vt 0.625000 0.000000
vt 0.375000 0.250000
vt 0.375000 0.000000
vt 0.625000 0.250000
vt 0.375000 0.500000
vt 0.625000 0.500000
vt 0.375000 0.750000
vt 0.625000 0.750000
vt 0.375000 1.000000
vt 0.500000 0.250000
vt 0.500000 0.000000
vt 0.500000 0.500000
vt 0.500000 0.750000
vt 0.500000 1.000000
vt 0.125000 0.750000
vt 0.125000 0.500000
vt 0.875000 0.500000
vt 0.625000 1.000000
vt 0.875000 0.750000
s 0
f 204/194/77 205/195/77 203/196/77
f 206/197/78 209/198/78 205/195/78
f 210/199/79 207/200/79 209/198/79
f 208/201/80 203/202/80 207/200/80
f 207/200/81 245/198/81 209/198/81
f 206/197/78 241/199/78 210/199/78
f 212/194/77 220/203/77 219/204/77
f 214/197/78 221/205/78 220/203/78
f 218/199/79 222/206/79 221/205/79
f 216/201/80 219/207/80 222/206/80
f 217/198/82 211/208/82 213/209/82
f 218/199/83 250/201/83 216/201/83
f 222/206/80 211/202/80 215/200/80
f 221/205/83 215/200/83 217/198/83
f 220/203/84 217/198/84 213/195/84
f 211/196/85 220/203/85 213/195/85
f 224/194/86 232/203/86 231/204/86
f 226/197/87 233/205/87 232/203/87
f 233/205/81 228/201/81 234/206/81
f 228/201/80 231/207/80 234/206/80
f 223/202/80 238/200/80 227/200/80
f 226/210/88 228/201/88 230/199/88
f 234/206/80 223/202/80 227/200/80
f 233/205/79 227/200/79 229/198/79
f 232/203/78 229/198/78 225/195/78
f 231/204/77 225/195/77 223/196/77
f 237/198/82 236/208/82 235/209/82
f 229/198/78 235/195/78 225/195/78
f 225/195/86 236/196/86 223/196/86
f 227/200/81 237/198/81 229/198/81
f 240/210/88 242/201/88 241/199/88
f 210/199/83 242/201/83 208/201/83
f 204/194/85 240/197/85 206/197/85
f 208/201/80 239/211/80 204/211/80
f 245/198/82 244/208/82 243/209/82
f 203/202/80 246/200/80 207/200/80
f 209/198/78 243/195/78 205/195/78
f 205/195/86 244/196/86 203/196/86
f 248/210/88 250/201/88 249/199/88
f 212/194/85 248/197/85 214/197/85
f 216/201/80 247/211/80 212/211/80
f 214/197/78 249/199/78 218/199/78
f 204/194/77 206/197/77 205/195/77
f 206/197/78 210/199/78 209/198/78
f 210/199/79 208/201/79 207/200/79
f 208/201/80 204/211/80 203/202/80
f 207/200/81 246/200/81 245/198/81
f 206/197/78 240/197/78 241/199/78
f 212/194/77 214/197/77 220/203/77
f 214/197/78 218/199/78 221/205/78
f 218/199/79 216/201/79 222/206/79
f 216/201/80 212/211/80 219/207/80
f 217/198/82 215/200/82 211/208/82
f 218/199/83 249/199/83 250/201/83
f 222/206/80 219/207/80 211/202/80
f 221/205/83 222/206/83 215/200/83
f 220/203/84 221/205/84 217/198/84
f 211/196/85 219/204/85 220/203/85
f 224/194/86 226/197/86 232/203/86
f 226/197/87 230/199/87 233/205/87
f 233/205/81 230/199/81 228/201/81
f 228/201/80 224/211/80 231/207/80
f 223/202/80 236/202/80 238/200/80
f 226/210/88 224/212/88 228/201/88
f 234/206/80 231/207/80 223/202/80
f 233/205/79 234/206/79 227/200/79
f 232/203/78 233/205/78 229/198/78
f 231/204/77 232/203/77 225/195/77
f 237/198/82 238/200/82 236/208/82
f 229/198/78 237/198/78 235/195/78
f 225/195/86 235/195/86 236/196/86
f 227/200/81 238/200/81 237/198/81
f 240/210/88 239/212/88 242/201/88
f 210/199/83 241/199/83 242/201/83
f 204/194/85 239/194/85 240/197/85
f 208/201/80 242/201/80 239/211/80
f 245/198/82 246/200/82 244/208/82
f 203/202/80 244/202/80 246/200/80
f 209/198/78 245/198/78 243/195/78
f 205/195/86 243/195/86 244/196/86
f 248/210/88 247/212/88 250/201/88
f 212/194/85 247/194/85 248/197/85
f 216/201/80 250/201/80 247/211/80
f 214/197/78 248/197/78 249/199/78
o Cylinder
v 0.000000 0.566674 0.125000
v 0.000000 0.566674 -0.000000
v 0.129631 0.620369 0.125000
v 0.129631 0.620369 0.000000
v 0.183326 0.750000 0.125000
v 0.183326 0.750000 0.000000
v 0.129631 0.879631 0.125000
v 0.129631 0.879631 0.000000
v 0.000000 0.933326 0.125000
v 0.000000 0.933326 0.000000
v -0.129631 0.879631 0.125000
v -0.129631 0.879631 0.000000
v -0.183326 0.750000 0.125000
v -0.183326 0.750000 0.000000
v -0.129631 0.620369 0.125000
v -0.129631 0.620369 0.000000
v 0.000000 0.566674 0.937500
v 0.000000 0.566674 0.812500
v 0.129631 0.620369 0.937500
v 0.129631 0.620369 0.812500
v 0.183326 0.750000 0.937500
v 0.183326 0.750000 0.812500
v 0.129631 0.879631 0.937500
v 0.129631 0.879631 0.812500
v 0.000000 0.933326 0.937500
v 0.000000 0.933326 0.812500
v -0.129631 0.879631 0.937500
v -0.129631 0.879631 0.812500
v -0.183326 0.750000 0.937500
v -0.183326 0.750000 0.812500
v -0.129631 0.620369 0.937500
v -0.129631 0.620369 0.812500
v 0.000000 0.597843 0.812500
v 0.000000 0.597843 0.125000
v 0.107591 0.642409 0.812500
v 0.107591 0.642409 0.125000
v 0.152157 0.750000 0.812500
v 0.152157 0.750000 0.125000
v 0.107591 0.857591 0.812500
v 0.107591 0.857591 0.125000
v 0.000000 0.902157 0.812500
v 0.000000 0.902157 0.125000
v -0.107591 0.857591 0.812500
v -0.107591 0.857591 0.125000
v -0.152157 0.750000 0.812500
v -0.152157 0.750000 0.125000
v -0.107591 0.642409 0.812500
v -0.107591 0.642409 0.125000
v 0.000000 1.754174 0.125000
v 0.000000 1.754174 -0.000000
v 0.129631 1.807869 0.125000
v 0.129631 1.807869 0.000000
v 0.183326 1.937500 0.125000
v 0.183326 1.937500 0.000000
v 0.129631 2.067131 0.125000
v 0.129631 2.067131 0.000000
v 0.000000 2.120826 0.125000
v 0.000000 2.120826 0.000000
v -0.129631 2.067131 0.125000
v -0.129631 2.067131 0.000000
v -0.183326 1.937500 0.125000
v -0.183326 1.937500 0.000000
v -0.129631 1.807869 0.125000
v -0.129631 1.807869 0.000000
v 0.000000 1.754174 0.937500
v 0.000000 1.754174 0.812500
v 0.129631 1.807869 0.937500
v 0.129631 1.807869 0.812500
v 0.183326 1.937500 0.937500
v 0.183326 1.937500 0.812500
v 0.129631 2.067131 0.937500
v 0.129631 2.067131 0.812500
v 0.000000 2.120826 0.937500
v 0.000000 2.120826 0.812500
v -0.129631 2.067131 0.937500
v -0.129631 2.067131 0.812500
v -0.183326 1.937500 0.937500
v -0.183326 1.937500 0.812500
v -0.129631 1.807869 0.937500
v -0.129631 1.807869 0.812500
v 0.000000 1.785343 0.812500
v 0.000000 1.785343 0.125000
v 0.107591 1.829909 0.812500
v 0.107591 1.829909 0.125000
v 0.152157 1.937500 0.812500
v 0.152157 1.937500 0.125000
v 0.107591 2.045091 0.812500
v 0.107591 2.045091 0.125000
v 0.000000 2.089657 0.812500
v 0.000000 2.089657 0.125000
v -0.107591 2.045091 0.812500
v -0.107591 2.045091 0.125000
v -0.152157 1.937500 0.812500
v -0.152157 1.937500 0.125000
v -0.107591 1.829909 0.812500
v -0.107591 1.829909 0.125000
vn 0.3827 -0.9239 -0.0000
vn 0.9239 -0.3827 -0.0000
vn 0.9239 0.3827 -0.0000
vn 0.3827 0.9239 -0.0000
vn -0.3827 0.9239 -0.0000
vn -0.9239 0.3827 -0.0000
vn -0.9239 -0.3827 -0.0000
vn -0.3827 -0.9239 -0.0000
vn -0.0000 -0.0000 1.0000
vn -0.0000 -0.0000 -1.0000
vt 1.000000 1.000000
vt 0.875000 0.500000
vt 1.000000 0.500000
vt 0.875000 1.000000
vt 0.750000 0.500000
vt 0.750000 1.000000
vt 0.625000 0.500000
vt 0.625000 1.000000
vt 0.500000 0.500000
vt 0.500000 1.000000
vt 0.375000 0.500000
vt 0.375000 1.000000
vt 0.250000 0.500000
vt 0.125000 1.000000
vt 0.125000 0.500000
vt 0.000000 0.500000
vt 0.919706 0.080294
vt 0.580294 0.080294
vt 0.580294 0.419706
vt 0.010000 0.250000
vt 0.250000 0.010000
vt 0.490000 0.250000
vt 0.250000 1.000000
vt 0.000000 1.000000
vt 0.750000 0.490000
vt 0.919706 0.419706
vt 0.990000 0.250000
vt 0.750000 0.010000
vt 0.510000 0.250000
vt 0.419706 0.419706
vt 0.250000 0.490000
vt 0.080294 0.419706
vt 0.080294 0.080294
vt 0.419706 0.080294
s 0
f 252/213/89 253/214/89 251/215/89
f 254/216/90 255/217/90 253/214/90
f 256/218/91 257/219/91 255/217/91
f 258/220/92 259/221/92 257/219/92
f 260/222/93 261/223/93 259/221/93
f 262/224/94 263/225/94 261/223/94
f 263/225/95 266/226/95 265/227/95
f 266/226/96 251/228/96 265/227/96
f 257/229/97 261/230/97 265/231/97
f 268/213/89 269/214/89 267/215/89
f 270/216/90 271/217/90 269/214/90
f 272/218/91 273/219/91 271/217/91
f 274/220/92 275/221/92 273/219/92
f 275/221/93 278/224/93 277/223/93
f 278/224/94 279/225/94 277/223/94
f 280/232/98 276/233/98 272/234/98
f 279/225/95 282/226/95 281/227/95
f 282/226/96 267/228/96 281/227/96
f 283/215/89 286/216/89 285/214/89
f 286/216/90 287/217/90 285/214/90
f 288/218/91 289/219/91 287/217/91
f 290/220/92 291/221/92 289/219/92
f 292/222/93 293/223/93 291/221/93
f 294/224/94 295/225/94 293/223/94
f 296/235/95 297/227/95 295/225/95
f 298/226/96 283/228/96 297/227/96
f 299/215/89 302/216/89 301/214/89
f 302/216/90 303/217/90 301/214/90
f 304/218/91 305/219/91 303/217/91
f 306/220/92 307/221/92 305/219/92
f 308/222/93 309/223/93 307/221/93
f 310/224/94 311/225/94 309/223/94
f 312/235/95 313/227/95 311/225/95
f 314/226/96 299/228/96 313/227/96
f 305/229/97 309/230/97 313/231/97
f 315/215/89 318/216/89 317/214/89
f 318/216/90 319/217/90 317/214/90
f 320/218/91 321/219/91 319/217/91
f 322/220/92 323/221/92 321/219/92
f 324/222/93 325/223/93 323/221/93
f 326/224/94 327/225/94 325/223/94
f 328/232/98 324/233/98 320/234/98
f 328/235/95 329/227/95 327/225/95
f 330/226/96 315/228/96 329/227/96
f 332/213/89 333/214/89 331/215/89
f 334/216/90 335/217/90 333/214/90
f 336/218/91 337/219/91 335/217/91
f 338/220/92 339/221/92 337/219/92
f 340/222/93 341/223/93 339/221/93
f 341/223/94 344/235/94 343/225/94
f 344/235/95 345/227/95 343/225/95
f 346/226/96 331/228/96 345/227/96
f 252/213/89 254/216/89 253/214/89
f 254/216/90 256/218/90 255/217/90
f 256/218/91 258/220/91 257/219/91
f 258/220/92 260/222/92 259/221/92
f 260/222/93 262/224/93 261/223/93
f 262/224/94 264/235/94 263/225/94
f 263/225/95 264/235/95 266/226/95
f 266/226/96 252/236/96 251/228/96
f 265/231/97 251/237/97 253/238/97
f 253/238/97 255/239/97 257/229/97
f 257/229/97 259/240/97 261/230/97
f 261/230/97 263/241/97 265/231/97
f 265/231/97 253/238/97 257/229/97
f 268/213/89 270/216/89 269/214/89
f 270/216/90 272/218/90 271/217/90
f 272/218/91 274/220/91 273/219/91
f 274/220/92 276/222/92 275/221/92
f 275/221/93 276/222/93 278/224/93
f 278/224/94 280/235/94 279/225/94
f 272/234/98 270/242/98 268/243/98
f 268/243/98 282/244/98 280/232/98
f 280/232/98 278/245/98 276/233/98
f 276/233/98 274/246/98 272/234/98
f 272/234/98 268/243/98 280/232/98
f 279/225/95 280/235/95 282/226/95
f 282/226/96 268/236/96 267/228/96
f 283/215/89 284/213/89 286/216/89
f 286/216/90 288/218/90 287/217/90
f 288/218/91 290/220/91 289/219/91
f 290/220/92 292/222/92 291/221/92
f 292/222/93 294/224/93 293/223/93
f 294/224/94 296/235/94 295/225/94
f 296/235/95 298/226/95 297/227/95
f 298/226/96 284/236/96 283/228/96
f 299/215/89 300/213/89 302/216/89
f 302/216/90 304/218/90 303/217/90
f 304/218/91 306/220/91 305/219/91
f 306/220/92 308/222/92 307/221/92
f 308/222/93 310/224/93 309/223/93
f 310/224/94 312/235/94 311/225/94
f 312/235/95 314/226/95 313/227/95
f 314/226/96 300/236/96 299/228/96
f 313/231/97 299/237/97 301/238/97
f 301/238/97 303/239/97 305/229/97
f 305/229/97 307/240/97 309/230/97
f 309/230/97 311/241/97 313/231/97
f 313/231/97 301/238/97 305/229/97
f 315/215/89 316/213/89 318/216/89
f 318/216/90 320/218/90 319/217/90
f 320/218/91 322/220/91 321/219/91
f 322/220/92 324/222/92 323/221/92
f 324/222/93 326/224/93 325/223/93
f 326/224/94 328/235/94 327/225/94
f 320/234/98 318/242/98 316/243/98
f 316/243/98 330/244/98 328/232/98
f 328/232/98 326/245/98 324/233/98
f 324/233/98 322/246/98 320/234/98
f 320/234/98 316/243/98 328/232/98
f 328/235/95 330/226/95 329/227/95
f 330/226/96 316/236/96 315/228/96
f 332/213/89 334/216/89 333/214/89
f 334/216/90 336/218/90 335/217/90
f 336/218/91 338/220/91 337/219/91
f 338/220/92 340/222/92 339/221/92
f 340/222/93 342/224/93 341/223/93
f 341/223/94 342/224/94 344/235/94
f 344/235/95 346/226/95 345/227/95
f 346/226/96 332/236/96 331/228/96
o Cube.006
v -0.187500 1.000000 -1.000000
v -0.187500 1.687500 -1.000000
v -0.187500 1.000000 -1.125000
v -0.187500 1.687500 -1.125000
v 0.187500 1.000000 -1.000000
v 0.187500 1.687500 -1.000000
v 0.187500 1.000000 -1.125000
v 0.187500 1.687500 -1.125000
v -0.312500 0.000000 -0.875000
v -0.187500 0.500000 -1.000000
v -0.312500 0.000000 -1.125000
v -0.187500 0.500000 -1.125000
v 0.312500 0.000000 -0.875000
v 0.187500 0.500000 -1.000000
v 0.312500 0.000000 -1.125000
v 0.187500 0.500000 -1.125000
v -0.187500 0.125000 -1.000000
v -0.187500 0.125000 -1.125000
v 0.187500 0.125000 -1.125000
v 0.187500 0.125000 -1.000000
v -0.187500 2.187500 -1.000000
v -0.312500 2.687500 -0.875000
v -0.187500 2.187500 -1.125000
v -0.312500 2.687500 -1.125000
v 0.187500 2.187500 -1.000000
v 0.312500 2.687500 -0.875000
v 0.187500 2.187500 -1.125000
v 0.312500 2.687500 -1.125000
v -0.187500 2.562500 -1.000000
v -0.187500 2.562500 -1.125000
v 0.187500 2.562500 -1.125000
v 0.187500 2.562500 -1.000000
v -0.125000 2.125000 -1.125000
v -0.125000 2.125000 -1.000000
v 0.125000 2.125000 -1.125000
v 0.125000 2.125000 -1.000000
v -0.125000 1.750000 -1.000000
v -0.125000 1.750000 -1.125000
v 0.125000 1.750000 -1.125000
v 0.125000 1.750000 -1.000000
v -0.125000 0.937500 -1.125000
v -0.125000 0.937500 -1.000000
v 0.125000 0.937500 -1.125000
v 0.125000 0.937500 -1.000000
v -0.125000 0.562500 -1.000000
v -0.125000 0.562500 -1.125000
v 0.125000 0.562500 -1.125000
v 0.125000 0.562500 -1.000000
vn -1.0000 -0.0000 -0.0000
vn -0.0000 -0.0000 -1.0000
vn 1.0000 -0.0000 -0.0000
vn -0.0000 -0.0000 1.0000
vn 0.7071 -0.7071 -0.0000
vn -0.0000 -1.0000 -0.0000
vn 0.7071 0.7071 -0.0000
vn -0.0000 0.7071 0.7071
vn -0.7071 0.7071 -0.0000
vn -0.7071 -0.7071 -0.0000
vn -0.0000 -0.7071 0.7071
vn -0.0000 1.0000 -0.0000
vt 0.625000 0.000000
vt 0.375000 0.250000
vt 0.375000 0.000000
vt 0.625000 0.250000
vt 0.375000 0.500000
vt 0.625000 0.500000
vt 0.375000 0.750000
vt 0.625000 0.750000
vt 0.375000 1.000000
vt 0.500000 0.250000
vt 0.500000 0.000000
vt 0.500000 0.500000
vt 0.500000 0.750000
vt 0.500000 1.000000
vt 0.125000 0.750000
vt 0.125000 0.500000
vt 0.875000 0.500000
vt 0.625000 1.000000
vt 0.875000 0.750000
s 0
f 348/247/99 349/248/99 347/249/99
f 350/250/100 353/251/100 349/248/100
f 354/252/101 351/253/101 353/251/101
f 352/254/102 347/255/102 351/253/102
f 351/253/103 389/251/103 353/251/103
f 350/250/100 385/252/100 354/252/100
f 356/247/99 364/256/99 363/257/99
f 358/250/100 365/258/100 364/256/100
f 362/252/101 366/259/101 365/258/101
f 360/254/102 363/260/102 366/259/102
f 361/251/104 355/261/104 357/262/104
f 362/252/105 394/254/105 360/254/105
f 366/259/106 355/255/106 359/253/106
f 361/251/105 366/259/105 359/253/105
f 364/256/100 361/251/100 357/248/100
f 363/257/107 357/248/107 355/249/107
f 375/257/108 370/250/108 376/256/108
f 370/250/100 377/258/100 376/256/100
f 374/252/103 378/259/103 377/258/103
f 372/254/109 375/260/109 378/259/109
f 367/255/102 382/253/102 371/253/102
f 370/263/110 372/254/110 374/252/110
f 378/259/102 367/255/102 371/253/102
f 377/258/101 371/253/101 373/251/101
f 376/256/100 373/251/100 369/248/100
f 375/257/99 369/248/99 367/249/99
f 381/251/104 380/261/104 379/262/104
f 373/251/100 379/248/100 369/248/100
f 369/248/108 380/249/108 367/249/108
f 371/253/103 381/251/103 373/251/103
f 384/263/110 386/254/110 385/252/110
f 354/252/105 386/254/105 352/254/105
f 348/247/107 384/250/107 350/250/107
f 352/254/102 383/264/102 348/264/102
f 389/251/104 388/261/104 387/262/104
f 347/255/102 390/253/102 351/253/102
f 353/251/100 387/248/100 349/248/100
f 349/248/108 388/249/108 347/249/108
f 392/263/110 394/254/110 393/252/110
f 356/247/107 392/250/107 358/250/107
f 360/254/102 391/264/102 356/264/102
f 358/250/100 393/252/100 362/252/100
f 348/247/99 350/250/99 349/248/99
f 350/250/100 354/252/100 353/251/100
f 354/252/101 352/254/101 351/253/101
f 352/254/102 348/264/102 347/255/102
f 351/253/103 390/253/103 389/251/103
f 350/250/100 384/250/100 385/252/100
f 356/247/99 358/250/99 364/256/99
f 358/250/100 362/252/100 365/258/100
f 362/252/101 360/254/101 366/259/101
f 360/254/102 356/264/102 363/260/102
f 361/251/104 359/253/104 355/261/104
f 362/252/105 393/252/105 394/254/105
f 366/259/106 363/260/106 355/255/106
f 361/251/105 365/258/105 366/259/105
f 364/256/100 365/258/100 361/251/100
f 363/257/107 364/256/107 357/248/107
f 375/257/108 368/247/108 370/250/108
f 370/250/100 374/252/100 377/258/100
f 374/252/103 372/254/103 378/259/103
f 372/254/109 368/264/109 375/260/109
f 367/255/102 380/255/102 382/253/102
f 370/263/110 368/265/110 372/254/110
f 378/259/102 375/260/102 367/255/102
f 377/258/101 378/259/101 371/253/101
f 376/256/100 377/258/100 373/251/100
f 375/257/99 376/256/99 369/248/99
f 381/251/104 382/253/104 380/261/104
f 373/251/100 381/251/100 379/248/100
f 369/248/108 379/248/108 380/249/108
f 371/253/103 382/253/103 381/251/103
f 384/263/110 383/265/110 386/254/110
f 354/252/105 385/252/105 386/254/105
f 348/247/107 383/247/107 384/250/107
f 352/254/102 386/254/102 383/264/102
f 389/251/104 390/253/104 388/261/104
f 347/255/102 388/255/102 390/253/102
f 353/251/100 389/251/100 387/248/100
f 349/248/108 387/248/108 388/249/108
f 392/263/110 391/265/110 394/254/110
f 356/247/107 391/247/107 392/250/107
f 360/254/102 394/254/102 391/264/102
f 358/250/100 392/250/100 393/252/100
