# Blender 4.3.2
# www.blender.org
o Core
v 1.500000 -0.000000 -1.500000
v 1.500000 0.000000 1.500000
v -1.500000 0.000000 1.500000
v -1.500000 -0.000000 -1.500000
v 0.000000 1.000000 1.500000
v 1.500000 1.000000 1.500000
v 0.750000 1.000000 1.299038
v 1.500000 1.000000 -0.000000
v 1.299038 1.000000 0.750000
v 1.299038 1.000000 -0.750000
v 1.500000 1.000000 -1.500000
v 0.000000 1.000000 -1.500000
v 0.750000 1.000000 -1.299038
v -0.750000 1.000000 -1.299038
v -1.500000 1.000000 -1.500000
v -1.500000 1.000000 -0.000000
v -1.299038 1.000000 -0.750000
v -1.500000 1.000000 1.500000
v -1.299038 1.000000 0.750000
v -0.750000 1.000000 1.299038
v 2.250000 1.000000 -1.500000
v 1.500000 1.000000 -2.250000
v 1.500000 -0.000000 -2.250000
v 2.250000 -0.000000 -1.500000
v 1.500000 1.000000 2.250000
v 2.250000 1.000000 1.500000
v 2.250000 0.000000 1.500000
v 1.500000 0.000000 2.250000
v -2.250000 1.000000 1.500000
v -1.500000 1.000000 2.250000
v -1.500000 0.000000 2.250000
v -2.250000 0.000000 1.500000
v -1.500000 1.000000 -2.250000
v -2.250000 1.000000 -1.500000
v -2.250000 -0.000000 -1.500000
v -1.500000 -0.000000 -2.250000
v 2.500000 0.750000 -1.500000
v 2.500000 0.750000 1.500000
v 2.500000 0.000000 1.500000
v 2.500000 -0.000000 -1.500000
v -2.500000 0.000000 1.500000
v -2.500000 0.750000 1.500000
v -2.500000 0.750000 -1.500000
v -2.500000 -0.000000 -1.500000
v 1.500000 0.000000 2.500000
v 1.500000 0.750000 2.500000
v -1.500000 0.750000 2.500000
v -1.500000 0.000000 2.500000
v -1.500000 0.750000 -2.500000
v 1.500000 0.750000 -2.500000
v 1.500000 -0.000000 -2.500000
v -1.500000 -0.000000 -2.500000
v -0.750000 -0.250000 -1.299038
v -1.299038 -0.250000 -0.750000
v -1.500000 -0.250000 0.000000
v -1.299038 -0.250000 0.750000
v -0.750000 -0.250000 1.299038
v 0.000000 -0.250000 1.500000
v 0.750000 -0.250000 1.299038
v 1.299038 -0.250000 0.750000
v 1.500000 -0.250000 0.000000
v 1.299038 -0.250000 -0.750000
v 0.750000 -0.250000 -1.299038
v 0.000000 -0.250000 -1.500000
v 1.625000 -0.250000 0.000000
v 1.407291 -0.250000 -0.812500
v 1.407291 -0.250000 0.812500
v 0.812500 -0.250000 1.407291
v 0.000000 -0.250000 1.625000
v -0.812500 -0.250000 1.407291
v -1.407291 -0.250000 0.812500
v -1.625000 -0.250000 0.000000
v -1.407291 -0.250000 -0.812500
v -0.812500 -0.250000 -1.407291
v 0.000000 -0.250000 -1.625000
v 0.812500 -0.250000 -1.407291
v 0.750000 0.875000 -1.299038
v 1.299038 0.875000 -0.750000
v 0.000000 0.875000 -1.500000
v 1.500000 0.875000 -0.000000
v 1.299038 0.875000 0.750000
v 0.750000 0.875000 1.299038
v 0.000000 0.875000 1.500000
v -0.750000 0.875000 -1.299038
v -1.299038 0.875000 -0.750000
v -1.500000 0.875000 -0.000000
v -1.299038 0.875000 0.750000
v -0.750000 0.875000 1.299038
v 0.781250 0.875000 -1.353165
v 1.353165 0.875000 -0.781250
v 0.000000 0.875000 -1.562500
v 1.562500 0.875000 -0.000000
v 1.353165 0.875000 0.781250
v 0.781250 0.875000 1.353165
v 0.000000 0.875000 1.562500
v -0.781250 0.875000 -1.353165
v -1.353165 0.875000 -0.781250
v -1.562500 0.875000 -0.000000
v -1.353165 0.875000 0.781250
v -0.781250 0.875000 1.353165
v 0.000000 -0.000000 -1.625000
v 0.812500 -0.000000 -1.407291
v 1.407291 -0.000000 -0.812500
v 1.407291 0.000000 0.812500
v 0.000000 0.000000 1.625000
v 0.812500 0.000000 1.407291
v -0.812500 0.000000 1.407291
v -1.407291 0.000000 0.812500
v -1.407291 -0.000000 -0.812500
v -0.812500 -0.000000 -1.407291
v 1.625000 0.000000 0.000000
v -1.625000 0.000000 0.000000
v -0.972272 0.968750 1.149049
v -0.353553 0.968750 0.530330
v -0.972272 0.906250 1.149049
v -0.353553 0.906250 0.530330
v -1.149049 0.968750 0.972272
v -0.530330 0.968750 0.353553
v -1.149049 0.906250 0.972272
v -0.530330 0.906250 0.353553
v 0.972272 0.968750 -1.149049
v 0.353553 0.968750 -0.530330
v 0.972272 0.906250 -1.149049
v 0.353553 0.906250 -0.530330
v 1.149049 0.968750 -0.972272
v 0.530330 0.968750 -0.353553
v 1.149049 0.906250 -0.972272
v 0.530330 0.906250 -0.353553
v 1.149049 0.968750 0.972272
v 0.530330 0.968750 0.353553
v 1.149049 0.906250 0.972272
v 0.530330 0.906250 0.353553
v 0.972272 0.968750 1.149049
v 0.353553 0.968750 0.530330
v 0.972272 0.906250 1.149049
v 0.353553 0.906250 0.530330
v 0.000000 0.875000 -0.000000
v 0.000000 1.000000 -0.000000
v 0.000000 0.875000 0.687500
v 0.000000 1.000000 0.687500
v 0.343750 0.875000 0.595392
v 0.343750 1.000000 0.595392
v 0.595393 0.875000 0.343750
v 0.595393 1.000000 0.343750
v 0.687500 0.875000 -0.000000
v 0.687500 1.000000 -0.000000
v 0.595393 0.875000 -0.343750
v 0.595393 1.000000 -0.343750
v 0.343750 0.875000 -0.595393
v 0.343750 1.000000 -0.595393
v 0.000000 0.875000 -0.687500
v 0.000000 1.000000 -0.687500
v -0.343750 0.875000 -0.595393
v -0.343750 1.000000 -0.595393
v -0.595393 0.875000 -0.343750
v -0.595393 1.000000 -0.343750
v -0.687500 0.875000 -0.000000
v -0.687500 1.000000 -0.000000
v -0.595393 0.875000 0.343750
v -0.595393 1.000000 0.343750
v -0.343750 0.875000 0.595392
v -0.343750 1.000000 0.595392
v 0.375000 2.000000 0.562500
v 0.375000 2.000000 -0.562500
v 0.375000 1.875000 0.562500
v 0.375000 1.875000 -0.562500
v -0.375000 2.000000 0.562500
v -0.375000 2.000000 -0.562500
v -0.375000 1.875000 0.562500
v -0.375000 1.875000 -0.562500
v 0.562500 2.000000 0.375000
v 0.562500 1.875000 0.375000
v 0.562500 2.000000 -0.375000
v 0.562500 1.875000 -0.375000
v -0.562500 2.000000 0.375000
v -0.562500 2.000000 -0.375000
v -0.562500 1.875000 0.375000
v -0.562500 1.875000 -0.375000
v 0.375000 1.125000 0.562500
v 0.375000 1.125000 -0.562500
v 0.375000 1.000000 0.562500
v 0.375000 1.000000 -0.562500
v -0.375000 1.125000 0.562500
v -0.375000 1.125000 -0.562500
v -0.375000 1.000000 0.562500
v -0.375000 1.000000 -0.562500
v 0.562500 1.125000 0.375000
v 0.562500 1.000000 0.375000
v 0.562500 1.125000 -0.375000
v 0.562500 1.000000 -0.375000
v -0.562500 1.125000 0.375000
v -0.562500 1.125000 -0.375000
v -0.562500 1.000000 0.375000
v -0.562500 1.000000 -0.375000
v 0.437500 1.937500 0.437500
v 0.437500 1.937500 0.312500
v 0.437500 1.125000 0.437500
v 0.437500 1.125000 0.312500
v 0.312500 1.937500 0.437500
v 0.312500 1.937500 0.312500
v 0.312500 1.125000 0.437500
v 0.312500 1.125000 0.312500
v -0.312500 1.937500 0.437500
v -0.312500 1.937500 0.312500
v -0.312500 1.125000 0.437500
v -0.312500 1.125000 0.312500
v -0.437500 1.937500 0.437500
v -0.437500 1.937500 0.312500
v -0.437500 1.125000 0.437500
v -0.437500 1.125000 0.312500
v -0.312500 1.937500 -0.312500
v -0.312500 1.937500 -0.437500
v -0.312500 1.125000 -0.312500
v -0.312500 1.125000 -0.437500
v -0.437500 1.937500 -0.312500
v -0.437500 1.937500 -0.437500
v -0.437500 1.125000 -0.312500
v -0.437500 1.125000 -0.437500
v 0.437500 1.937500 -0.312500
v 0.437500 1.937500 -0.437500
v 0.437500 1.125000 -0.312500
v 0.437500 1.125000 -0.437500
v 0.312500 1.937500 -0.312500
v 0.312500 1.937500 -0.437500
v 0.312500 1.125000 -0.312500
v 0.312500 1.125000 -0.437500
v 0.125000 1.812500 0.216506
v 0.000000 1.812500 0.250000
v -0.125000 1.812500 0.216506
v -0.216506 1.812500 0.125000
v -0.250000 1.812500 -0.000000
v -0.216506 1.812500 -0.125000
v -0.125000 1.812500 -0.216507
v 0.000000 1.812500 -0.250000
v 0.125000 1.812500 -0.216507
v 0.216506 1.812500 -0.125000
v 0.250000 1.812500 -0.000000
v 0.216506 1.812500 0.125000
v 0.000000 1.750000 -0.000000
v 0.125000 1.750000 0.216506
v 0.000000 1.750000 0.250000
v -0.125000 1.750000 0.216506
v -0.216506 1.750000 0.125000
v -0.250000 1.750000 -0.000000
v -0.216506 1.750000 -0.125000
v -0.125000 1.750000 -0.216507
v 0.000000 1.750000 -0.250000
v 0.125000 1.750000 -0.216507
v 0.216506 1.750000 -0.125000
v 0.250000 1.750000 -0.000000
v 0.216506 1.750000 0.125000
v 0.000000 1.937500 0.375000
v 0.187500 1.937500 0.324759
v 0.324759 1.937500 0.187500
v 0.375000 1.937500 -0.000000
v 0.324759 1.937500 -0.187500
v 0.187500 1.937500 -0.324760
v 0.000000 1.937500 -0.375000
v -0.187500 1.937500 -0.324760
v -0.324759 1.937500 -0.187500
v -0.375000 1.937500 -0.000000
v -0.324759 1.937500 0.187500
v -0.187500 1.937500 0.324759
v 0.187500 1.812500 0.324759
v 0.000000 1.812500 0.375000
v 0.324759 1.812500 0.187500
v 0.375000 1.812500 -0.000000
v 0.324759 1.812500 -0.187500
v 0.187500 1.812500 -0.324759
v 0.000000 1.812500 -0.375000
v -0.187500 1.812500 -0.324759
v -0.324759 1.812500 -0.187500
v -0.375000 1.812500 -0.000000
v -0.324759 1.812500 0.187500
v -0.187500 1.812500 0.324759
v -0.125000 1.250000 0.216506
v 0.000000 1.250000 0.250000
v 0.125000 1.250000 0.216506
v 0.216506 1.250000 0.125000
v 0.250000 1.250000 -0.000000
v 0.216506 1.250000 -0.125000
v 0.125000 1.250000 -0.216507
v 0.000000 1.250000 -0.250000
v -0.125000 1.250000 -0.216507
v -0.216506 1.250000 -0.125000
v -0.250000 1.250000 -0.000000
v -0.216506 1.250000 0.125000
v 0.000000 1.312500 -0.000000
v -0.125000 1.312500 0.216506
v 0.000000 1.312500 0.250000
v 0.125000 1.312500 0.216506
v 0.216506 1.312500 0.125000
v 0.250000 1.312500 -0.000000
v 0.216506 1.312500 -0.125000
v 0.125000 1.312500 -0.216507
v 0.000000 1.312500 -0.250000
v -0.125000 1.312500 -0.216507
v -0.216506 1.312500 -0.125000
v -0.250000 1.312500 -0.000000
v -0.216506 1.312500 0.125000
v 0.000000 1.125000 0.375000
v -0.187500 1.125000 0.324759
v -0.324759 1.125000 0.187500
v -0.375000 1.125000 -0.000000
v -0.324759 1.125000 -0.187500
v -0.187500 1.125000 -0.324759
v 0.000000 1.125000 -0.375000
v 0.187500 1.125000 -0.324759
v 0.324759 1.125000 -0.187500
v 0.375000 1.125000 -0.000000
v 0.324759 1.125000 0.187500
v 0.187500 1.125000 0.324759
v -0.187500 1.250000 0.324759
v 0.000000 1.250000 0.375000
v -0.324759 1.250000 0.187500
v -0.375000 1.250000 -0.000000
v -0.324759 1.250000 -0.187500
v -0.187500 1.250000 -0.324759
v 0.000000 1.250000 -0.375000
v 0.187500 1.250000 -0.324759
v 0.324759 1.250000 -0.187500
v 0.375000 1.250000 -0.000000
v 0.324759 1.250000 0.187500
v 0.187500 1.250000 0.324759
v 0.000000 1.250000 0.312500
v 0.156250 1.250000 0.270633
v 0.156250 1.812500 0.270633
v 0.000000 1.812500 0.312500
v 0.270633 1.250000 0.156250
v 0.270633 1.812500 0.156250
v 0.312500 1.250000 -0.000000
v 0.312500 1.812500 -0.000000
v 0.270633 1.250000 -0.156250
v 0.270633 1.812500 -0.156250
v 0.156250 1.250000 -0.270633
v 0.156250 1.812500 -0.270633
v 0.000000 1.250000 -0.312500
v 0.000000 1.812500 -0.312500
v -0.156250 1.250000 -0.270633
v -0.156250 1.812500 -0.270633
v -0.270633 1.250000 -0.156250
v -0.270633 1.812500 -0.156250
v -0.312500 1.250000 -0.000000
v -0.312500 1.812500 -0.000000
v -0.270633 1.250000 0.156250
v -0.270633 1.812500 0.156250
v -0.156250 1.250000 0.270633
v -0.156250 1.812500 0.270633
v -1.149049 0.968750 -0.972272
v -0.530330 0.968750 -0.353553
v -1.149049 0.906250 -0.972272
v -0.530330 0.906250 -0.353553
v -0.972272 0.968750 -1.149049
v -0.353553 0.968750 -0.530330
v -0.972272 0.906250 -1.149049
v -0.353553 0.906250 -0.530330
v 1.500000 0.937500 1.500000
v 1.500000 0.937500 -1.500000
v -1.500000 0.937500 1.500000
v -1.500000 0.937500 -1.500000
v 1.500000 0.937500 1.500000
v 1.500000 0.937500 -1.500000
v -1.500000 0.937500 1.500000
v -1.500000 0.937500 -1.500000
vn -0.0000 1.0000 -0.0000
vn -0.0000 -1.0000 -0.0000
vn 0.7071 -0.0000 -0.7071
vn 0.7071 -0.0000 0.7071
vn -0.7071 -0.0000 0.7071
vn -0.7071 -0.0000 -0.7071
vn 1.0000 -0.0000 -0.0000
vn -1.0000 -0.0000 -0.0000
vn -0.0000 -0.0000 -1.0000
vn 0.7071 0.7071 -0.0000
vn -0.0000 -0.0000 1.0000
vn -0.0000 0.7071 0.7071
vn -0.7071 0.7071 -0.0000
vn -0.0000 0.7071 -0.7071
vn -0.9659 -0.0000 -0.2588
vn -0.9659 -0.0000 0.2588
vn -0.2588 -0.0000 0.9659
vn 0.2588 -0.0000 0.9659
vn 0.9659 -0.0000 0.2588
vn 0.9659 -0.0000 -0.2588
vn 0.2588 -0.0000 -0.9659
vn -0.2588 -0.0000 -0.9659
vn 0.7061 0.0536 -0.7061
vn 0.9645 0.0536 -0.2584
vn 0.9645 0.0536 0.2584
vn 0.7061 0.0536 0.7061
vn 0.2584 0.0536 0.9645
vn -0.2584 0.0536 0.9645
vn -0.7061 0.0536 0.7061
vn -0.9645 0.0536 0.2584
vn -0.9645 0.0536 -0.2584
vn -0.7061 0.0536 -0.7061
vn -0.2584 0.0536 -0.9645
vn 0.2584 0.0536 -0.9645
vt 0.147059 0.642857
vt 0.235294 0.642857
vt 0.191176 0.660714
vt 0.235294 0.785714
vt 0.224265 0.714286
vt 0.224265 0.857143
vt 0.235294 0.928571
vt 0.147059 0.928571
vt 0.191176 0.910714
vt 0.102941 0.910714
vt 0.058824 0.928571
vt 0.058824 0.785714
vt 0.069853 0.857143
vt 0.058824 0.642857
vt 0.069853 0.714286
vt 0.102941 0.660714
vt 0.279412 0.928571
vt 0.235294 1.000000
vt 0.235294 0.095238
vt 0.235294 0.023810
vt 0.279412 0.095238
vt 0.544118 0.571429
vt 0.500000 0.571429
vt 0.500000 0.476190
vt 0.544118 0.476190
vt 0.235294 0.571429
vt 0.279412 0.642857
vt 0.235294 0.380952
vt 0.279412 0.380952
vt 0.235294 0.452381
vt 0.294118 0.571429
vt 0.250000 0.571429
vt 0.250000 0.476190
vt 0.294118 0.476190
vt 0.014706 0.642857
vt 0.058824 0.571429
vt 0.058824 0.380952
vt 0.058824 0.452381
vt 0.014706 0.380952
vt 0.044118 0.571429
vt 0.000000 0.571429
vt 0.000000 0.476190
vt 0.044118 0.476190
vt 0.058824 1.000000
vt 0.014706 0.928571
vt 0.058824 0.095238
vt 0.014706 0.095238
vt 0.058824 0.023810
vt 0.794118 0.571429
vt 0.750000 0.571429
vt 0.750000 0.476190
vt 0.794118 0.476190
vt 0.485294 0.547619
vt 0.308824 0.547619
vt 0.308824 0.476190
vt 0.485294 0.476190
vt 0.985294 0.476190
vt 0.985294 0.547619
vt 0.808824 0.547619
vt 0.808824 0.476190
vt 0.735294 0.547619
vt 0.558824 0.547619
vt 0.558824 0.476190
vt 0.735294 0.476190
vt 0.485294 0.571429
vt 0.308824 0.571429
vt 0.294118 0.095238
vt 0.294118 0.380952
vt 0.235294 0.547619
vt 0.235294 0.476190
vt 0.058824 0.547619
vt 0.058824 0.476190
vt 1.000000 0.476190
vt 1.000000 0.571429
vt 0.985294 0.571429
vt 0.808824 0.571429
vt 0.000000 0.380952
vt 0.000000 0.095238
vt 0.735294 0.571429
vt 0.558824 0.571429
vt 0.058824 0.000000
vt 0.235294 0.000000
vt 0.860294 0.315476
vt 0.860294 0.339286
vt 0.808824 0.339286
vt 0.808824 0.315476
vt 0.757353 0.339286
vt 0.757353 0.315476
vt 0.705882 0.339286
vt 0.705882 0.315476
vt 0.654412 0.339286
vt 0.654412 0.315476
vt 0.602941 0.339286
vt 0.602941 0.315476
vt 0.551471 0.339286
vt 0.551471 0.315476
vt 0.500000 0.339286
vt 0.500000 0.315476
vt 0.448529 0.339286
vt 0.448529 0.315476
vt 0.397059 0.339286
vt 0.397059 0.315476
vt 0.345588 0.339286
vt 0.345588 0.315476
vt 0.294118 0.339286
vt 0.294118 0.315476
vt 0.911765 0.315476
vt 0.911765 0.339286
vt 0.444853 0.351190
vt 0.397059 0.351190
vt 0.496324 0.351190
vt 0.448529 0.351190
vt 0.547794 0.351190
vt 0.500000 0.351190
vt 0.599265 0.351190
vt 0.551471 0.351190
vt 0.650735 0.351190
vt 0.602941 0.351190
vt 0.702206 0.351190
vt 0.654412 0.351190
vt 0.753676 0.351190
vt 0.705882 0.351190
vt 0.805147 0.351190
vt 0.757353 0.351190
vt 0.856618 0.351190
vt 0.808824 0.351190
vt 0.908088 0.351190
vt 0.860294 0.351190
vt 0.341912 0.351190
vt 0.294118 0.351190
vt 0.393382 0.351190
vt 0.345588 0.351190
vt 0.345588 0.476190
vt 0.345588 0.464286
vt 0.389706 0.464286
vt 0.389706 0.476190
vt 0.294118 0.464286
vt 0.338235 0.464286
vt 0.338235 0.476190
vt 0.397059 0.476190
vt 0.397059 0.464286
vt 0.441176 0.464286
vt 0.441176 0.476190
vt 0.448529 0.476190
vt 0.448529 0.464286
vt 0.492647 0.464286
vt 0.492647 0.476190
vt 0.500000 0.464286
vt 0.544118 0.464286
vt 0.551471 0.476190
vt 0.551471 0.464286
vt 0.595588 0.464286
vt 0.595588 0.476190
vt 0.860294 0.476190
vt 0.860294 0.464286
vt 0.904412 0.464286
vt 0.904412 0.476190
vt 0.808824 0.464286
vt 0.852941 0.464286
vt 0.852941 0.476190
vt 0.757353 0.476190
vt 0.757353 0.464286
vt 0.801471 0.464286
vt 0.801471 0.476190
vt 0.705882 0.476190
vt 0.705882 0.464286
vt 0.750000 0.464286
vt 0.654412 0.476190
vt 0.654412 0.464286
vt 0.698529 0.464286
vt 0.698529 0.476190
vt 0.602941 0.476190
vt 0.602941 0.464286
vt 0.647059 0.464286
vt 0.647059 0.476190
vt 0.345588 0.458333
vt 0.393382 0.458333
vt 0.294118 0.458333
vt 0.341912 0.458333
vt 0.397059 0.458333
vt 0.444853 0.458333
vt 0.448529 0.458333
vt 0.496324 0.458333
vt 0.500000 0.458333
vt 0.547794 0.458333
vt 0.551471 0.458333
vt 0.599265 0.458333
vt 0.860294 0.458333
vt 0.908088 0.458333
vt 0.808824 0.458333
vt 0.856618 0.458333
vt 0.757353 0.458333
vt 0.805147 0.458333
vt 0.705882 0.458333
vt 0.753676 0.458333
vt 0.654412 0.458333
vt 0.702206 0.458333
vt 0.602941 0.458333
vt 0.650735 0.458333
vt 0.051471 0.238095
vt 0.062500 0.160714
vt 0.062500 0.315476
vt 0.147059 0.392857
vt 0.099265 0.375000
vt 0.194853 0.375000
vt 0.242647 0.238095
vt 0.231618 0.315476
vt 0.231618 0.160714
vt 0.147059 0.083333
vt 0.194853 0.101190
vt 0.099265 0.101190
vt 0.330882 0.976190
vt 0.279412 0.976190
vt 0.279412 0.970238
vt 0.330882 0.970238
vt 0.279412 0.946429
vt 0.279412 0.940476
vt 0.330882 0.940476
vt 0.330882 0.946429
vt 0.279412 1.000000
vt 0.330882 1.000000
vt 0.330882 0.857143
vt 0.279412 0.857143
vt 0.279412 0.851190
vt 0.330882 0.851190
vt 0.279412 0.827381
vt 0.279412 0.821429
vt 0.330882 0.821429
vt 0.330882 0.827381
vt 0.279412 0.880952
vt 0.330882 0.880952
vt 0.330882 0.916667
vt 0.279412 0.916667
vt 0.279412 0.910714
vt 0.330882 0.910714
vt 0.279412 0.886905
vt 0.330882 0.886905
vt 0.678309 0.723058
vt 0.658088 0.714286
vt 0.658088 0.779762
vt 0.536765 0.702381
vt 0.558824 0.702381
vt 0.558824 0.714286
vt 0.536765 0.714286
vt 0.577206 0.714286
vt 0.597426 0.723058
vt 0.577206 0.779762
vt 0.693111 0.747024
vt 0.580882 0.702381
vt 0.580882 0.714286
vt 0.612229 0.747024
vt 0.698529 0.779762
vt 0.602941 0.702381
vt 0.602941 0.714286
vt 0.693111 0.812500
vt 0.625000 0.702381
vt 0.625000 0.714286
vt 0.678309 0.836466
vt 0.647059 0.702381
vt 0.647059 0.714286
vt 0.658088 0.845238
vt 0.669118 0.702381
vt 0.669118 0.714286
vt 0.597426 0.836466
vt 0.577206 0.845238
vt 0.637868 0.836466
vt 0.691176 0.702381
vt 0.691176 0.714286
vt 0.556985 0.836466
vt 0.623065 0.812500
vt 0.713235 0.702381
vt 0.713235 0.714286
vt 0.542183 0.812500
vt 0.617647 0.779762
vt 0.735294 0.702381
vt 0.735294 0.714286
vt 0.536765 0.779762
vt 0.623065 0.747024
vt 0.757353 0.702381
vt 0.757353 0.714286
vt 0.542183 0.747024
vt 0.637868 0.723058
vt 0.779412 0.702381
vt 0.779412 0.714286
vt 0.556985 0.723058
vt 0.801471 0.702381
vt 0.801471 0.714286
vt 0.612229 0.812500
vt 0.389706 0.583333
vt 0.345588 0.583333
vt 0.345588 0.571429
vt 0.389706 0.571429
vt 0.500000 0.583333
vt 0.455882 0.583333
vt 0.455882 0.571429
vt 0.290441 0.583333
vt 0.334559 0.583333
vt 0.334559 0.690476
vt 0.290441 0.690476
vt 0.334559 0.571429
vt 0.290441 0.571429
vt 0.444853 0.583333
vt 0.400735 0.583333
vt 0.400735 0.571429
vt 0.444853 0.571429
vt 0.345588 0.601190
vt 0.345588 0.672619
vt 0.279412 0.583333
vt 0.279412 0.571429
vt 0.279412 0.672619
vt 0.279412 0.601190
vt 0.610294 0.583333
vt 0.566176 0.583333
vt 0.566176 0.571429
vt 0.610294 0.571429
vt 0.720588 0.571429
vt 0.720588 0.583333
vt 0.676471 0.583333
vt 0.676471 0.571429
vt 0.511029 0.583333
vt 0.555147 0.583333
vt 0.555147 0.690476
vt 0.511029 0.690476
vt 0.555147 0.571429
vt 0.511029 0.571429
vt 0.665441 0.583333
vt 0.621324 0.583333
vt 0.621324 0.571429
vt 0.665441 0.571429
vt 0.566176 0.601190
vt 0.566176 0.672619
vt 0.500000 0.672619
vt 0.500000 0.601190
vt 0.345588 0.785714
vt 0.338235 0.785714
vt 0.338235 0.714286
vt 0.345588 0.714286
vt 0.360294 0.714286
vt 0.360294 0.785714
vt 0.352941 0.785714
vt 0.352941 0.714286
vt 0.330882 0.785714
vt 0.330882 0.714286
vt 0.345588 0.857143
vt 0.338235 0.857143
vt 0.360294 0.857143
vt 0.352941 0.857143
vt 0.345588 0.928571
vt 0.338235 0.928571
vt 0.360294 0.928571
vt 0.352941 0.928571
vt 0.330882 0.928571
vt 0.345588 1.000000
vt 0.338235 1.000000
vt 0.360294 1.000000
vt 0.352941 1.000000
vt 0.551471 0.928571
vt 0.551471 0.952381
vt 0.558824 0.949191
vt 0.544118 0.949191
vt 0.538735 0.940476
vt 0.536765 0.928571
vt 0.538735 0.916667
vt 0.544118 0.907952
vt 0.551471 0.904762
vt 0.558824 0.907952
vt 0.564206 0.916667
vt 0.566176 0.928571
vt 0.564206 0.940476
vt 0.536765 0.875000
vt 0.544118 0.875000
vt 0.544118 0.880952
vt 0.536765 0.880952
vt 0.658088 0.875000
vt 0.665441 0.875000
vt 0.665441 0.880952
vt 0.658088 0.880952
vt 0.647059 0.875000
vt 0.654412 0.875000
vt 0.654412 0.880952
vt 0.647059 0.880952
vt 0.636029 0.875000
vt 0.643382 0.875000
vt 0.643382 0.880952
vt 0.636029 0.880952
vt 0.613971 0.875000
vt 0.621324 0.875000
vt 0.621324 0.880952
vt 0.613971 0.880952
vt 0.625000 0.875000
vt 0.632353 0.875000
vt 0.632353 0.880952
vt 0.625000 0.880952
vt 0.602941 0.875000
vt 0.610294 0.875000
vt 0.610294 0.880952
vt 0.602941 0.880952
vt 0.591912 0.875000
vt 0.599265 0.875000
vt 0.599265 0.880952
vt 0.591912 0.880952
vt 0.580882 0.875000
vt 0.588235 0.875000
vt 0.588235 0.880952
vt 0.580882 0.880952
vt 0.569853 0.875000
vt 0.577206 0.875000
vt 0.577206 0.880952
vt 0.569853 0.880952
vt 0.558824 0.875000
vt 0.566176 0.875000
vt 0.566176 0.880952
vt 0.558824 0.880952
vt 0.547794 0.875000
vt 0.555147 0.875000
vt 0.555147 0.880952
vt 0.547794 0.880952
vt 0.536765 0.892857
vt 0.547794 0.892857
vt 0.547794 0.904762
vt 0.536765 0.904762
vt 0.558824 0.892857
vt 0.558824 0.904762
vt 0.569853 0.892857
vt 0.569853 0.904762
vt 0.580882 0.892857
vt 0.580882 0.904762
vt 0.591912 0.892857
vt 0.591912 0.904762
vt 0.602941 0.892857
vt 0.602941 0.904762
vt 0.613971 0.892857
vt 0.613971 0.904762
vt 0.625000 0.892857
vt 0.625000 0.904762
vt 0.636029 0.892857
vt 0.636029 0.904762
vt 0.647059 0.892857
vt 0.647059 0.904762
vt 0.658088 0.892857
vt 0.658088 0.904762
vt 0.669118 0.892857
vt 0.669118 0.904762
vt 0.580882 0.928571
vt 0.580882 0.952381
vt 0.573529 0.949191
vt 0.588235 0.949191
vt 0.593618 0.940476
vt 0.595588 0.928571
vt 0.593618 0.916667
vt 0.588235 0.907952
vt 0.573529 0.907952
vt 0.568147 0.916667
vt 0.568147 0.940476
vt 0.658088 0.869048
vt 0.665441 0.869048
vt 0.536765 0.869048
vt 0.544118 0.869048
vt 0.547794 0.869048
vt 0.555147 0.869048
vt 0.558824 0.869048
vt 0.566176 0.869048
vt 0.580882 0.869048
vt 0.588235 0.869048
vt 0.569853 0.869048
vt 0.577206 0.869048
vt 0.591912 0.869048
vt 0.599265 0.869048
vt 0.602941 0.869048
vt 0.610294 0.869048
vt 0.613971 0.869048
vt 0.621324 0.869048
vt 0.625000 0.869048
vt 0.632353 0.869048
vt 0.636029 0.869048
vt 0.643382 0.869048
vt 0.647059 0.869048
vt 0.654412 0.869048
vt 0.669118 0.857143
vt 0.658088 0.857143
vt 0.669118 0.845238
vt 0.647059 0.857143
vt 0.647059 0.845238
vt 0.636029 0.857143
vt 0.636029 0.845238
vt 0.625000 0.857143
vt 0.625000 0.845238
vt 0.613971 0.857143
vt 0.613971 0.845238
vt 0.602941 0.857143
vt 0.602941 0.845238
vt 0.591912 0.857143
vt 0.591912 0.845238
vt 0.580882 0.857143
vt 0.580882 0.845238
vt 0.569853 0.857143
vt 0.569853 0.845238
vt 0.558824 0.857143
vt 0.558824 0.845238
vt 0.547794 0.857143
vt 0.547794 0.845238
vt 0.536765 0.857143
vt 0.536765 0.845238
vt 0.547794 1.000000
vt 0.536765 1.000000
vt 0.536765 0.952381
vt 0.547794 0.952381
vt 0.669118 1.000000
vt 0.658088 1.000000
vt 0.658088 0.952381
vt 0.669118 0.952381
vt 0.647059 1.000000
vt 0.647059 0.952381
vt 0.636029 1.000000
vt 0.636029 0.952381
vt 0.625000 1.000000
vt 0.625000 0.952381
vt 0.613971 1.000000
vt 0.613971 0.952381
vt 0.602941 1.000000
vt 0.602941 0.952381
vt 0.591912 1.000000
vt 0.591912 0.952381
vt 0.580882 1.000000
vt 0.569853 1.000000
vt 0.569853 0.952381
vt 0.558824 1.000000
vt 0.558824 0.952381
vt 0.330882 0.797619
vt 0.279412 0.797619
vt 0.279412 0.791667
vt 0.330882 0.791667
vt 0.279412 0.767857
vt 0.279412 0.761905
vt 0.330882 0.761905
vt 0.330882 0.767857
vt 0.400735 0.690476
vt 0.356618 0.690476
vt 0.356618 0.583333
vt 0.411765 0.601190
vt 0.411765 0.672619
s 1
f 5/1/1 6/2/1 7/3/1
f 8/4/1 9/5/1 6/2/1
f 9/5/1 7/3/1 6/2/1
f 10/6/1 8/4/1 11/7/1
f 12/8/1 13/9/1 11/7/1
f 14/10/1 12/8/1 15/11/1
f 15/11/1 16/12/1 17/13/1
f 16/12/1 18/14/1 19/15/1
f 18/14/1 5/1/1 20/16/1
f 20/16/1 19/15/1 18/14/1
f 17/13/1 14/10/1 15/11/1
f 11/7/1 13/9/1 10/6/1
f 11/7/1 21/17/1 22/18/1
f 1/19/2 23/20/2 24/21/2
f 22/22/3 21/23/3 24/24/3
f 22/22/3 24/24/3 23/25/3
f 6/2/1 25/26/1 26/27/1
f 2/28/2 27/29/2 28/30/2
f 26/31/4 25/32/4 28/33/4
f 26/31/4 28/33/4 27/34/4
f 18/14/1 29/35/1 30/36/1
f 3/37/2 31/38/2 32/39/2
f 30/40/5 29/41/5 32/42/5
f 30/40/5 32/42/5 31/43/5
f 15/11/1 33/44/1 34/45/1
f 4/46/2 35/47/2 36/48/2
f 34/49/6 33/50/6 36/51/6
f 34/49/6 36/51/6 35/52/6
f 37/53/7 38/54/7 39/55/7
f 37/53/7 39/55/7 40/56/7
f 41/57/8 42/58/8 43/59/8
f 41/57/8 43/59/8 44/60/8
f 49/61/9 50/62/9 51/63/9
f 49/61/9 51/63/9 52/64/9
f 29/35/1 18/14/1 34/45/1
f 34/45/1 18/14/1 16/12/1
f 34/45/1 16/12/1 15/11/1
f 21/17/1 11/7/1 26/27/1
f 26/27/1 11/7/1 8/4/1
f 26/27/1 8/4/1 6/2/1
f 15/11/1 22/18/1 33/44/1
f 22/18/1 15/11/1 12/8/1
f 22/18/1 12/8/1 11/7/1
f 6/2/1 30/36/1 25/26/1
f 5/1/1 18/14/1 30/36/1
f 5/1/1 30/36/1 6/2/1
f 38/54/10 37/53/10 21/65/10
f 38/54/10 21/65/10 26/66/10
f 39/55/11 38/54/11 26/31/11
f 39/55/11 26/31/11 27/34/11
f 40/67/2 39/68/2 27/29/2
f 40/67/2 27/29/2 24/21/2
f 37/53/9 40/56/9 24/24/9
f 37/53/9 24/24/9 21/23/9
f 46/69/7 45/70/7 28/33/7
f 46/69/7 28/33/7 25/32/7
f 47/71/12 46/69/12 25/26/12
f 47/71/12 25/26/12 30/36/12
f 48/72/8 47/71/8 30/40/8
f 48/72/8 30/40/8 31/43/8
f 45/70/2 48/72/2 31/38/2
f 45/70/2 31/38/2 28/30/2
f 42/58/11 41/57/11 32/73/11
f 42/58/11 32/73/11 29/74/11
f 43/59/13 42/58/13 29/75/13
f 43/59/13 29/75/13 34/76/13
f 44/60/9 43/59/9 34/49/9
f 44/60/9 34/49/9 35/52/9
f 41/77/2 44/78/2 35/47/2
f 41/77/2 35/47/2 32/39/2
f 50/62/14 49/61/14 33/79/14
f 50/62/14 33/79/14 22/80/14
f 51/63/7 50/62/7 22/22/7
f 51/63/7 22/22/7 23/25/7
f 52/81/2 51/82/2 23/20/2
f 52/81/2 23/20/2 36/48/2
f 49/61/8 52/64/8 36/51/8
f 49/61/8 36/51/8 33/50/8
f 110/83/6 74/84/6 73/85/6
f 110/83/6 73/85/6 109/86/6
f 109/86/15 73/85/15 72/87/15
f 109/86/15 72/87/15 112/88/15
f 112/88/16 72/87/16 71/89/16
f 112/88/16 71/89/16 108/90/16
f 108/90/5 71/89/5 70/91/5
f 108/90/5 70/91/5 107/92/5
f 107/92/17 70/91/17 69/93/17
f 107/92/17 69/93/17 105/94/17
f 105/94/18 69/93/18 68/95/18
f 105/94/18 68/95/18 106/96/18
f 106/96/4 68/95/4 67/97/4
f 106/96/4 67/97/4 104/98/4
f 104/98/19 67/97/19 65/99/19
f 104/98/19 65/99/19 111/100/19
f 111/100/20 65/99/20 66/101/20
f 111/100/20 66/101/20 103/102/20
f 103/102/3 66/101/3 76/103/3
f 103/102/3 76/103/3 102/104/3
f 102/104/21 76/103/21 75/105/21
f 102/104/21 75/105/21 101/106/21
f 101/107/22 75/108/22 74/84/22
f 101/107/22 74/84/22 110/83/22
f 66/101/2 65/99/2 61/109/2
f 66/101/2 61/109/2 62/110/2
f 65/99/2 67/97/2 60/111/2
f 65/99/2 60/111/2 61/112/2
f 67/97/2 68/95/2 59/113/2
f 67/97/2 59/113/2 60/114/2
f 68/95/2 69/93/2 58/115/2
f 68/95/2 58/115/2 59/116/2
f 69/93/2 70/91/2 57/117/2
f 69/93/2 57/117/2 58/118/2
f 70/91/2 71/89/2 56/119/2
f 70/91/2 56/119/2 57/120/2
f 71/89/2 72/87/2 55/121/2
f 71/89/2 55/121/2 56/122/2
f 72/87/2 73/85/2 54/123/2
f 72/87/2 54/123/2 55/124/2
f 73/85/2 74/84/2 53/125/2
f 73/85/2 53/125/2 54/126/2
f 74/84/2 75/108/2 64/127/2
f 74/84/2 64/127/2 53/128/2
f 75/105/2 76/103/2 63/129/2
f 75/105/2 63/129/2 64/130/2
f 76/103/2 66/101/2 62/131/2
f 76/103/2 62/131/2 63/132/2
f 13/133/5 77/134/5 78/135/5
f 13/133/5 78/135/5 10/136/5
f 12/34/17 79/137/17 77/138/17
f 12/34/17 77/138/17 13/139/17
f 10/140/16 78/141/16 80/142/16
f 10/140/16 80/142/16 8/143/16
f 8/144/15 80/145/15 81/146/15
f 8/144/15 81/146/15 9/147/15
f 9/24/6 81/148/6 82/149/6
f 9/24/6 82/149/6 7/25/6
f 7/150/22 82/151/22 83/152/22
f 7/150/22 83/152/22 5/153/22
f 14/154/18 84/155/18 79/156/18
f 14/154/18 79/156/18 12/157/18
f 17/60/4 85/158/4 84/159/4
f 17/60/4 84/159/4 14/160/4
f 16/161/19 86/162/19 85/163/19
f 16/161/19 85/163/19 17/164/19
f 19/165/20 87/166/20 86/167/20
f 19/165/20 86/167/20 16/51/20
f 20/168/3 88/169/3 87/170/3
f 20/168/3 87/170/3 19/171/3
f 5/172/21 83/173/21 88/174/21
f 5/172/21 88/174/21 20/175/21
f 77/134/2 89/176/2 90/177/2
f 77/134/2 90/177/2 78/135/2
f 79/137/2 91/178/2 89/179/2
f 79/137/2 89/179/2 77/138/2
f 78/141/2 90/180/2 92/181/2
f 78/141/2 92/181/2 80/142/2
f 80/145/2 92/182/2 93/183/2
f 80/145/2 93/183/2 81/146/2
f 81/148/2 93/184/2 94/185/2
f 81/148/2 94/185/2 82/149/2
f 82/151/2 94/186/2 95/187/2
f 82/151/2 95/187/2 83/152/2
f 84/155/2 96/188/2 91/189/2
f 84/155/2 91/189/2 79/156/2
f 85/158/2 97/190/2 96/191/2
f 85/158/2 96/191/2 84/159/2
f 86/162/2 98/192/2 97/193/2
f 86/162/2 97/193/2 85/163/2
f 87/166/2 99/194/2 98/195/2
f 87/166/2 98/195/2 86/167/2
f 88/169/2 100/196/2 99/197/2
f 88/169/2 99/197/2 87/170/2
f 83/173/2 95/198/2 100/199/2
f 83/173/2 100/199/2 88/174/2
f 45/70/11 46/69/11 47/71/11
f 45/70/11 47/71/11 48/72/11
f 112/200/2 35/47/2 4/46/2
f 112/200/2 4/46/2 109/201/2
f 108/202/2 3/37/2 32/39/2
f 108/202/2 32/39/2 112/200/2
f 105/203/2 31/38/2 3/37/2
f 105/203/2 3/37/2 107/204/2
f 106/205/2 2/28/2 28/30/2
f 106/205/2 28/30/2 105/203/2
f 111/206/2 27/29/2 2/28/2
f 111/206/2 2/28/2 104/207/2
f 103/208/2 1/19/2 24/21/2
f 103/208/2 24/21/2 111/206/2
f 101/209/2 23/20/2 1/19/2
f 101/209/2 1/19/2 102/210/2
f 110/211/2 4/46/2 36/48/2
f 110/211/2 36/48/2 101/209/2
f 4/46/2 110/211/2 109/201/2
f 32/39/2 35/47/2 112/200/2
f 36/48/2 23/20/2 101/209/2
f 3/37/2 108/202/2 107/204/2
f 28/30/2 31/38/2 105/203/2
f 2/28/2 106/205/2 104/207/2
f 24/21/2 27/29/2 111/206/2
f 1/19/2 103/208/2 102/210/2
f 56/119/23 99/197/23 100/196/23
f 56/119/23 100/196/23 57/120/23
f 55/121/24 98/195/24 99/194/24
f 55/121/24 99/194/24 56/122/24
f 54/123/25 97/193/25 98/192/25
f 54/123/25 98/192/25 55/124/25
f 53/125/26 96/191/26 97/190/26
f 53/125/26 97/190/26 54/126/26
f 64/127/27 91/189/27 96/188/27
f 64/127/27 96/188/27 53/128/27
f 63/129/28 89/179/28 91/178/28
f 63/129/28 91/178/28 64/130/28
f 62/131/29 90/177/29 89/176/29
f 62/131/29 89/176/29 63/132/29
f 61/109/30 92/181/30 90/180/30
f 61/109/30 90/180/30 62/110/30
f 60/111/31 93/183/31 92/182/31
f 60/111/31 92/182/31 61/112/31
f 59/113/32 94/185/32 93/184/32
f 59/113/32 93/184/32 60/114/32
f 58/115/33 95/187/33 94/186/33
f 58/115/33 94/186/33 59/116/33
f 57/117/34 100/199/34 95/198/34
f 57/117/34 95/198/34 58/118/34
f 114/212/4 113/213/4 115/214/4
f 114/212/4 115/214/4 116/215/4
f 119/216/6 117/217/6 118/218/6
f 119/216/6 118/218/6 120/219/6
f 117/220/1 113/213/1 114/212/1
f 117/220/1 114/212/1 118/221/1
f 116/215/2 115/214/2 119/216/2
f 116/215/2 119/216/2 120/219/2
f 122/222/6 121/223/6 123/224/6
f 122/222/6 123/224/6 124/225/6
f 127/226/4 125/227/4 126/228/4
f 127/226/4 126/228/4 128/229/4
f 125/230/1 121/223/1 122/222/1
f 125/230/1 122/222/1 126/231/1
f 124/225/2 123/224/2 127/226/2
f 124/225/2 127/226/2 128/229/2
f 130/232/3 129/233/3 131/234/3
f 130/232/3 131/234/3 132/235/3
f 135/236/5 133/230/5 134/231/5
f 135/236/5 134/231/5 136/237/5
f 133/217/1 129/233/1 130/232/1
f 133/217/1 130/232/1 134/218/1
f 132/235/2 131/234/2 135/236/2
f 132/235/2 135/236/2 136/237/2
f 141/238/2 139/239/2 137/240/2
f 139/241/18 141/242/18 142/243/18
f 139/241/18 142/243/18 140/244/18
f 140/245/1 142/246/1 138/247/1
f 143/248/2 141/238/2 137/240/2
f 141/242/4 143/249/4 144/250/4
f 141/242/4 144/250/4 142/243/4
f 142/246/1 144/251/1 138/247/1
f 145/252/2 143/248/2 137/240/2
f 143/249/19 145/253/19 146/254/19
f 143/249/19 146/254/19 144/250/19
f 147/255/2 145/252/2 137/240/2
f 145/253/20 147/256/20 148/257/20
f 145/253/20 148/257/20 146/254/20
f 149/258/2 147/255/2 137/240/2
f 147/256/3 149/259/3 150/260/3
f 147/256/3 150/260/3 148/257/3
f 151/261/2 149/258/2 137/240/2
f 149/259/21 151/262/21 152/263/21
f 149/259/21 152/263/21 150/260/21
f 150/264/1 152/265/1 138/247/1
f 153/266/2 151/261/2 137/240/2
f 151/262/22 153/267/22 154/268/22
f 151/262/22 154/268/22 152/263/22
f 152/265/1 154/269/1 138/247/1
f 155/270/2 153/266/2 137/240/2
f 153/267/6 155/271/6 156/272/6
f 153/267/6 156/272/6 154/268/6
f 154/269/1 156/273/1 138/247/1
f 157/274/2 155/270/2 137/240/2
f 155/271/15 157/275/15 158/276/15
f 155/271/15 158/276/15 156/272/15
f 156/273/1 158/277/1 138/247/1
f 159/278/2 157/274/2 137/240/2
f 157/275/16 159/279/16 160/280/16
f 157/275/16 160/280/16 158/276/16
f 158/277/1 160/281/1 138/247/1
f 161/282/2 159/278/2 137/240/2
f 159/279/5 161/283/5 162/284/5
f 159/279/5 162/284/5 160/280/5
f 160/281/1 162/285/1 138/247/1
f 139/239/2 161/282/2 137/240/2
f 161/283/17 139/286/17 140/287/17
f 161/283/17 140/287/17 162/284/17
f 162/285/1 140/245/1 138/247/1
f 148/288/1 150/264/1 138/247/1
f 144/251/1 146/274/1 138/247/1
f 146/274/1 148/288/1 138/247/1
f 173/289/7 171/290/7 172/291/7
f 173/289/7 172/291/7 174/292/7
f 177/23/8 175/293/8 176/294/8
f 177/23/8 176/294/8 178/295/8
f 167/296/1 163/297/1 164/298/1
f 167/296/1 164/298/1 168/299/1
f 165/300/11 163/297/11 167/296/11
f 165/300/11 167/296/11 169/301/11
f 168/302/9 164/303/9 166/304/9
f 168/302/9 166/304/9 170/305/9
f 171/306/1 173/307/1 164/298/1
f 171/306/1 164/298/1 163/297/1
f 172/291/4 171/290/4 163/297/4
f 172/291/4 163/297/4 165/300/4
f 173/289/3 174/292/3 166/304/3
f 173/289/3 166/304/3 164/303/3
f 175/308/5 177/309/5 169/301/5
f 175/308/5 169/301/5 167/296/5
f 176/310/1 175/311/1 167/296/1
f 176/310/1 167/296/1 168/299/1
f 178/295/6 176/294/6 168/302/6
f 178/295/6 168/302/6 170/305/6
f 189/312/7 187/313/7 188/314/7
f 189/312/7 188/314/7 190/315/7
f 193/316/8 191/317/8 192/318/8
f 193/316/8 192/318/8 194/319/8
f 183/320/1 179/321/1 180/322/1
f 183/320/1 180/322/1 184/323/1
f 181/324/11 179/321/11 183/320/11
f 181/324/11 183/320/11 185/325/11
f 184/326/9 180/327/9 182/328/9
f 184/326/9 182/328/9 186/329/9
f 187/330/1 189/331/1 180/322/1
f 187/330/1 180/322/1 179/321/1
f 188/314/4 187/313/4 179/321/4
f 188/314/4 179/321/4 181/324/4
f 189/312/3 190/315/3 182/328/3
f 189/312/3 182/328/3 180/327/3
f 191/293/5 193/23/5 185/325/5
f 191/293/5 185/325/5 183/320/5
f 192/332/1 191/333/1 183/320/1
f 192/332/1 183/320/1 184/323/1
f 194/319/6 192/318/6 184/326/6
f 194/319/6 184/326/6 186/329/6
f 196/334/7 195/335/7 197/336/7
f 196/334/7 197/336/7 198/337/7
f 201/338/8 199/339/8 200/340/8
f 201/338/8 200/340/8 202/341/8
f 197/336/11 195/335/11 199/342/11
f 197/336/11 199/342/11 201/343/11
f 200/340/9 196/334/9 198/337/9
f 200/340/9 198/337/9 202/341/9
f 204/344/7 203/345/7 205/335/7
f 204/344/7 205/335/7 206/334/7
f 209/339/8 207/346/8 208/347/8
f 209/339/8 208/347/8 210/340/8
f 205/335/11 203/345/11 207/222/11
f 205/335/11 207/222/11 209/342/11
f 208/347/9 204/344/9 206/334/9
f 208/347/9 206/334/9 210/340/9
f 212/348/7 211/349/7 213/345/7
f 212/348/7 213/345/7 214/344/7
f 217/346/8 215/350/8 216/351/8
f 217/346/8 216/351/8 218/347/8
f 213/345/11 211/349/11 215/352/11
f 213/345/11 215/352/11 217/222/11
f 216/351/9 212/348/9 214/344/9
f 216/351/9 214/344/9 218/347/9
f 220/353/7 219/354/7 221/349/7
f 220/353/7 221/349/7 222/348/7
f 225/350/8 223/355/8 224/356/8
f 225/350/8 224/356/8 226/351/8
f 221/349/11 219/354/11 223/221/11
f 221/349/11 223/221/11 225/352/11
f 224/356/9 220/353/9 222/348/9
f 224/356/9 222/348/9 226/351/9
f 239/357/2 247/358/2 248/359/2
f 239/357/2 246/360/2 247/358/2
f 239/357/2 245/361/2 246/360/2
f 239/357/2 244/362/2 245/361/2
f 239/357/2 243/363/2 244/362/2
f 239/357/2 242/364/2 243/363/2
f 239/357/2 241/365/2 242/364/2
f 239/357/2 240/366/2 241/365/2
f 239/357/2 251/367/2 240/366/2
f 239/357/2 250/368/2 251/367/2
f 239/357/2 249/369/2 250/368/2
f 239/357/2 248/359/2 249/369/2
f 241/370/18 240/371/18 227/372/18
f 241/370/18 227/372/18 228/373/18
f 242/374/17 241/375/17 228/376/17
f 242/374/17 228/376/17 229/377/17
f 243/378/5 242/379/5 229/380/5
f 243/378/5 229/380/5 230/381/5
f 244/382/16 243/383/16 230/384/16
f 244/382/16 230/384/16 231/385/16
f 246/386/6 245/387/6 232/388/6
f 246/386/6 232/388/6 233/389/6
f 245/390/15 244/391/15 231/392/15
f 245/390/15 231/392/15 232/393/15
f 247/394/22 246/395/22 233/396/22
f 247/394/22 233/396/22 234/397/22
f 248/398/21 247/399/21 234/400/21
f 248/398/21 234/400/21 235/401/21
f 249/402/3 248/403/3 235/404/3
f 249/402/3 235/404/3 236/405/3
f 250/406/20 249/407/20 236/408/20
f 250/406/20 236/408/20 237/409/20
f 251/410/19 250/411/19 237/412/19
f 251/410/19 237/412/19 238/413/19
f 240/414/4 251/415/4 238/416/4
f 240/414/4 238/416/4 227/417/4
f 265/418/18 264/419/18 253/420/18
f 265/418/18 253/420/18 252/421/18
f 264/419/4 266/422/4 254/423/4
f 264/419/4 254/423/4 253/420/4
f 266/422/19 267/424/19 255/425/19
f 266/422/19 255/425/19 254/423/19
f 267/424/20 268/426/20 256/427/20
f 267/424/20 256/427/20 255/425/20
f 268/426/3 269/428/3 257/429/3
f 268/426/3 257/429/3 256/427/3
f 269/428/21 270/430/21 258/431/21
f 269/428/21 258/431/21 257/429/21
f 270/430/22 271/432/22 259/433/22
f 270/430/22 259/433/22 258/431/22
f 271/432/6 272/434/6 260/435/6
f 271/432/6 260/435/6 259/433/6
f 272/434/15 273/436/15 261/437/15
f 272/434/15 261/437/15 260/435/15
f 273/436/16 274/438/16 262/439/16
f 273/436/16 262/439/16 261/437/16
f 274/438/5 275/440/5 263/441/5
f 274/438/5 263/441/5 262/439/5
f 275/440/17 265/442/17 252/443/17
f 275/440/17 252/443/17 263/441/17
f 264/419/2 265/418/2 228/373/2
f 264/419/2 228/373/2 227/372/2
f 266/422/2 264/419/2 227/417/2
f 266/422/2 227/417/2 238/416/2
f 267/424/2 266/422/2 238/413/2
f 267/424/2 238/413/2 237/412/2
f 268/426/2 267/424/2 237/409/2
f 268/426/2 237/409/2 236/408/2
f 269/428/2 268/426/2 236/405/2
f 269/428/2 236/405/2 235/404/2
f 270/430/2 269/428/2 235/401/2
f 270/430/2 235/401/2 234/400/2
f 271/432/2 270/430/2 234/397/2
f 271/432/2 234/397/2 233/396/2
f 272/434/2 271/432/2 233/389/2
f 272/434/2 233/389/2 232/388/2
f 273/436/2 272/434/2 232/393/2
f 273/436/2 232/393/2 231/392/2
f 274/438/2 273/436/2 231/385/2
f 274/438/2 231/385/2 230/384/2
f 275/440/2 274/438/2 230/381/2
f 275/440/2 230/381/2 229/380/2
f 265/442/2 275/440/2 229/377/2
f 265/442/2 229/377/2 228/376/2
f 288/444/1 296/445/1 297/446/1
f 288/444/1 295/447/1 296/445/1
f 288/444/1 294/448/1 295/447/1
f 288/444/1 293/449/1 294/448/1
f 288/444/1 292/450/1 293/449/1
f 288/444/1 291/451/1 292/450/1
f 288/444/1 290/427/1 291/451/1
f 288/444/1 289/452/1 290/427/1
f 288/444/1 300/453/1 289/452/1
f 288/444/1 299/368/1 300/453/1
f 288/444/1 298/454/1 299/368/1
f 288/444/1 297/446/1 298/454/1
f 290/375/17 289/374/17 276/455/17
f 290/375/17 276/455/17 277/456/17
f 291/371/18 290/370/18 277/457/18
f 291/371/18 277/457/18 278/458/18
f 292/415/4 291/414/4 278/459/4
f 292/415/4 278/459/4 279/460/4
f 293/411/19 292/410/19 279/461/19
f 293/411/19 279/461/19 280/462/19
f 295/403/3 294/402/3 281/463/3
f 295/403/3 281/463/3 282/464/3
f 294/407/20 293/406/20 280/465/20
f 294/407/20 280/465/20 281/466/20
f 296/399/21 295/398/21 282/467/21
f 296/399/21 282/467/21 283/468/21
f 297/395/22 296/394/22 283/469/22
f 297/395/22 283/469/22 284/470/22
f 298/387/6 297/386/6 284/471/6
f 298/387/6 284/471/6 285/472/6
f 299/391/15 298/390/15 285/473/15
f 299/391/15 285/473/15 286/474/15
f 300/383/16 299/382/16 286/475/16
f 300/383/16 286/475/16 287/476/16
f 289/379/5 300/378/5 287/477/5
f 289/379/5 287/477/5 276/478/5
f 314/479/17 313/480/17 302/261/17
f 314/479/17 302/261/17 301/481/17
f 313/480/5 315/482/5 303/483/5
f 313/480/5 303/483/5 302/261/5
f 315/482/16 316/484/16 304/485/16
f 315/482/16 304/485/16 303/483/16
f 316/484/15 317/486/15 305/487/15
f 316/484/15 305/487/15 304/485/15
f 317/486/6 318/488/6 306/489/6
f 317/486/6 306/489/6 305/487/6
f 318/488/22 319/490/22 307/491/22
f 318/488/22 307/491/22 306/489/22
f 319/490/21 320/492/21 308/493/21
f 319/490/21 308/493/21 307/491/21
f 320/492/3 321/494/3 309/495/3
f 320/492/3 309/495/3 308/493/3
f 321/494/20 322/496/20 310/497/20
f 321/494/20 310/497/20 309/495/20
f 322/496/19 323/498/19 311/499/19
f 322/496/19 311/499/19 310/497/19
f 323/498/4 324/500/4 312/501/4
f 323/498/4 312/501/4 311/499/4
f 324/500/18 314/502/18 301/503/18
f 324/500/18 301/503/18 312/501/18
f 313/480/1 314/479/1 277/456/1
f 313/480/1 277/456/1 276/455/1
f 315/482/1 313/480/1 276/478/1
f 315/482/1 276/478/1 287/477/1
f 316/484/1 315/482/1 287/476/1
f 316/484/1 287/476/1 286/475/1
f 317/486/1 316/484/1 286/474/1
f 317/486/1 286/474/1 285/473/1
f 318/488/1 317/486/1 285/472/1
f 318/488/1 285/472/1 284/471/1
f 319/490/1 318/488/1 284/470/1
f 319/490/1 284/470/1 283/469/1
f 320/492/1 319/490/1 283/468/1
f 320/492/1 283/468/1 282/467/1
f 321/494/1 320/492/1 282/464/1
f 321/494/1 282/464/1 281/463/1
f 322/496/1 321/494/1 281/466/1
f 322/496/1 281/466/1 280/465/1
f 323/498/1 322/496/1 280/462/1
f 323/498/1 280/462/1 279/461/1
f 324/500/1 323/498/1 279/460/1
f 324/500/1 279/460/1 278/459/1
f 314/502/1 324/500/1 278/458/1
f 314/502/1 278/458/1 277/457/1
f 325/504/18 326/505/18 327/506/18
f 325/504/18 327/506/18 328/507/18
f 326/508/4 329/509/4 330/510/4
f 326/508/4 330/510/4 327/511/4
f 329/509/19 331/512/19 332/513/19
f 329/509/19 332/513/19 330/510/19
f 331/512/20 333/514/20 334/515/20
f 331/512/20 334/515/20 332/513/20
f 333/514/3 335/516/3 336/517/3
f 333/514/3 336/517/3 334/515/3
f 335/516/21 337/518/21 338/519/21
f 335/516/21 338/519/21 336/517/21
f 337/518/22 339/520/22 340/521/22
f 337/518/22 340/521/22 338/519/22
f 339/520/6 341/522/6 342/523/6
f 339/520/6 342/523/6 340/521/6
f 341/522/15 343/524/15 344/445/15
f 341/522/15 344/445/15 342/523/15
f 343/524/16 345/525/16 346/526/16
f 343/524/16 346/526/16 344/445/16
f 345/525/5 347/527/5 348/528/5
f 345/525/5 348/528/5 346/526/5
f 347/527/17 325/504/17 328/507/17
f 347/527/17 328/507/17 348/528/17
f 350/529/5 349/530/5 351/531/5
f 350/529/5 351/531/5 352/532/5
f 355/533/3 353/534/3 354/535/3
f 355/533/3 354/535/3 356/536/3
f 353/227/1 349/530/1 350/529/1
f 353/227/1 350/529/1 354/228/1
f 352/532/2 351/531/2 355/533/2
f 352/532/2 355/533/2 356/536/2
f 357/244/1 358/505/1 360/355/1
f 357/244/1 360/355/1 359/338/1
f 364/355/2 362/505/2 361/244/2
f 364/355/2 361/244/2 363/338/2
f 166/303/2 165/537/2 169/538/2
f 166/303/2 169/538/2 170/539/2
f 174/540/2 172/541/2 165/537/2
f 174/540/2 165/537/2 166/303/2
f 170/539/2 169/538/2 177/307/2
f 170/539/2 177/307/2 178/306/2
o Funnel
v 0.388229 -0.250000 -1.448889
v 0.097057 -0.053300 -0.362223
v -0.388229 -0.250000 -1.448889
v -0.097057 -0.053300 -0.362222
v 0.388229 -0.250000 -1.448889
v 0.097057 -0.053300 -0.362223
v -0.388229 -0.250000 -1.448889
v -0.097057 -0.053300 -0.362222
vn -0.0000 0.9840 -0.1781
vn -0.0000 -0.9840 0.1781
vt 0.323529 0.315476
vt 0.312500 0.315476
vt 0.294118 0.208333
vt 0.341912 0.208333
s 1
f 368/542/35 366/543/35 365/544/35
f 368/542/35 365/544/35 367/545/35
f 369/544/36 370/543/36 372/542/36
f 369/544/36 372/542/36 371/545/36
