# Blender 4.3.2
# www.blender.org
o Cube
v -1.500000 0.000000 1.500000
v -1.500000 1.000000 1.500000
v -1.500000 0.000000 -1.500000
v -1.500000 1.000000 -1.500000
v 1.500000 0.000000 1.500000
v 1.500000 1.000000 1.500000
v 1.500000 0.000000 -1.500000
v 1.500000 1.000000 -1.500000
v -0.562066 0.000000 -1.356948
v 0.562066 0.000000 -1.356948
v -0.000000 0.000000 -1.468750
v 1.468750 0.000000 0.000000
v 1.356948 0.000000 0.562066
v 1.356948 0.000000 -0.562066
v 1.038563 0.000000 -1.038563
v -1.468750 0.000000 0.000000
v -1.038563 0.000000 1.038563
v -1.356948 0.000000 0.562066
v -1.356948 0.000000 -0.562066
v -1.038563 0.000000 -1.038563
v -0.562066 0.000000 1.356948
v 0.562066 0.000000 1.356948
v 1.038563 0.000000 1.038563
v -0.000000 0.000000 1.468750
v -1.156250 1.000000 0.000000
v -0.817592 1.000000 0.817592
v -1.068236 1.000000 0.442478
v -1.068236 1.000000 -0.442478
v -0.817592 1.000000 -0.817592
v -0.442478 1.000000 -1.068236
v 0.442478 1.000000 -1.068236
v 0.817592 1.000000 -0.817592
v -0.000000 1.000000 -1.156250
v -0.442478 1.000000 1.068236
v 0.442478 1.000000 1.068236
v -0.000000 1.000000 1.156250
v 1.156250 1.000000 0.000000
v 1.068236 1.000000 0.442478
v 1.068236 1.000000 -0.442478
v 0.817592 1.000000 0.817592
vn -1.0000 -0.0000 -0.0000
vn -0.0000 -0.0000 -1.0000
vn 1.0000 -0.0000 -0.0000
vn -0.0000 -0.0000 1.0000
vn -0.0000 -1.0000 -0.0000
vn -0.0000 1.0000 -0.0000
vn -0.0000 -0.2983 0.9545
vn -0.3653 -0.2983 0.8818
vn -0.6749 -0.2983 0.6749
vn -0.8818 -0.2983 0.3653
vn -0.9545 -0.2983 -0.0000
vn -0.8818 -0.2983 -0.3653
vn -0.6749 -0.2983 -0.6749
vn -0.3653 -0.2983 -0.8818
vn -0.0000 -0.2983 -0.9545
vn 0.3653 -0.2983 -0.8818
vn 0.6749 -0.2983 -0.6749
vn 0.8818 -0.2983 -0.3653
vn 0.9545 -0.2983 -0.0000
vn 0.8818 -0.2983 0.3653
vn 0.6749 -0.2983 0.6749
vn 0.3653 -0.2983 0.8818
vt 0.625000 0.000000
vt 0.375000 0.250000
vt 0.375000 0.000000
vt 0.625000 0.250000
vt 0.375000 0.500000
vt 0.625000 0.500000
vt 0.375000 0.750000
vt 0.625000 0.750000
vt 0.375000 1.000000
vt 0.125000 0.750000
vt 0.125000 0.500000
vt 0.127604 0.625000
vt 0.372396 0.625000
vt 0.875000 0.500000
vt 0.875000 0.750000
vt 0.846354 0.625000
vt 0.653646 0.625000
vt 1.000000 0.541667
vt 0.937500 0.958333
vt 1.000000 0.958333
vt 0.937500 0.541667
vt 0.875000 0.958333
vt 0.875000 0.541667
vt 0.812500 0.958333
vt 0.812500 0.541667
vt 0.750000 0.958333
vt 0.687500 0.541667
vt 0.750000 0.541667
vt 0.625000 0.541667
vt 0.687500 0.958333
vt 0.562500 0.958333
vt 0.625000 0.958333
vt 0.562500 0.541667
vt 0.500000 0.958333
vt 0.437500 0.541667
vt 0.500000 0.541667
vt 0.375000 0.958333
vt 0.437500 0.958333
vt 0.375000 0.541667
vt 0.312500 0.958333
vt 0.250000 0.541667
vt 0.312500 0.541667
vt 0.187500 0.958333
vt 0.250000 0.958333
vt 0.187500 0.541667
vt 0.125000 0.958333
vt 0.062500 0.541667
vt 0.125000 0.541667
vt 0.000000 0.541667
vt 0.062500 0.958333
vt 0.625000 1.000000
vt 0.136921 0.671839
vt 0.163453 0.711547
vt 0.163453 0.538453
vt 0.136921 0.578161
vt 0.203161 0.738079
vt 0.250000 0.747396
vt 0.203161 0.511921
vt 0.250000 0.502604
vt 0.296839 0.738079
vt 0.296839 0.511921
vt 0.336547 0.711547
vt 0.363079 0.671839
vt 0.336547 0.538453
vt 0.363079 0.578161
vt 0.839020 0.588127
vt 0.818133 0.556867
vt 0.818133 0.693133
vt 0.839020 0.661873
vt 0.786873 0.714020
vt 0.786873 0.535980
vt 0.750000 0.528646
vt 0.750000 0.721354
vt 0.713127 0.535980
vt 0.713127 0.714020
vt 0.681867 0.693133
vt 0.681867 0.556867
vt 0.660980 0.588127
vt 0.660980 0.661873
vt 0.000000 0.958333
s 1
f 2/1/1 3/2/1 1/3/1
f 4/4/2 7/5/2 3/2/2
f 8/6/3 5/7/3 7/5/3
f 6/8/4 1/9/4 5/7/4
f 1/10/5 3/11/5 16/12/5
f 7/5/5 5/7/5 12/13/5
f 4/14/6 2/15/6 25/16/6
f 6/8/6 8/6/6 37/17/6
f 11/18/7 31/19/8 33/20/7
f 10/21/8 32/22/9 31/19/8
f 15/23/9 39/24/10 32/22/9
f 14/25/10 37/26/11 39/24/10
f 13/27/12 37/26/11 12/28/11
f 23/29/13 38/30/12 13/27/12
f 23/29/13 35/31/14 40/32/13
f 22/33/14 36/34/15 35/31/14
f 21/35/16 36/34/15 24/36/15
f 21/35/16 26/37/17 34/38/16
f 17/39/17 27/40/18 26/37/17
f 16/41/19 27/40/18 18/42/18
f 16/41/19 28/43/20 25/44/19
f 19/45/20 29/46/21 28/43/20
f 9/47/22 29/46/21 20/48/21
f 11/49/7 30/50/22 9/47/22
f 2/1/1 4/4/1 3/2/1
f 4/4/2 8/6/2 7/5/2
f 8/6/3 6/8/3 5/7/3
f 6/8/4 2/51/4 1/9/4
f 18/52/5 17/53/5 1/10/5
f 3/11/5 20/54/5 19/55/5
f 16/12/5 18/52/5 1/10/5
f 3/11/5 19/55/5 16/12/5
f 1/10/5 17/53/5 21/56/5
f 1/10/5 21/56/5 24/57/5
f 9/58/5 20/54/5 3/11/5
f 11/59/5 9/58/5 3/11/5
f 5/7/5 1/10/5 24/57/5
f 5/7/5 24/57/5 22/60/5
f 11/59/5 3/11/5 7/5/5
f 10/61/5 11/59/5 7/5/5
f 5/7/5 22/60/5 23/62/5
f 5/7/5 23/62/5 13/63/5
f 15/64/5 10/61/5 7/5/5
f 14/65/5 15/64/5 7/5/5
f 5/7/5 13/63/5 12/13/5
f 12/13/5 14/65/5 7/5/5
f 28/66/6 29/67/6 4/14/6
f 2/15/6 26/68/6 27/69/6
f 25/16/6 28/66/6 4/14/6
f 2/15/6 27/69/6 25/16/6
f 34/70/6 26/68/6 2/15/6
f 4/14/6 29/67/6 30/71/6
f 4/14/6 30/71/6 33/72/6
f 34/70/6 2/15/6 6/8/6
f 36/73/6 34/70/6 6/8/6
f 8/6/6 4/14/6 33/72/6
f 8/6/6 33/72/6 31/74/6
f 35/75/6 36/73/6 6/8/6
f 40/76/6 35/75/6 6/8/6
f 8/6/6 31/74/6 32/77/6
f 8/6/6 32/77/6 39/78/6
f 38/79/6 40/76/6 6/8/6
f 8/6/6 39/78/6 37/17/6
f 37/17/6 38/79/6 6/8/6
f 11/18/7 10/21/8 31/19/8
f 10/21/8 15/23/9 32/22/9
f 15/23/9 14/25/10 39/24/10
f 14/25/10 12/28/11 37/26/11
f 13/27/12 38/30/12 37/26/11
f 23/29/13 40/32/13 38/30/12
f 23/29/13 22/33/14 35/31/14
f 22/33/14 24/36/15 36/34/15
f 21/35/16 34/38/16 36/34/15
f 21/35/16 17/39/17 26/37/17
f 17/39/17 18/42/18 27/40/18
f 16/41/19 25/44/19 27/40/18
f 16/41/19 19/45/20 28/43/20
f 19/45/20 20/48/21 29/46/21
f 9/47/22 30/50/22 29/46/21
f 11/49/7 33/80/7 30/50/22
o Cube.001
v -0.375000 0.875000 0.500000
v -0.500000 0.875000 0.375000
v -0.500000 1.000000 0.375000
v -0.375000 1.000000 0.500000
v -0.500000 0.875000 -0.375000
v -0.375000 0.875000 -0.500000
v -0.375000 1.000000 -0.500000
v -0.500000 1.000000 -0.375000
v 0.500000 0.875000 0.375000
v 0.375000 0.875000 0.500000
v 0.375000 1.000000 0.500000
v 0.500000 1.000000 0.375000
v 0.375000 0.875000 -0.500000
v 0.500000 0.875000 -0.375000
v 0.500000 1.000000 -0.375000
v 0.375000 1.000000 -0.500000
v -0.375000 1.875000 0.500000
v -0.500000 1.875000 0.375000
v -0.500000 2.000000 0.375000
v -0.375000 2.000000 0.500000
v -0.500000 1.875000 -0.375000
v -0.375000 1.875000 -0.500000
v -0.375000 2.000000 -0.500000
v -0.500000 2.000000 -0.375000
v 0.500000 1.875000 0.375000
v 0.375000 1.875000 0.500000
v 0.375000 2.000000 0.500000
v 0.500000 2.000000 0.375000
v 0.375000 1.875000 -0.500000
v 0.500000 1.875000 -0.375000
v 0.500000 2.000000 -0.375000
v 0.375000 2.000000 -0.500000
v -1.207107 0.875000 1.082107
v -1.082107 0.875000 1.207107
v -1.082107 1.000000 1.207107
v -1.207107 1.000000 1.082107
v -1.207107 1.000000 -1.082107
v -1.082107 1.000000 -1.207107
v -1.082107 0.875000 -1.207107
v -1.207107 0.875000 -1.082107
v 1.082107 1.000000 -1.207107
v 1.207107 1.000000 -1.082107
v 1.207107 0.875000 -1.082107
v 1.082107 0.875000 -1.207107
v 1.207107 1.000000 1.082107
v 1.082107 1.000000 1.207107
v 1.082107 0.875000 1.207107
v 1.207107 0.875000 1.082107
vn -0.0000 -0.0000 1.0000
vn 1.0000 -0.0000 -0.0000
vn -0.0000 1.0000 -0.0000
vn -1.0000 -0.0000 -0.0000
vn -0.0000 -0.0000 -1.0000
vn 0.7071 -0.0000 -0.7071
vn -0.7071 -0.0000 -0.7071
vn -0.0000 -1.0000 -0.0000
vn -0.7071 -0.0000 0.7071
vn 0.7071 -0.0000 0.7071
vt 0.625000 0.781250
vt 0.375000 0.968750
vt 0.375000 0.781250
vt 0.625000 0.531250
vt 0.375000 0.718750
vt 0.375000 0.531250
vt 0.875000 0.531250
vt 0.843750 0.750000
vt 0.625000 0.718750
vt 0.625000 0.031250
vt 0.375000 0.218750
vt 0.375000 0.031250
vt 0.625000 0.281250
vt 0.375000 0.468750
vt 0.375000 0.281250
vt 0.656250 0.750000
vt 0.843750 0.500000
vt 0.625000 0.468750
vt 0.343750 0.750000
vt 0.125000 0.718750
vt 0.625000 0.000000
vt 0.375000 0.000000
vt 0.625000 0.218750
vt 0.125000 0.531250
vt 0.156250 0.500000
vt 0.156250 0.750000
vt 0.656250 0.500000
vt 0.625000 0.968750
vt 0.875000 0.718750
vt 0.343750 0.500000
s 0
f 51/81/23 41/82/23 50/83/23
f 55/84/24 49/85/24 54/86/24
f 48/87/25 44/88/25 52/89/25
f 43/90/26 45/91/26 42/92/26
f 47/93/27 53/94/27 46/95/27
f 46/95/28 78/93/28 47/93/28
f 51/96/25 85/89/25 52/89/25
f 47/97/25 77/87/25 48/87/25
f 56/98/29 84/94/29 53/94/29
f 54/86/30 50/99/30 42/100/30
f 67/81/23 57/82/23 66/83/23
f 71/84/24 65/85/24 70/86/24
f 64/87/25 60/88/25 68/89/25
f 59/90/26 61/91/26 58/92/26
f 63/93/27 69/94/27 62/95/27
f 60/101/31 58/92/31 57/102/31
f 62/95/29 64/103/29 63/93/29
f 70/86/28 72/98/28 71/84/28
f 66/83/32 68/89/32 67/81/32
f 70/86/30 66/99/30 58/100/30
f 50/83/31 86/81/31 51/81/31
f 45/104/30 79/105/30 46/105/30
f 49/85/30 87/99/30 50/99/30
f 48/103/31 80/91/31 45/91/31
f 41/106/30 73/100/30 42/100/30
f 52/89/28 88/85/28 49/85/28
f 55/84/25 81/107/25 56/107/25
f 44/108/32 74/82/32 41/82/32
f 54/86/32 82/84/32 55/84/32
f 43/109/25 75/88/25 44/88/25
f 53/110/30 83/86/30 54/86/30
f 42/92/29 76/90/29 43/90/29
f 51/81/23 44/108/23 41/82/23
f 55/84/24 52/89/24 49/85/24
f 52/89/25 55/84/25 56/107/25
f 56/107/25 47/97/25 48/87/25
f 48/87/25 43/109/25 44/88/25
f 44/88/25 51/96/25 52/89/25
f 52/89/25 56/107/25 48/87/25
f 43/90/26 48/103/26 45/91/26
f 47/93/27 56/98/27 53/94/27
f 46/95/28 79/95/28 78/93/28
f 51/96/25 86/96/25 85/89/25
f 47/97/25 78/97/25 77/87/25
f 56/98/29 81/98/29 84/94/29
f 42/100/30 45/104/30 46/105/30
f 46/105/30 53/110/30 54/86/30
f 54/86/30 49/85/30 50/99/30
f 50/99/30 41/106/30 42/100/30
f 42/100/30 46/105/30 54/86/30
f 67/81/23 60/108/23 57/82/23
f 71/84/24 68/89/24 65/85/24
f 68/89/25 71/84/25 72/107/25
f 72/107/25 63/97/25 64/87/25
f 64/87/25 59/109/25 60/88/25
f 60/88/25 67/96/25 68/89/25
f 68/89/25 72/107/25 64/87/25
f 59/90/26 64/103/26 61/91/26
f 63/93/27 72/98/27 69/94/27
f 60/101/31 59/90/31 58/92/31
f 62/95/29 61/91/29 64/103/29
f 70/86/28 69/94/28 72/98/28
f 66/83/32 65/85/32 68/89/32
f 58/100/30 61/104/30 62/105/30
f 62/105/30 69/110/30 70/86/30
f 70/86/30 65/85/30 66/99/30
f 66/99/30 57/106/30 58/100/30
f 58/100/30 62/105/30 70/86/30
f 50/83/31 87/83/31 86/81/31
f 45/104/30 80/104/30 79/105/30
f 49/85/30 88/85/30 87/99/30
f 48/103/31 77/103/31 80/91/31
f 41/106/30 74/106/30 73/100/30
f 52/89/28 85/89/28 88/85/28
f 55/84/25 82/84/25 81/107/25
f 44/108/32 75/108/32 74/82/32
f 54/86/32 83/86/32 82/84/32
f 43/109/25 76/109/25 75/88/25
f 53/110/30 84/110/30 83/86/30
f 42/92/29 73/92/29 76/90/29
o Circle
v 0.000000 1.000000 -0.375000
v -0.265165 1.000000 -0.265165
v -0.375000 1.000000 0.000000
v -0.265165 1.000000 0.265165
v 0.000000 1.000000 0.375000
v 0.265165 1.000000 0.265165
v 0.375000 1.000000 0.000000
v 0.265165 1.000000 -0.265165
v 0.000000 1.062500 -0.375000
v -0.265165 1.062500 -0.265165
v -0.375000 1.062500 0.000000
v -0.265165 1.062500 0.265165
v 0.000000 1.062500 0.375000
v 0.265165 1.062500 0.265165
v 0.375000 1.062500 0.000000
v 0.265165 1.062500 -0.265165
v 0.000000 1.812500 -0.375000
v -0.265165 1.812500 -0.265165
v -0.375000 1.812500 0.000000
v -0.265165 1.812500 0.265165
v 0.000000 1.812500 0.375000
v 0.265165 1.812500 0.265165
v 0.375000 1.812500 0.000000
v 0.265165 1.812500 -0.265165
v 0.000000 1.875000 -0.375000
v -0.265165 1.875000 -0.265165
v -0.375000 1.875000 0.000000
v -0.265165 1.875000 0.265165
v 0.000000 1.875000 0.375000
v 0.265165 1.875000 0.265165
v 0.375000 1.875000 0.000000
v 0.265165 1.875000 -0.265165
v -0.220971 1.062500 -0.220971
v 0.000000 1.062500 -0.312500
v -0.312500 1.062500 0.000000
v -0.220971 1.062500 0.220971
v 0.000000 1.062500 0.312500
v 0.220971 1.062500 0.220971
v 0.312500 1.062500 0.000000
v 0.220971 1.062500 -0.220971
v -0.220971 1.812500 -0.220971
v 0.000000 1.812500 -0.312500
v -0.312500 1.812500 0.000000
v -0.220971 1.812500 0.220971
v 0.000000 1.812500 0.312500
v 0.220971 1.812500 0.220971
v 0.312500 1.812500 0.000000
v 0.220971 1.812500 -0.220971
vn 0.7071 -0.0000 -0.7071
vn 1.0000 -0.0000 -0.0000
vn 0.7071 -0.0000 0.7071
vn -0.0000 -0.0000 1.0000
vn -0.7071 -0.0000 0.7071
vn -1.0000 -0.0000 -0.0000
vn -0.7071 -0.0000 -0.7071
vn -0.0000 -0.0000 -1.0000
vn -0.0000 -1.0000 -0.0000
vn -0.0000 1.0000 -0.0000
vt 0.000000 0.000000
s 1
f 96/111/33 103/111/34 95/111/34
f 94/111/35 101/111/36 93/111/36
f 92/111/37 99/111/38 91/111/38
f 90/111/39 97/111/40 89/111/40
f 89/111/40 104/111/33 96/111/33
f 95/111/34 102/111/35 94/111/35
f 93/111/36 100/111/37 92/111/37
f 91/111/38 98/111/39 90/111/39
f 106/111/41 131/111/41 107/111/41
f 100/111/42 123/111/42 99/111/42
f 105/111/41 129/111/41 106/111/41
f 99/111/42 121/111/42 98/111/42
f 112/111/41 130/111/41 105/111/41
f 98/111/42 122/111/42 97/111/42
f 111/111/41 136/111/41 112/111/41
f 97/111/42 128/111/42 104/111/42
f 112/111/33 119/111/34 111/111/34
f 110/111/35 117/111/36 109/111/36
f 108/111/37 115/111/38 107/111/38
f 106/111/39 113/111/40 105/111/40
f 105/111/40 120/111/33 112/111/33
f 111/111/34 118/111/35 110/111/35
f 109/111/36 116/111/37 108/111/37
f 107/111/38 114/111/39 106/111/39
f 124/111/37 131/111/38 123/111/38
f 121/111/39 130/111/40 122/111/40
f 122/111/40 136/111/33 128/111/33
f 127/111/34 134/111/35 126/111/35
f 125/111/36 132/111/37 124/111/37
f 123/111/38 129/111/39 121/111/39
f 128/111/33 135/111/34 127/111/34
f 126/111/35 133/111/36 125/111/36
f 101/111/42 124/111/42 100/111/42
f 107/111/41 132/111/41 108/111/41
f 102/111/42 125/111/42 101/111/42
f 108/111/41 133/111/41 109/111/41
f 103/111/42 126/111/42 102/111/42
f 109/111/41 134/111/41 110/111/41
f 104/111/42 127/111/42 103/111/42
f 110/111/41 135/111/41 111/111/41
f 96/111/33 104/111/33 103/111/34
f 94/111/35 102/111/35 101/111/36
f 92/111/37 100/111/37 99/111/38
f 90/111/39 98/111/39 97/111/40
f 89/111/40 97/111/40 104/111/33
f 95/111/34 103/111/34 102/111/35
f 93/111/36 101/111/36 100/111/37
f 91/111/38 99/111/38 98/111/39
f 106/111/41 129/111/41 131/111/41
f 100/111/42 124/111/42 123/111/42
f 105/111/41 130/111/41 129/111/41
f 99/111/42 123/111/42 121/111/42
f 112/111/41 136/111/41 130/111/41
f 98/111/42 121/111/42 122/111/42
f 111/111/41 135/111/41 136/111/41
f 97/111/42 122/111/42 128/111/42
f 112/111/33 120/111/33 119/111/34
f 110/111/35 118/111/35 117/111/36
f 108/111/37 116/111/37 115/111/38
f 106/111/39 114/111/39 113/111/40
f 105/111/40 113/111/40 120/111/33
f 111/111/34 119/111/34 118/111/35
f 109/111/36 117/111/36 116/111/37
f 107/111/38 115/111/38 114/111/39
f 124/111/37 132/111/37 131/111/38
f 121/111/39 129/111/39 130/111/40
f 122/111/40 130/111/40 136/111/33
f 127/111/34 135/111/34 134/111/35
f 125/111/36 133/111/36 132/111/37
f 123/111/38 131/111/38 129/111/39
f 128/111/33 136/111/33 135/111/34
f 126/111/35 134/111/35 133/111/36
f 101/111/42 125/111/42 124/111/42
f 107/111/41 131/111/41 132/111/41
f 102/111/42 126/111/42 125/111/42
f 108/111/41 132/111/41 133/111/41
f 103/111/42 127/111/42 126/111/42
f 109/111/41 133/111/41 134/111/41
f 104/111/42 128/111/42 127/111/42
f 110/111/41 134/111/41 135/111/41
o Cube.002
v 0.312500 1.000000 0.437500
v 0.312500 1.875000 0.437500
v 0.312500 1.000000 0.312500
v 0.312500 1.875000 0.312500
v 0.437500 1.000000 0.437500
v 0.437500 1.875000 0.437500
v 0.437500 1.000000 0.312500
v 0.437500 1.875000 0.312500
v -0.312500 1.000000 0.437500
v -0.312500 1.875000 0.437500
v -0.312500 1.000000 0.312500
v -0.312500 1.875000 0.312500
v -0.437500 1.000000 0.437500
v -0.437500 1.875000 0.437500
v -0.437500 1.000000 0.312500
v -0.437500 1.875000 0.312500
v 0.312500 1.000000 -0.437500
v 0.312500 1.875000 -0.437500
v 0.312500 1.000000 -0.312500
v 0.312500 1.875000 -0.312500
v 0.437500 1.000000 -0.437500
v 0.437500 1.875000 -0.437500
v 0.437500 1.000000 -0.312500
v 0.437500 1.875000 -0.312500
v -0.312500 1.000000 -0.437500
v -0.312500 1.875000 -0.437500
v -0.312500 1.000000 -0.312500
v -0.312500 1.875000 -0.312500
v -0.437500 1.000000 -0.437500
v -0.437500 1.875000 -0.437500
v -0.437500 1.000000 -0.312500
v -0.437500 1.875000 -0.312500
vn -1.0000 -0.0000 -0.0000
vn -0.0000 -0.0000 -1.0000
vn 1.0000 -0.0000 -0.0000
vn -0.0000 -0.0000 1.0000
vn -0.0000 -1.0000 -0.0000
vn -0.0000 1.0000 -0.0000
vt 0.625000 0.000000
vt 0.375000 0.250000
vt 0.375000 0.000000
vt 0.625000 0.250000
vt 0.375000 0.500000
vt 0.625000 0.500000
vt 0.375000 0.750000
vt 0.625000 0.750000
vt 0.375000 1.000000
vt 0.125000 0.750000
vt 0.125000 0.500000
vt 0.875000 0.500000
vt 0.625000 1.000000
vt 0.875000 0.750000
s 0
f 138/112/43 139/113/43 137/114/43
f 140/115/44 143/116/44 139/113/44
f 144/117/45 141/118/45 143/116/45
f 142/119/46 137/120/46 141/118/46
f 143/116/47 137/121/47 139/122/47
f 140/123/48 142/119/48 144/117/48
f 147/113/45 146/112/45 145/114/45
f 151/116/44 148/115/44 147/113/44
f 149/118/43 152/117/43 151/116/43
f 145/120/46 150/119/46 149/118/46
f 145/121/47 151/116/47 147/122/47
f 150/119/48 148/123/48 152/117/48
f 155/113/43 154/112/43 153/114/43
f 159/116/46 156/115/46 155/113/46
f 157/118/45 160/117/45 159/116/45
f 153/120/44 158/119/44 157/118/44
f 153/121/47 159/116/47 155/122/47
f 158/119/48 156/123/48 160/117/48
f 162/112/45 163/113/45 161/114/45
f 164/115/46 167/116/46 163/113/46
f 168/117/43 165/118/43 167/116/43
f 166/119/44 161/120/44 165/118/44
f 167/116/47 161/121/47 163/122/47
f 164/123/48 166/119/48 168/117/48
f 138/112/43 140/115/43 139/113/43
f 140/115/44 144/117/44 143/116/44
f 144/117/45 142/119/45 141/118/45
f 142/119/46 138/124/46 137/120/46
f 143/116/47 141/118/47 137/121/47
f 140/123/48 138/125/48 142/119/48
f 147/113/45 148/115/45 146/112/45
f 151/116/44 152/117/44 148/115/44
f 149/118/43 150/119/43 152/117/43
f 145/120/46 146/124/46 150/119/46
f 145/121/47 149/118/47 151/116/47
f 150/119/48 146/125/48 148/123/48
f 155/113/43 156/115/43 154/112/43
f 159/116/46 160/117/46 156/115/46
f 157/118/45 158/119/45 160/117/45
f 153/120/44 154/124/44 158/119/44
f 153/121/47 157/118/47 159/116/47
f 158/119/48 154/125/48 156/123/48
f 162/112/45 164/115/45 163/113/45
f 164/115/46 168/117/46 167/116/46
f 168/117/43 166/119/43 165/118/43
f 166/119/44 162/124/44 161/120/44
f 167/116/47 165/118/47 161/121/47
f 164/123/48 162/125/48 166/119/48
o Plane
v 0.350833 0.416171 0.072523
v 1.437500 0.125000 0.289096
v 0.350833 0.416171 -0.072523
v 1.437500 0.125000 -0.289096
v 0.351881 0.416171 -0.067256
v 1.438709 0.125000 -0.283017
v 0.296374 0.416171 -0.201261
v 1.217445 0.125000 -0.817198
v 0.299358 0.416171 -0.196795
v 1.220888 0.125000 -0.812044
v 0.196795 0.416171 -0.299358
v 0.812044 0.125000 -1.220888
v 0.201261 0.416171 -0.296374
v 0.817197 0.125000 -1.217445
v 0.067255 0.416171 -0.351881
v 0.283017 0.125000 -1.438709
v 0.072523 0.416171 -0.350833
v 0.289096 0.125000 -1.437500
v -0.072523 0.416171 -0.350833
v -0.289096 0.125000 -1.437500
v -0.067256 0.416171 -0.351881
v -0.283018 0.125000 -1.438709
v -0.201261 0.416171 -0.296374
v -0.817198 0.125000 -1.217444
v -0.196795 0.416171 -0.299358
v -0.812044 0.125000 -1.220888
v -0.299358 0.416171 -0.196795
v -1.220888 0.125000 -0.812044
v -0.296374 0.416171 -0.201261
v -1.217445 0.125000 -0.817197
v -0.351881 0.416171 -0.067255
v -1.438709 0.125000 -0.283017
v -0.350833 0.416171 -0.072523
v -1.437500 0.125000 -0.289096
v -0.350833 0.416171 0.072523
v -1.437500 0.125000 0.289097
v -0.351881 0.416171 0.067256
v -1.438709 0.125000 0.283018
v -0.296374 0.416171 0.201261
v -1.217444 0.125000 0.817198
v -0.299358 0.416171 0.196795
v -1.220888 0.125000 0.812045
v -0.196795 0.416171 0.299358
v -0.812044 0.125000 1.220888
v -0.201261 0.416171 0.296374
v -0.817197 0.125000 1.217445
v -0.067255 0.416171 0.351881
v -0.283017 0.125000 1.438709
v -0.072523 0.416171 0.350833
v -0.289095 0.125000 1.437500
v 0.072523 0.416171 0.350833
v 0.289097 0.125000 1.437500
v 0.067256 0.416171 0.351881
v 0.283018 0.125000 1.438709
v 0.201261 0.416171 0.296374
v 0.817198 0.125000 1.217444
v 0.196795 0.416171 0.299358
v 0.812045 0.125000 1.220887
v 0.299358 0.416171 0.196795
v 1.220888 0.125000 0.812043
v 0.296375 0.416171 0.201261
v 1.217445 0.125000 0.817197
v 0.351881 0.416171 0.067255
v 1.438709 0.125000 0.283017
v 0.350833 0.416171 0.072523
v 1.437500 0.125000 0.289095
v 0.350833 0.416171 -0.072523
v 1.437500 0.125000 -0.289097
vn 0.2588 0.9659 -0.0000
vn 0.2391 0.9659 -0.0990
vn 0.1830 0.9659 -0.1830
vn 0.0990 0.9659 -0.2391
vn -0.0000 0.9659 -0.2588
vn -0.0990 0.9659 -0.2391
vn -0.1830 0.9659 -0.1830
vn -0.2391 0.9659 -0.0990
vn -0.2588 0.9659 -0.0000
vn -0.2391 0.9659 0.0990
vn -0.1830 0.9659 0.1830
vn -0.0990 0.9659 0.2391
vn -0.0000 0.9659 0.2588
vn 0.0990 0.9659 0.2391
vn 0.1830 0.9659 0.1830
vn 0.2391 0.9659 0.0990
vt 0.000000 0.000000
vt 1.000000 1.000000
vt 0.000000 1.000000
vt 1.000000 0.000000
s 0
f 169/126/49 172/127/49 171/128/49
f 173/126/50 176/127/50 175/128/50
f 178/129/51 179/128/51 177/126/51
f 181/126/52 184/127/52 183/128/52
f 186/129/53 187/128/53 185/126/53
f 189/126/54 192/127/54 191/128/54
f 194/129/55 195/128/55 193/126/55
f 198/129/56 199/128/56 197/126/56
f 201/126/57 204/127/57 203/128/57
f 205/126/58 208/127/58 207/128/58
f 210/129/59 211/128/59 209/126/59
f 214/129/60 215/128/60 213/126/60
f 218/129/61 219/128/61 217/126/61
f 221/126/62 224/127/62 223/128/62
f 225/126/63 228/127/63 227/128/63
f 229/126/64 232/127/64 231/128/64
f 233/126/49 236/127/49 235/128/49
f 169/126/49 170/129/49 172/127/49
f 173/126/50 174/129/50 176/127/50
f 178/129/51 180/127/51 179/128/51
f 181/126/52 182/129/52 184/127/52
f 186/129/53 188/127/53 187/128/53
f 189/126/54 190/129/54 192/127/54
f 194/129/55 196/127/55 195/128/55
f 198/129/56 200/127/56 199/128/56
f 201/126/57 202/129/57 204/127/57
f 205/126/58 206/129/58 208/127/58
f 210/129/59 212/127/59 211/128/59
f 214/129/60 216/127/60 215/128/60
f 218/129/61 220/127/61 219/128/61
f 221/126/62 222/129/62 224/127/62
f 225/126/63 226/129/63 228/127/63
f 229/126/64 230/129/64 232/127/64
f 233/126/49 234/129/49 236/127/49
