# Blender 4.3.2
# www.blender.org
o mesh
v 0.187500 7.187500 0.187498
v 0.187500 7.187500 -0.187502
v 0.187500 7.000000 0.187498
v 0.187500 7.000000 -0.187502
v -0.187500 7.187500 0.187498
v -0.187500 7.187500 -0.187502
v -0.187500 7.000000 0.187498
v -0.187500 7.000000 -0.187502
v 0.093750 7.187500 0.093748
v 0.093750 7.187500 -0.093752
v -0.093750 7.187500 0.093748
v -0.093750 7.187500 -0.093752
v 0.093750 7.125000 0.093748
v 0.093750 7.125000 -0.093752
v -0.093750 7.125000 0.093748
v -0.093750 7.125000 -0.093752
v 0.187500 7.187500 1.187498
v 0.187500 7.187500 0.812498
v 0.187500 7.000000 1.187500
v 0.187500 7.000000 0.812498
v -0.187500 7.187500 1.187498
v -0.187500 7.187500 0.812498
v -0.187500 7.000000 1.187500
v -0.187500 7.000000 0.812498
v 0.093750 7.187500 1.093748
v 0.093750 7.187500 0.906248
v -0.093750 7.187500 1.093748
v -0.093750 7.187500 0.906248
v 0.093750 7.125000 1.093748
v 0.093750 7.125000 0.906248
v -0.093750 7.125000 1.093748
v -0.093750 7.125000 0.906248
v 0.187500 7.187500 -0.812502
v 0.187500 7.187500 -1.187502
v 0.187500 7.000000 -0.812502
v 0.187500 7.000000 -1.187500
v -0.187500 7.187500 -0.812502
v -0.187500 7.187500 -1.187502
v -0.187500 7.000000 -0.812502
v -0.187500 7.000000 -1.187500
v 0.093750 7.187500 -0.906252
v 0.093750 7.187500 -1.093752
v -0.093750 7.187500 -0.906252
v -0.093750 7.187500 -1.093752
v 0.093750 7.125000 -0.906252
v 0.093750 7.125000 -1.093752
v -0.093750 7.125000 -0.906252
v -0.093750 7.125000 -1.093752
v 1.187500 7.187500 0.187498
v 1.187500 7.187500 -0.187502
v 1.187500 7.000000 0.187498
v 1.187500 7.000000 -0.187502
v 0.812500 7.187500 0.187498
v 0.812500 7.187500 -0.187502
v 0.812500 7.000000 0.187498
v 0.812500 7.000000 -0.187502
v 1.093750 7.187500 0.093748
v 1.093750 7.187500 -0.093752
v 0.906250 7.187500 0.093748
v 0.906250 7.187500 -0.093752
v 1.093750 7.125000 0.093748
v 1.093750 7.125000 -0.093752
v 0.906250 7.125000 0.093748
v 0.906250 7.125000 -0.093752
v 0.000000 5.000000 -0.000000
v 0.000000 7.000000 -0.000002
v 1.449747 5.000000 3.500000
v 1.449747 7.000000 3.500000
v 3.500000 5.000000 1.449747
v 3.500000 7.000000 1.449746
v 3.500000 5.000000 -1.449748
v 3.500000 7.000000 -1.449749
v 1.449747 5.000000 -3.500000
v 1.449747 7.000000 -3.500000
v -1.449747 5.000000 -3.500000
v -1.449747 7.000000 -3.500000
v -3.500000 5.000000 -1.449748
v -3.500000 7.000000 -1.449749
v -3.500000 5.000000 1.449747
v -3.500000 7.000000 1.449746
v -1.449747 5.000000 3.500000
v -1.449747 7.000000 3.500000
v 3.500000 5.200000 1.159798
v 3.500000 5.200000 -1.159799
v 3.500000 6.800000 -1.159799
v 3.500000 6.800000 1.159798
v 3.750000 5.200000 1.159798
v 3.750000 5.200000 -1.159799
v 3.750000 6.800000 -1.159799
v 3.750000 6.800000 1.159798
v -3.500000 5.200000 -1.159799
v -3.500000 5.200000 1.159798
v -3.500000 6.800000 1.159798
v -3.500000 6.800000 -1.159799
v -3.750000 5.200000 -1.159799
v -3.750000 5.200000 1.159798
v -3.750000 6.800000 1.159798
v -3.750000 6.800000 -1.159799
v 1.159798 5.199998 -3.500000
v -1.159798 5.199998 -3.500000
v -1.159798 6.800000 -3.500000
v 1.159798 6.800000 -3.500000
v 1.159798 5.199998 -3.750000
v -1.159798 5.199998 -3.750000
v -1.159798 6.800000 -3.750000
v 1.159798 6.800000 -3.750000
v -1.449747 5.000000 3.500000
v 1.449747 5.000000 3.500000
v 1.449747 7.000000 3.500000
v -1.449747 7.000000 3.500000
v -1.159798 5.200000 3.500000
v 1.159798 5.200000 3.500000
v 1.159798 6.800002 3.500000
v -1.159798 6.800002 3.500000
v -1.159798 5.200000 3.750000
v 1.159798 5.200000 3.750000
v 1.159798 6.800002 3.750000
v -1.159798 6.800002 3.750000
v 1.035534 2.000000 2.500000
v 1.035534 5.000000 3.500000
v 2.500000 2.000000 1.035534
v 3.500000 5.000000 1.035533
v 2.500000 2.000000 -1.035534
v 3.500000 5.000000 -1.035534
v 1.035534 2.000000 -2.500000
v 1.035534 5.000000 -3.500000
v -1.035534 2.000000 -2.500000
v -1.035534 5.000000 -3.500000
v -2.500000 2.000000 -1.035534
v -3.500000 5.000000 -1.035534
v -2.500000 2.000000 1.035534
v -3.500000 5.000000 1.035533
v -1.035534 2.000000 2.500000
v -1.035534 5.000000 3.500000
v 2.258884 2.750000 -1.526651
v 1.526651 2.750000 -2.258884
v 1.526651 4.250000 -2.758884
v 2.758884 4.250000 -1.526651
v 2.603007 2.635292 -1.870774
v 1.870774 2.635292 -2.603007
v 1.870774 4.135292 -3.103007
v 3.103007 4.135292 -1.870774
v 1.526651 2.750000 2.258883
v 2.258884 2.750000 1.526650
v 2.758884 4.250000 1.526650
v 1.526651 4.250000 2.758883
v 1.870774 2.635292 2.603007
v 2.603007 2.635292 1.870774
v 3.103007 4.135292 1.870773
v 1.870774 4.135292 3.103007
v -2.258884 2.750000 1.526650
v -1.526651 2.750000 2.258883
v -1.526651 4.250000 2.758883
v -2.758884 4.250000 1.526650
v -2.603007 2.635292 1.870774
v -1.870774 2.635292 2.603007
v -1.870774 4.135292 3.103007
v -3.103007 4.135292 1.870773
v -1.526651 2.750000 -2.258884
v -2.258884 2.750000 -1.526651
v -2.758884 4.250000 -1.526651
v -1.526651 4.250000 -2.758884
v -1.870774 2.635292 -2.603007
v -2.603007 2.635292 -1.870774
v -3.103007 4.135292 -1.870774
v -1.870774 4.135292 -3.103007
v 3.113146 4.946125 -1.880913
v 1.880913 4.946125 -3.113147
v 1.536789 5.060833 -2.769023
v 2.769022 5.060833 -1.536790
v 1.880913 4.946125 3.113145
v 3.113146 4.946125 1.880913
v 2.769022 5.060833 1.536789
v 1.536789 5.060833 2.769022
v -3.113146 4.946125 1.880913
v -1.880913 4.946125 3.113145
v -1.536789 5.060833 2.769022
v -2.769022 5.060833 1.536789
v -1.880913 4.946125 -3.113147
v -3.113146 4.946125 -1.880913
v -2.769022 5.060833 -1.536790
v -1.536789 5.060833 -2.769023
v 0.931981 2.000000 -2.250000
v 2.250000 2.000000 -0.931981
v 2.250000 2.000000 0.931980
v 0.931981 2.000000 2.250000
v -0.931981 2.000000 2.250000
v -2.250000 2.000000 0.931980
v -2.250000 2.000000 -0.931981
v -0.931981 2.000000 -2.250000
v -0.698986 2.000000 -1.687500
v 0.698986 2.000000 -1.687500
v 1.687500 2.000000 -0.698986
v 1.687500 2.000000 0.698985
v 0.698986 2.000000 1.687500
v -0.698986 2.000000 1.687500
v -1.687500 2.000000 0.698985
v -1.687500 2.000000 -0.698986
v -0.698986 1.000000 -1.687500
v 0.698986 1.000000 -1.687500
v 1.687500 1.000000 -0.698986
v 1.687500 1.000000 0.698986
v 0.698986 1.000000 1.687500
v -0.698986 1.000000 1.687500
v -1.687500 1.000000 0.698986
v -1.687500 1.000000 -0.698986
v 0.757234 2.000000 -1.828125
v -0.757234 2.000000 -1.828125
v -0.873732 2.000000 -2.109375
v 0.873732 2.000000 -2.109375
v 1.828125 2.000000 -0.757235
v 2.109375 2.000000 -0.873732
v 1.828125 2.000000 0.757234
v 2.109375 2.000000 0.873732
v -1.828125 2.000000 -0.757235
v -2.109375 2.000000 -0.873732
v -1.828125 2.000000 0.757234
v -2.109375 2.000000 0.873732
v -0.757234 2.000000 1.828125
v -0.873732 2.000000 2.109375
v 0.757234 2.000000 1.828125
v 0.873732 2.000000 2.109375
v 0.757234 1.750000 -1.828125
v -0.757234 1.750000 -1.828125
v -0.873732 1.750000 -2.109375
v 0.873732 1.750000 -2.109375
v 1.828125 1.750000 -0.757235
v 2.109375 1.750000 -0.873732
v 1.828125 1.750000 0.757234
v 2.109375 1.750000 0.873732
v -1.828125 1.750000 -0.757235
v -2.109375 1.750000 -0.873732
v -1.828125 1.750000 0.757234
v -2.109375 1.750000 0.873732
v -0.757234 1.750000 1.828125
v -0.873732 1.750000 2.109375
v 0.757234 1.750000 1.828125
v 0.873732 1.750000 2.109375
v -0.524239 0.000000 1.265625
v -1.265625 0.000000 0.524239
v 1.265625 0.000000 0.524239
v 0.524239 0.000000 1.265625
v 1.265625 -0.000000 -0.524239
v 0.524239 -0.000000 -1.265625
v -0.524239 -0.000000 -1.265625
v -1.265625 -0.000000 -0.524239
v -0.393179 0.000000 0.949219
v -0.949219 0.000000 0.393179
v 0.949219 0.000000 0.393179
v 0.393179 0.000000 0.949219
v 0.949219 -0.000000 -0.393179
v 0.393179 -0.000000 -0.949219
v -0.393179 -0.000000 -0.949219
v -0.949219 -0.000000 -0.393179
v -0.393179 0.562500 0.949219
v -0.949219 0.562500 0.393179
v 0.000000 0.562500 -0.000000
v 0.949219 0.562500 0.393179
v 0.393179 0.562500 0.949219
v 0.949219 0.562500 -0.393179
v 0.393179 0.562500 -0.949219
v -0.393179 0.562500 -0.949219
v -0.949219 0.562500 -0.393179
v -0.812500 7.187500 0.187498
v -0.812500 7.187500 -0.187502
v -0.812500 7.000000 0.187498
v -0.812500 7.000000 -0.187502
v -1.187500 7.187500 0.187498
v -1.187500 7.187500 -0.187502
v -1.187500 7.000000 0.187498
v -1.187500 7.000000 -0.187502
v -0.906250 7.187500 0.093748
v -0.906250 7.187500 -0.093752
v -1.093750 7.187500 0.093748
v -1.093750 7.187500 -0.093752
v -0.906250 7.125000 0.093748
v -0.906250 7.125000 -0.093752
v -1.093750 7.125000 0.093748
v -1.093750 7.125000 -0.093752
vn 1.0000 -0.0000 -0.0000
vn -1.0000 -0.0000 -0.0000
vn -0.0000 1.0000 -0.0000
vn -0.0000 -1.0000 -0.0000
vn -0.0000 -0.0000 1.0000
vn -0.0000 -0.0000 -1.0000
vn 0.7071 -0.0000 0.7071
vn 0.7071 -0.0000 -0.7071
vn -0.7071 -0.0000 -0.7071
vn -0.7071 -0.0000 0.7071
vn 0.6882 -0.2294 0.6882
vn 0.9487 -0.3162 -0.0000
vn 0.6882 -0.2294 -0.6882
vn -0.0000 -0.3162 -0.9487
vn -0.6882 -0.2294 -0.6882
vn -0.9487 -0.3162 -0.0000
vn -0.6882 -0.2294 0.6882
vn -0.0000 -0.3162 0.9487
vn -0.1622 -0.9733 0.1622
vn -0.7255 -0.2176 -0.6529
vn 0.1622 0.9733 -0.1622
vn 0.6529 -0.2176 0.7255
vn -0.1622 -0.9733 -0.1622
vn 0.6529 -0.2176 -0.7255
vn 0.1622 0.9733 0.1622
vn -0.7255 -0.2176 0.6529
vn 0.1622 -0.9733 -0.1622
vn 0.7255 -0.2176 0.6529
vn -0.1622 0.9733 0.1622
vn -0.6529 -0.2176 -0.7255
vn 0.1622 -0.9733 0.1622
vn -0.6529 -0.2176 0.7255
vn -0.1622 0.9733 -0.1622
vn 0.7255 -0.2176 -0.6529
vn 0.7070 -0.0177 -0.7070
vn -0.7070 0.0177 0.7070
vn 0.7070 -0.0177 0.7070
vn -0.7070 0.0177 -0.7070
vn -0.7070 -0.0177 0.7070
vn 0.7070 0.0177 -0.7070
vn -0.7070 -0.0177 -0.7070
vn 0.7070 0.0177 0.7070
vn -0.6515 -0.3887 0.6515
vn 0.6515 -0.3887 0.6515
vn 0.9214 -0.3887 -0.0000
vn 0.6515 -0.3887 -0.6515
vn -0.0000 -0.3887 0.9214
vn -0.0000 -0.3887 -0.9214
vn -0.6515 -0.3887 -0.6515
vn -0.9214 -0.3887 -0.0000
vt 0.013672 0.992188
vt 0.025391 0.986328
vt 0.025391 0.992188
vt 0.013672 0.986328
vt 0.023438 0.972656
vt 0.015625 0.980469
vt 0.015625 0.972656
vt 0.011719 0.982422
vt 0.000000 0.970703
vt 0.011719 0.970703
vt 0.016602 0.973633
vt 0.025391 0.970703
vt 0.022461 0.973633
vt 0.025391 0.982422
vt 0.022461 0.979492
vt 0.013672 0.982422
vt 0.016602 0.979492
vt 0.013672 0.970703
vt 0.023438 0.978516
vt 0.015625 0.978516
vt 0.011719 0.968750
vt 0.000000 0.957031
vt 0.011719 0.957031
vt 0.021484 0.818359
vt 0.009766 0.806641
vt 0.021484 0.806641
vt 0.021484 0.779297
vt 0.009766 0.767578
vt 0.021484 0.767578
vt 0.218750 0.935930
vt 0.154680 1.000000
vt 0.109375 0.890625
vt 0.318359 0.820312
vt 0.228516 0.882812
vt 0.228516 0.820312
vt 0.154680 0.781250
vt 0.218750 0.845320
vt 0.308594 0.656445
vt 0.236328 0.707227
vt 0.236328 0.656445
vt 0.064070 0.781250
vt 0.308594 0.656250
vt 0.236328 0.707031
vt 0.236328 0.656250
vt 0.064070 1.000000
vt 0.000000 0.845320
vt 0.000000 0.935930
vt 0.009061 0.558984
vt 0.090609 0.552734
vt 0.081548 0.558984
vt 0.090609 0.615234
vt 0.081548 0.608984
vt 0.000000 0.615234
vt 0.009061 0.608984
vt 0.000000 0.552734
vt 0.480469 0.980469
vt 0.408203 0.988281
vt 0.408203 0.980469
vt 0.222656 0.667969
vt 0.230469 0.718750
vt 0.222656 0.718750
vt 0.482422 0.992188
vt 0.410156 1.000000
vt 0.410156 0.992188
vt 0.230469 0.667969
vt 0.482422 1.000000
vt 0.000000 1.000000
vt 0.089844 1.000000
vt 0.480469 0.988281
vt 0.348999 0.934528
vt 0.331623 0.951904
vt 0.319336 0.922241
vt 0.391295 0.926498
vt 0.347886 0.974658
vt 0.358935 0.926498
vt 0.348999 0.909954
vt 0.285156 0.900391
vt 0.220703 1.000000
vt 0.220703 0.900391
vt 0.331623 0.892578
vt 0.391065 0.926498
vt 0.347656 0.974658
vt 0.358705 0.926498
vt 0.307049 0.892578
vt 0.289673 0.909954
vt 0.289673 0.934528
vt 0.307049 0.951904
vt 0.257027 0.738924
vt 0.305568 0.714844
vt 0.289388 0.738924
vt 0.300436 0.787083
vt 0.327665 0.811163
vt 0.245979 0.787083
vt 0.218750 0.811163
vt 0.240847 0.714844
vt 0.208984 0.984375
vt 0.175781 1.000000
vt 0.175781 0.984375
vt 0.487128 0.971077
vt 0.513672 0.926569
vt 0.502336 0.974662
vt 0.216797 0.753906
vt 0.162109 0.769531
vt 0.162109 0.753906
vt 0.554240 0.971077
vt 0.527696 0.926569
vt 0.542904 0.922984
vt 0.289848 0.738924
vt 0.241307 0.714844
vt 0.306028 0.714844
vt 0.300896 0.787083
vt 0.328125 0.811163
vt 0.219210 0.811163
vt 0.246439 0.787083
vt 0.257487 0.738924
vt 0.486776 0.971077
vt 0.513320 0.926569
vt 0.501984 0.974662
vt 0.554278 0.971077
vt 0.527734 0.926569
vt 0.542943 0.922984
vt 0.347656 1.000000
vt 0.402114 0.974658
vt 0.402114 1.000000
vt 0.486680 0.996415
vt 0.501888 1.000000
vt 0.287109 1.000000
vt 0.341797 0.974609
vt 0.341797 1.000000
vt 0.554688 0.996415
vt 0.539031 0.974662
vt 0.347886 1.000000
vt 0.402344 0.974658
vt 0.402344 1.000000
vt 0.486328 0.996415
vt 0.501536 1.000000
vt 0.011125 0.605469
vt 0.065812 0.580078
vt 0.065812 0.605469
vt 0.554726 0.996415
vt 0.539070 0.974662
vt 0.105469 0.509766
vt 0.160156 0.484375
vt 0.160156 0.509766
vt 0.164062 0.746094
vt 0.218750 0.720703
vt 0.218750 0.746094
vt 0.107249 0.630859
vt 0.156250 0.668812
vt 0.148438 0.672047
vt 0.156250 0.733532
vt 0.148438 0.730296
vt 0.107249 0.771484
vt 0.045765 0.779297
vt 0.049001 0.771484
vt 0.110485 0.779297
vt 0.000000 0.733532
vt 0.007812 0.730296
vt 0.000000 0.668812
vt 0.007812 0.672047
vt 0.045765 0.623047
vt 0.049001 0.630859
vt 0.110485 0.623047
vt 0.388446 0.790039
vt 0.439413 0.781250
vt 0.435773 0.790039
vt 0.478027 0.819864
vt 0.469238 0.823505
vt 0.478027 0.874472
vt 0.469238 0.870831
vt 0.439413 0.913086
vt 0.435773 0.904297
vt 0.384805 0.913086
vt 0.388446 0.904297
vt 0.346191 0.874472
vt 0.354980 0.870831
vt 0.346191 0.819864
vt 0.354980 0.823505
vt 0.384805 0.781250
vt 0.432976 0.851562
vt 0.389289 0.882812
vt 0.389289 0.851562
vt 0.432945 0.851562
vt 0.389258 0.882812
vt 0.389258 0.851562
vt 0.433008 0.851562
vt 0.389321 0.882812
vt 0.389321 0.851562
vt 0.432945 0.850391
vt 0.389258 0.881641
vt 0.389258 0.850391
vt 0.432976 0.850391
vt 0.389289 0.881641
vt 0.389289 0.850391
vt 0.433008 0.850391
vt 0.389321 0.881641
vt 0.389321 0.850391
vt 0.100812 0.646484
vt 0.055305 0.650879
vt 0.053485 0.646484
vt 0.050821 0.635254
vt 0.105429 0.635254
vt 0.134277 0.679950
vt 0.098992 0.650879
vt 0.144043 0.673868
vt 0.134277 0.727277
vt 0.129883 0.681770
vt 0.144043 0.728476
vt 0.024414 0.681770
vt 0.020020 0.679950
vt 0.012207 0.673868
vt 0.024414 0.725457
vt 0.020020 0.727277
vt 0.012207 0.728476
vt 0.055305 0.756348
vt 0.053485 0.760742
vt 0.050821 0.767090
vt 0.100812 0.760742
vt 0.129883 0.725457
vt 0.105429 0.767090
vt 0.098992 0.756348
vt 0.214844 0.699219
vt 0.167969 0.707031
vt 0.167969 0.699219
vt 0.218750 0.710938
vt 0.164062 0.718750
vt 0.164062 0.710938
vt 0.427484 0.816473
vt 0.394719 0.816473
vt 0.427547 0.817645
vt 0.394782 0.817645
vt 0.427515 0.817645
vt 0.394750 0.817645
vt 0.427484 0.817645
vt 0.394719 0.817645
vt 0.427547 0.816473
vt 0.394782 0.816473
vt 0.427515 0.816473
vt 0.394750 0.816473
vt 0.062908 0.735229
vt 0.035645 0.721949
vt 0.045532 0.717853
vt 0.104858 0.717853
vt 0.091578 0.745117
vt 0.087482 0.735229
vt 0.104858 0.693280
vt 0.114746 0.721949
vt 0.087482 0.675903
vt 0.114746 0.689184
vt 0.058813 0.745117
vt 0.062908 0.675903
vt 0.091578 0.666016
vt 0.045532 0.693280
vt 0.058813 0.666016
vt 0.035645 0.689184
vt 0.296875 0.972656
vt 0.322266 0.955078
vt 0.322266 0.972656
vt 0.152344 0.779297
vt 0.140625 0.767578
vt 0.152344 0.767578
vt 0.023438 0.980469
vt 0.000000 0.982422
vt 0.000000 0.968750
vt 0.009766 0.818359
vt 0.009766 0.779297
vt 0.318359 0.882812
vt 0.308594 0.707227
vt 0.308594 0.707031
vt 0.285156 1.000000
vt 0.208984 1.000000
vt 0.498464 0.922984
vt 0.216797 0.769531
vt 0.498112 0.922984
vt 0.287109 0.974609
vt 0.539479 1.000000
vt 0.011125 0.580078
vt 0.539518 1.000000
vt 0.105469 0.484375
vt 0.164062 0.720703
vt 0.432976 0.882812
vt 0.432945 0.882812
vt 0.433008 0.882812
vt 0.432945 0.881641
vt 0.432976 0.881641
vt 0.433008 0.881641
vt 0.214844 0.707031
vt 0.218750 0.718750
vt 0.296875 0.955078
vt 0.140625 0.779297
s 1
f 1/1/1 4/2/1 2/3/1
f 5/3/2 8/4/2 7/2/2
f 13/5/3 16/6/3 15/7/3
f 3/8/4 8/9/4 4/10/4
f 1/3/5 7/4/5 3/2/5
f 2/1/6 8/2/6 6/3/6
f 11/11/3 1/12/3 9/13/3
f 9/13/3 2/14/3 10/15/3
f 10/15/3 6/16/3 12/17/3
f 12/17/3 5/18/3 11/11/3
f 15/19/6 9/6/6 13/20/6
f 13/19/2 10/6/2 14/20/2
f 14/19/5 12/6/5 16/20/5
f 16/19/1 11/6/1 15/20/1
f 17/1/1 20/2/1 18/3/1
f 21/3/2 24/4/2 23/2/2
f 29/5/3 32/6/3 31/7/3
f 19/21/4 24/22/4 20/23/4
f 17/3/5 23/4/5 19/2/5
f 18/1/6 24/2/6 22/3/6
f 27/11/3 17/12/3 25/13/3
f 25/13/3 18/14/3 26/15/3
f 26/15/3 22/16/3 28/17/3
f 28/17/3 21/18/3 27/11/3
f 31/19/6 25/6/6 29/20/6
f 29/19/2 26/6/2 30/20/2
f 30/19/5 28/6/5 32/20/5
f 32/19/1 27/6/1 31/20/1
f 33/1/1 36/2/1 34/3/1
f 37/3/2 40/4/2 39/2/2
f 45/5/3 48/6/3 47/7/3
f 35/24/4 40/25/4 36/26/4
f 33/3/5 39/4/5 35/2/5
f 34/1/6 40/2/6 38/3/6
f 43/11/3 33/12/3 41/13/3
f 41/13/3 34/14/3 42/15/3
f 42/15/3 38/16/3 44/17/3
f 44/17/3 37/18/3 43/11/3
f 47/19/6 41/6/6 45/20/6
f 45/19/2 42/6/2 46/20/2
f 46/19/5 44/6/5 48/20/5
f 48/19/1 43/6/1 47/20/1
f 49/1/1 52/2/1 50/3/1
f 53/3/2 56/4/2 55/2/2
f 61/5/3 64/6/3 63/7/3
f 51/27/4 56/28/4 52/29/4
f 49/3/5 55/4/5 51/2/5
f 50/1/6 56/2/6 54/3/6
f 59/11/3 49/12/3 57/13/3
f 57/13/3 50/14/3 58/15/3
f 58/15/3 54/16/3 60/17/3
f 60/17/3 53/18/3 59/11/3
f 63/19/6 57/6/6 61/20/6
f 61/19/2 58/6/2 62/20/2
f 62/19/5 60/6/5 64/20/5
f 64/19/1 59/6/1 63/20/1
f 69/30/4 67/31/4 65/32/4
f 69/33/7 68/34/7 67/35/7
f 68/36/3 70/37/3 66/32/3
f 71/37/4 69/30/4 65/32/4
f 88/38/1 90/39/1 87/40/1
f 70/37/3 72/30/3 66/32/3
f 73/36/4 71/37/4 65/32/4
f 73/33/8 72/34/8 71/35/8
f 72/30/3 74/31/3 66/32/3
f 75/41/4 73/36/4 65/32/4
f 104/42/6 106/43/6 103/44/6
f 74/31/3 76/45/3 66/32/3
f 77/46/4 75/41/4 65/32/4
f 77/33/9 76/34/9 75/35/9
f 76/45/3 78/47/3 66/32/3
f 96/42/2 98/43/2 95/44/2
f 78/47/3 80/46/3 66/32/3
f 81/45/4 79/47/4 65/32/4
f 81/33/10 80/34/10 79/35/10
f 80/46/3 82/41/3 66/32/3
f 67/31/4 81/45/4 65/32/4
f 116/42/5 118/43/5 115/44/5
f 83/48/1 71/49/1 84/50/1
f 84/50/1 72/51/1 85/52/1
f 85/52/1 70/53/1 86/54/1
f 86/54/1 69/55/1 83/48/1
f 87/56/4 84/57/4 88/58/4
f 88/59/6 85/60/6 89/61/6
f 89/62/3 86/63/3 90/64/3
f 90/60/5 83/59/5 87/65/5
f 91/48/2 79/49/2 92/50/2
f 92/50/2 80/51/2 93/52/2
f 93/52/2 78/53/2 94/54/2
f 94/54/2 77/55/2 91/48/2
f 95/56/4 92/57/4 96/58/4
f 96/59/5 93/60/5 97/61/5
f 97/62/3 94/63/3 98/64/3
f 98/60/6 91/59/6 95/65/6
f 99/48/6 75/49/6 100/50/6
f 100/50/6 76/51/6 101/52/6
f 101/52/6 74/53/6 102/54/6
f 102/54/6 73/55/6 99/48/6
f 103/56/4 100/57/4 104/58/4
f 104/59/2 101/60/2 105/61/2
f 105/63/3 102/62/3 106/66/3
f 106/60/1 99/59/1 103/65/1
s 0
f 107/67/5 67/68/5 108/68/5
f 108/67/5 68/67/5 109/67/5
f 110/67/5 81/67/5 107/67/5
s 1
f 111/48/5 108/49/5 112/50/5
f 114/54/5 107/55/5 111/48/5
f 115/57/4 112/56/4 116/69/4
f 116/59/1 113/60/1 117/61/1
f 117/62/3 114/63/3 118/64/3
f 118/60/2 111/59/2 115/65/2
f 258/70/4 259/71/4 257/72/4
f 148/73/11 150/74/11 147/75/11
f 260/76/4 258/70/4 257/72/4
f 123/77/12 122/78/12 121/79/12
f 261/80/4 260/76/4 257/72/4
f 140/81/13 142/82/13 139/83/13
f 262/84/4 261/80/4 257/72/4
f 127/77/14 126/78/14 125/79/14
f 263/85/4 262/84/4 257/72/4
f 164/73/15 166/74/15 163/75/15
f 256/86/4 263/85/4 257/72/4
f 131/77/16 130/78/16 129/79/16
f 255/87/4 256/86/4 257/72/4
f 156/81/17 158/82/17 155/83/17
f 259/71/4 255/87/4 257/72/4
f 119/77/18 134/78/18 133/79/18
f 135/88/13 125/89/13 136/90/13
f 137/91/13 125/89/13 126/92/13
f 138/93/13 126/92/13 124/94/13
f 138/93/13 123/95/13 135/88/13
f 139/96/19 136/97/19 140/98/19
f 141/99/20 136/100/20 137/101/20
f 168/102/21 170/103/21 167/104/21
f 142/105/22 135/106/22 139/107/22
f 144/108/11 119/109/11 121/110/11
f 145/111/11 121/110/11 122/112/11
f 145/111/11 120/113/11 146/114/11
f 146/114/11 119/109/11 143/115/11
f 147/96/23 144/97/23 148/98/23
f 149/116/24 144/117/24 145/118/24
f 172/102/25 174/103/25 171/104/25
f 150/119/26 143/120/26 147/121/26
f 151/88/17 133/89/17 152/90/17
f 153/91/17 133/89/17 134/92/17
f 154/93/17 134/92/17 132/94/17
f 154/93/17 131/95/17 151/88/17
f 155/96/27 152/97/27 156/98/27
f 157/99/28 152/100/28 153/101/28
f 176/102/29 178/103/29 175/104/29
f 158/105/30 151/106/30 155/107/30
f 160/108/15 127/109/15 129/110/15
f 161/111/15 129/110/15 130/112/15
f 161/111/15 128/113/15 162/114/15
f 162/114/15 127/109/15 159/115/15
f 163/96/31 160/97/31 164/98/31
f 165/116/32 160/117/32 161/118/32
f 180/102/33 182/103/33 179/104/33
f 166/119/34 159/120/34 163/121/34
f 167/122/35 141/123/35 168/124/35
f 168/125/9 137/101/9 169/126/9
f 169/127/36 138/128/36 170/129/36
f 167/130/7 138/131/7 142/105/7
f 171/132/37 149/133/37 172/134/37
f 172/135/8 145/118/8 173/136/8
f 173/137/38 146/138/38 174/139/38
f 171/140/10 146/141/10 150/119/10
f 175/122/39 157/123/39 176/124/39
f 176/125/7 153/101/7 177/126/7
f 177/142/40 154/143/40 178/144/40
f 175/130/9 154/131/9 158/105/9
f 179/132/41 165/133/41 180/134/41
f 180/135/10 161/118/10 181/136/10
f 181/145/42 162/146/42 182/147/42
f 179/140/8 162/141/8 166/119/8
f 183/148/4 123/149/4 184/150/4
f 184/150/4 121/151/4 185/152/4
f 186/153/4 133/154/4 187/155/4
f 185/152/4 119/156/4 186/153/4
f 187/155/4 131/157/4 188/158/4
f 188/158/4 129/159/4 189/160/4
f 189/160/4 127/161/4 190/162/4
f 190/162/4 125/163/4 183/148/4
f 224/164/4 226/165/4 223/166/4
f 223/166/4 228/167/4 227/168/4
f 227/168/4 230/169/4 229/170/4
f 229/170/4 238/171/4 237/172/4
f 237/172/4 236/173/4 235/174/4
f 235/174/4 234/175/4 233/176/4
f 233/176/4 232/177/4 231/178/4
f 231/178/4 225/179/4 224/164/4
f 199/180/6 192/181/6 200/182/6
f 200/183/8 193/184/8 201/185/8
f 201/180/1 194/181/1 202/182/1
f 202/186/7 195/187/7 203/188/7
f 203/180/5 196/181/5 204/182/5
f 204/189/10 197/190/10 205/191/10
f 205/192/2 198/193/2 206/194/2
f 206/195/9 191/196/9 199/197/9
f 207/198/4 191/199/4 208/200/4
f 209/201/4 183/148/4 210/202/4
f 211/203/4 192/204/4 207/198/4
f 210/202/4 184/150/4 212/205/4
f 213/206/4 193/207/4 211/203/4
f 212/205/4 185/152/4 214/208/4
f 208/200/4 198/209/4 215/210/4
f 216/211/4 190/162/4 209/201/4
f 215/210/4 197/212/4 217/213/4
f 218/214/4 189/160/4 216/211/4
f 217/213/4 196/215/4 219/216/4
f 220/217/4 188/158/4 218/214/4
f 221/218/4 194/219/4 213/206/4
f 214/208/4 186/153/4 222/220/4
f 219/216/4 195/221/4 221/218/4
f 222/220/4 187/155/4 220/217/4
f 223/222/5 208/223/5 224/224/5
f 225/225/6 210/226/6 226/227/6
f 227/222/10 207/223/10 223/224/10
f 226/225/8 212/226/8 228/227/8
f 229/222/2 211/223/2 227/224/2
f 228/225/1 214/226/1 230/227/1
f 224/222/7 215/223/7 231/224/7
f 232/225/9 209/226/9 225/227/9
f 231/222/1 217/223/1 233/224/1
f 234/225/2 216/226/2 232/227/2
f 233/222/8 219/223/8 235/224/8
f 236/225/10 218/226/10 234/227/10
f 237/222/9 213/223/9 229/224/9
f 230/225/7 222/226/7 238/227/7
f 235/222/6 221/223/6 237/224/6
f 238/225/5 220/226/5 236/227/5
f 239/228/43 205/191/43 240/229/43
f 241/230/44 203/188/44 242/231/44
f 243/232/45 202/182/45 241/233/45
f 244/234/46 201/185/46 243/235/46
f 242/232/47 204/182/47 239/233/47
f 245/232/48 200/182/48 244/233/48
f 246/236/49 199/197/49 245/237/49
f 240/238/50 206/194/50 246/239/50
f 247/240/4 240/241/4 248/242/4
f 249/243/4 242/244/4 250/245/4
f 251/246/4 241/247/4 249/243/4
f 252/248/4 243/249/4 251/246/4
f 250/245/4 239/250/4 247/240/4
f 253/251/4 244/252/4 252/248/4
f 254/253/4 245/254/4 253/251/4
f 248/242/4 246/255/4 254/253/4
f 255/256/8 248/257/8 256/258/8
f 258/256/9 250/257/9 259/258/9
f 260/256/2 249/257/2 258/258/2
f 261/256/10 251/257/10 260/258/10
f 259/256/6 247/257/6 255/258/6
f 262/256/5 252/257/5 261/258/5
f 263/256/7 253/257/7 262/258/7
f 256/256/1 254/257/1 263/258/1
f 82/41/3 68/36/3 66/32/3
f 112/50/5 109/51/5 113/52/5
s 0
f 109/68/5 82/67/5 110/67/5
s 1
f 113/52/5 110/53/5 114/54/5
f 264/1/1 267/2/1 265/3/1
f 268/3/2 271/4/2 270/2/2
f 276/5/3 279/6/3 278/7/3
f 266/259/4 271/260/4 267/261/4
f 264/3/5 270/4/5 266/2/5
f 265/1/6 271/2/6 269/3/6
f 274/11/3 264/12/3 272/13/3
f 272/13/3 265/14/3 273/15/3
f 273/15/3 269/16/3 275/17/3
f 275/17/3 268/18/3 274/11/3
f 278/19/6 272/6/6 276/20/6
f 276/19/2 273/6/2 277/20/2
f 277/19/5 275/6/5 279/20/5
f 279/19/1 274/6/1 278/20/1
f 79/47/4 77/46/4 65/32/4
f 1/1/1 3/4/1 4/2/1
f 5/3/2 6/1/2 8/4/2
f 13/5/3 14/262/3 16/6/3
f 3/8/4 7/263/4 8/9/4
f 1/3/5 5/1/5 7/4/5
f 2/1/6 4/4/6 8/2/6
f 11/11/3 5/18/3 1/12/3
f 9/13/3 1/12/3 2/14/3
f 10/15/3 2/14/3 6/16/3
f 12/17/3 6/16/3 5/18/3
f 15/19/6 11/262/6 9/6/6
f 13/19/2 9/262/2 10/6/2
f 14/19/5 10/262/5 12/6/5
f 16/19/1 12/262/1 11/6/1
f 17/1/1 19/4/1 20/2/1
f 21/3/2 22/1/2 24/4/2
f 29/5/3 30/262/3 32/6/3
f 19/21/4 23/264/4 24/22/4
f 17/3/5 21/1/5 23/4/5
f 18/1/6 20/4/6 24/2/6
f 27/11/3 21/18/3 17/12/3
f 25/13/3 17/12/3 18/14/3
f 26/15/3 18/14/3 22/16/3
f 28/17/3 22/16/3 21/18/3
f 31/19/6 27/262/6 25/6/6
f 29/19/2 25/262/2 26/6/2
f 30/19/5 26/262/5 28/6/5
f 32/19/1 28/262/1 27/6/1
f 33/1/1 35/4/1 36/2/1
f 37/3/2 38/1/2 40/4/2
f 45/5/3 46/262/3 48/6/3
f 35/24/4 39/265/4 40/25/4
f 33/3/5 37/1/5 39/4/5
f 34/1/6 36/4/6 40/2/6
f 43/11/3 37/18/3 33/12/3
f 41/13/3 33/12/3 34/14/3
f 42/15/3 34/14/3 38/16/3
f 44/17/3 38/16/3 37/18/3
f 47/19/6 43/262/6 41/6/6
f 45/19/2 41/262/2 42/6/2
f 46/19/5 42/262/5 44/6/5
f 48/19/1 44/262/1 43/6/1
f 49/1/1 51/4/1 52/2/1
f 53/3/2 54/1/2 56/4/2
f 61/5/3 62/262/3 64/6/3
f 51/27/4 55/266/4 56/28/4
f 49/3/5 53/1/5 55/4/5
f 50/1/6 52/4/6 56/2/6
f 59/11/3 53/18/3 49/12/3
f 57/13/3 49/12/3 50/14/3
f 58/15/3 50/14/3 54/16/3
f 60/17/3 54/16/3 53/18/3
f 63/19/6 59/262/6 57/6/6
f 61/19/2 57/262/2 58/6/2
f 62/19/5 58/262/5 60/6/5
f 64/19/1 60/262/1 59/6/1
f 69/33/7 70/267/7 68/34/7
f 88/38/1 89/268/1 90/39/1
f 73/33/8 74/267/8 72/34/8
f 104/42/6 105/269/6 106/43/6
f 77/33/9 78/267/9 76/34/9
f 96/42/2 97/269/2 98/43/2
f 81/33/10 82/267/10 80/34/10
f 116/42/5 117/269/5 118/43/5
f 83/48/1 69/55/1 71/49/1
f 84/50/1 71/49/1 72/51/1
f 85/52/1 72/51/1 70/53/1
f 86/54/1 70/53/1 69/55/1
f 87/56/4 83/69/4 84/57/4
f 88/59/6 84/65/6 85/60/6
f 89/62/3 85/66/3 86/63/3
f 90/60/5 86/61/5 83/59/5
f 91/48/2 77/55/2 79/49/2
f 92/50/2 79/49/2 80/51/2
f 93/52/2 80/51/2 78/53/2
f 94/54/2 78/53/2 77/55/2
f 95/56/4 91/69/4 92/57/4
f 96/59/5 92/65/5 93/60/5
f 97/62/3 93/66/3 94/63/3
f 98/60/6 94/61/6 91/59/6
f 99/48/6 73/55/6 75/49/6
f 100/50/6 75/49/6 76/51/6
f 101/52/6 76/51/6 74/53/6
f 102/54/6 74/53/6 73/55/6
f 103/56/4 99/69/4 100/57/4
f 104/59/2 100/65/2 101/60/2
f 105/63/3 101/64/3 102/62/3
f 106/60/1 102/61/1 99/59/1
s 0
f 107/67/5 81/67/5 67/68/5
f 108/67/5 67/67/5 68/67/5
f 110/67/5 82/67/5 81/67/5
s 1
f 111/48/5 107/55/5 108/49/5
f 114/54/5 110/53/5 107/55/5
f 115/57/4 111/58/4 112/56/4
f 116/59/1 112/65/1 113/60/1
f 117/62/3 113/66/3 114/63/3
f 118/60/2 114/61/2 111/59/2
f 148/73/11 149/133/11 150/74/11
f 123/77/12 124/270/12 122/78/12
f 140/81/13 141/123/13 142/82/13
f 127/77/14 128/270/14 126/78/14
f 164/73/15 165/133/15 166/74/15
f 131/77/16 132/270/16 130/78/16
f 156/81/17 157/123/17 158/82/17
f 119/77/18 120/270/18 134/78/18
f 135/88/13 123/95/13 125/89/13
f 137/91/13 136/90/13 125/89/13
f 138/93/13 137/91/13 126/92/13
f 138/93/13 124/94/13 123/95/13
f 139/96/19 135/271/19 136/97/19
f 141/99/20 140/272/20 136/100/20
f 168/102/21 169/273/21 170/103/21
f 142/105/22 138/131/22 135/106/22
f 144/108/11 143/115/11 119/109/11
f 145/111/11 144/108/11 121/110/11
f 145/111/11 122/112/11 120/113/11
f 146/114/11 120/113/11 119/109/11
f 147/96/23 143/271/23 144/97/23
f 149/116/24 148/274/24 144/117/24
f 172/102/25 173/273/25 174/103/25
f 150/119/26 146/141/26 143/120/26
f 151/88/17 131/95/17 133/89/17
f 153/91/17 152/90/17 133/89/17
f 154/93/17 153/91/17 134/92/17
f 154/93/17 132/94/17 131/95/17
f 155/96/27 151/271/27 152/97/27
f 157/99/28 156/272/28 152/100/28
f 176/102/29 177/273/29 178/103/29
f 158/105/30 154/131/30 151/106/30
f 160/108/15 159/115/15 127/109/15
f 161/111/15 160/108/15 129/110/15
f 161/111/15 130/112/15 128/113/15
f 162/114/15 128/113/15 127/109/15
f 163/96/31 159/271/31 160/97/31
f 165/116/32 164/274/32 160/117/32
f 180/102/33 181/273/33 182/103/33
f 166/119/34 162/141/34 159/120/34
f 167/122/35 142/82/35 141/123/35
f 168/125/9 141/99/9 137/101/9
f 169/127/36 137/275/36 138/128/36
f 167/130/7 170/276/7 138/131/7
f 171/132/37 150/74/37 149/133/37
f 172/135/8 149/116/8 145/118/8
f 173/137/38 145/277/38 146/138/38
f 171/140/10 174/278/10 146/141/10
f 175/122/39 158/82/39 157/123/39
f 176/125/7 157/99/7 153/101/7
f 177/142/40 153/279/40 154/143/40
f 175/130/9 178/276/9 154/131/9
f 179/132/41 166/74/41 165/133/41
f 180/135/10 165/116/10 161/118/10
f 181/145/42 161/280/42 162/146/42
f 179/140/8 182/278/8 162/141/8
f 183/148/4 125/163/4 123/149/4
f 184/150/4 123/149/4 121/151/4
f 186/153/4 119/156/4 133/154/4
f 185/152/4 121/151/4 119/156/4
f 187/155/4 133/154/4 131/157/4
f 188/158/4 131/157/4 129/159/4
f 189/160/4 129/159/4 127/161/4
f 190/162/4 127/161/4 125/163/4
f 224/164/4 225/179/4 226/165/4
f 223/166/4 226/165/4 228/167/4
f 227/168/4 228/167/4 230/169/4
f 229/170/4 230/169/4 238/171/4
f 237/172/4 238/171/4 236/173/4
f 235/174/4 236/173/4 234/175/4
f 233/176/4 234/175/4 232/177/4
f 231/178/4 232/177/4 225/179/4
f 199/180/6 191/281/6 192/181/6
f 200/183/8 192/282/8 193/184/8
f 201/180/1 193/281/1 194/181/1
f 202/186/7 194/283/7 195/187/7
f 203/180/5 195/281/5 196/181/5
f 204/189/10 196/284/10 197/190/10
f 205/192/2 197/285/2 198/193/2
f 206/195/9 198/286/9 191/196/9
f 207/198/4 192/204/4 191/199/4
f 209/201/4 190/162/4 183/148/4
f 211/203/4 193/207/4 192/204/4
f 210/202/4 183/148/4 184/150/4
f 213/206/4 194/219/4 193/207/4
f 212/205/4 184/150/4 185/152/4
f 208/200/4 191/199/4 198/209/4
f 216/211/4 189/160/4 190/162/4
f 215/210/4 198/209/4 197/212/4
f 218/214/4 188/158/4 189/160/4
f 217/213/4 197/212/4 196/215/4
f 220/217/4 187/155/4 188/158/4
f 221/218/4 195/221/4 194/219/4
f 214/208/4 185/152/4 186/153/4
f 219/216/4 196/215/4 195/221/4
f 222/220/4 186/153/4 187/155/4
f 223/222/5 207/287/5 208/223/5
f 225/225/6 209/288/6 210/226/6
f 227/222/10 211/287/10 207/223/10
f 226/225/8 210/288/8 212/226/8
f 229/222/2 213/287/2 211/223/2
f 228/225/1 212/288/1 214/226/1
f 224/222/7 208/287/7 215/223/7
f 232/225/9 216/288/9 209/226/9
f 231/222/1 215/287/1 217/223/1
f 234/225/2 218/288/2 216/226/2
f 233/222/8 217/287/8 219/223/8
f 236/225/10 220/288/10 218/226/10
f 237/222/9 221/287/9 213/223/9
f 230/225/7 214/288/7 222/226/7
f 235/222/6 219/287/6 221/223/6
f 238/225/5 222/288/5 220/226/5
f 239/228/43 204/189/43 205/191/43
f 241/230/44 202/186/44 203/188/44
f 243/232/45 201/180/45 202/182/45
f 244/234/46 200/183/46 201/185/46
f 242/232/47 203/180/47 204/182/47
f 245/232/48 199/180/48 200/182/48
f 246/236/49 206/195/49 199/197/49
f 240/238/50 205/192/50 206/194/50
f 247/240/4 239/250/4 240/241/4
f 249/243/4 241/247/4 242/244/4
f 251/246/4 243/249/4 241/247/4
f 252/248/4 244/252/4 243/249/4
f 250/245/4 242/244/4 239/250/4
f 253/251/4 245/254/4 244/252/4
f 254/253/4 246/255/4 245/254/4
f 248/242/4 240/241/4 246/255/4
f 255/256/8 247/289/8 248/257/8
f 258/256/9 249/289/9 250/257/9
f 260/256/2 251/289/2 249/257/2
f 261/256/10 252/289/10 251/257/10
f 259/256/6 250/289/6 247/257/6
f 262/256/5 253/289/5 252/257/5
f 263/256/7 254/289/7 253/257/7
f 256/256/1 248/289/1 254/257/1
f 112/50/5 108/49/5 109/51/5
s 0
f 109/68/5 68/68/5 82/67/5
s 1
f 113/52/5 109/51/5 110/53/5
f 264/1/1 266/4/1 267/2/1
f 268/3/2 269/1/2 271/4/2
f 276/5/3 277/262/3 279/6/3
f 266/259/4 270/290/4 271/260/4
f 264/3/5 268/1/5 270/4/5
f 265/1/6 267/4/6 271/2/6
f 274/11/3 268/18/3 264/12/3
f 272/13/3 264/12/3 265/14/3
f 273/15/3 265/14/3 269/16/3
f 275/17/3 269/16/3 268/18/3
f 278/19/6 274/262/6 272/6/6
f 276/19/2 272/262/2 273/6/2
f 277/19/5 273/262/5 275/6/5
f 279/19/1 275/262/1 274/6/1
