# Blender 4.3.2
# www.blender.org
o cylinder
v -2.847553 0.000000 1.870427
v 0.000000 0.000000 0.000000
v 1.381864 0.000000 3.336116
v 1.381864 2.000000 3.336116
v 3.336116 0.000000 1.381864
v 3.336116 2.000000 1.381864
v 3.336116 -0.000000 -1.381864
v 3.336116 2.000000 -1.381865
v 1.381864 -0.000000 -3.336116
v 1.381864 2.000000 -3.336117
v -1.381864 -0.000000 -3.336116
v -1.381864 2.000000 -3.336117
v -3.336116 -0.000000 -1.381864
v -3.336116 2.000000 -1.381865
v -3.336116 0.000000 1.381864
v -3.336116 2.000000 1.381864
v -1.381864 0.000000 3.336116
v -1.381864 2.000000 3.336116
v 1.139840 2.000000 0.414559
v 1.139840 2.000000 -0.414560
v 0.414559 2.000000 -1.139840
v -0.414559 2.000000 -1.139840
v -1.139840 2.000000 -0.414560
v -1.139840 2.000000 0.414559
v -0.414559 2.000000 1.139840
v 0.414559 2.000000 1.139840
v 1.000835 1.187500 0.414559
v 1.000835 1.187500 -0.414559
v 0.000000 1.187500 -0.000000
v 0.414559 1.187500 -1.000835
v -0.414559 1.187500 -1.000835
v -1.000835 1.187500 -0.414559
v -1.000835 1.187500 0.414559
v -0.414559 1.187500 1.000835
v 0.414559 1.187500 1.000835
v 0.656386 2.000000 -1.584655
v 1.584655 2.000000 -0.656386
v 2.752296 2.000000 -1.140038
v 1.140038 2.000000 -2.752296
v -0.656386 2.000000 -1.584655
v -1.140038 2.000000 -2.752296
v -1.584655 2.000000 -0.656386
v -2.752296 2.000000 -1.140038
v -1.584655 2.000000 0.656385
v -2.752296 2.000000 1.140038
v -0.656386 2.000000 1.584655
v -1.140038 2.000000 2.752295
v 0.656386 2.000000 1.584655
v 1.140038 2.000000 2.752295
v 1.584655 2.000000 0.656385
v 2.752296 2.000000 1.140038
v 0.656386 2.187500 -1.584655
v 1.584655 2.187500 -0.656386
v 2.752296 2.187500 -1.140038
v 1.140038 2.187500 -2.752296
v -0.656386 2.187500 -1.584655
v -1.140038 2.187500 -2.752296
v -1.584655 2.187500 -0.656386
v -2.752296 2.187500 -1.140038
v -1.584655 2.187500 0.656385
v -2.752296 2.187500 1.140038
v -0.656386 2.187500 1.584655
v -1.140038 2.187500 2.752295
v 0.656386 2.187500 1.584655
v 1.140038 2.187500 2.752295
v 1.584655 2.187500 0.656385
v 2.752296 2.187500 1.140038
v -1.870427 0.500000 -2.847553
v -2.847553 0.500000 -1.870427
v -2.847553 1.500000 -1.870428
v -1.870427 1.500000 -2.847553
v 2.847553 0.500000 -1.870427
v 1.870427 0.500000 -2.847553
v 1.870427 1.500000 -2.847553
v 2.847553 1.500000 -1.870428
v -2.263592 0.500000 -3.240718
v -3.240718 0.500000 -2.263592
v -3.240718 1.500000 -2.263592
v -2.263592 1.500000 -3.240718
v 3.240718 0.500000 -2.263592
v 2.263592 0.500000 -3.240718
v 2.263592 1.500000 -3.240718
v 3.240718 1.500000 -2.263592
v 1.870427 0.500000 2.847553
v 2.847553 0.500000 1.870427
v 2.847553 1.500000 1.870427
v 1.870427 1.500000 2.847553
v -2.847553 0.500000 1.870427
v -1.870427 0.500000 2.847553
v -1.870427 1.500000 2.847553
v -2.847553 1.500000 1.870427
v 2.263592 0.500000 3.240718
v 3.240718 0.500000 2.263592
v 3.240718 1.500000 2.263592
v 2.263592 1.500000 3.240718
v -3.240718 0.500000 2.263592
v -2.263592 0.500000 3.240718
v -2.263592 1.500000 3.240718
v -3.240718 1.500000 2.263592
v 3.240718 2.000000 -2.263593
v 2.263592 2.000000 -3.240718
v 1.870427 2.000000 -2.847553
v 2.847553 2.000000 -1.870428
v 1.301264 2.150000 -2.591070
v 2.591070 2.150000 -1.301264
v 2.591070 2.000000 -1.301264
v 1.301264 2.000000 -2.591070
v 2.136740 2.150000 -3.426546
v 3.426546 2.150000 -2.136740
v 3.426546 2.000000 -2.136740
v 2.136740 2.000000 -3.426546
v -2.263592 2.000000 -3.240718
v -3.240718 2.000000 -2.263593
v -2.847553 2.000000 -1.870428
v -1.870427 2.000000 -2.847553
v -2.591070 2.150000 -1.301264
v -1.301264 2.150000 -2.591070
v -1.301264 2.000000 -2.591070
v -2.591070 2.000000 -1.301264
v -3.426546 2.150000 -2.136740
v -2.136740 2.150000 -3.426546
v -2.136740 2.000000 -3.426546
v -3.426546 2.000000 -2.136740
v 2.263592 2.000000 3.240718
v 3.240718 2.000000 2.263592
v 2.847553 2.000000 1.870427
v 1.870427 2.000000 2.847553
v 2.591070 2.150000 1.301264
v 1.301264 2.150000 2.591070
v 1.301264 2.000000 2.591070
v 2.591070 2.000000 1.301264
v 3.426546 2.150000 2.136740
v 2.136740 2.150000 3.426545
v 2.136740 2.000000 3.426545
v 3.426546 2.000000 2.136740
v -3.240718 2.000000 2.263592
v -2.263592 2.000000 3.240718
v -1.870427 2.000000 2.847553
v -2.847553 2.000000 1.870427
v -1.301264 2.150000 2.591070
v -2.591070 2.150000 1.301264
v -2.591070 2.000000 1.301264
v -1.301264 2.000000 2.591070
v -2.136740 2.150000 3.426545
v -3.426546 2.150000 2.136740
v -3.426546 2.000000 2.136740
v -2.136740 2.000000 3.426545
v 3.633884 0.500000 -2.656758
v 2.656758 0.500000 -3.633884
v 2.378748 1.500000 -3.355874
v 3.355874 1.500000 -2.378748
v 2.656758 -0.000000 -3.633884
v 3.633884 -0.000000 -2.656758
v 3.240718 -0.000000 -2.263592
v 2.263592 -0.000000 -3.240718
v -2.656758 0.500000 -3.633884
v -3.633884 0.500000 -2.656758
v -3.355874 1.500000 -2.378748
v -2.378748 1.500000 -3.355874
v -3.633884 -0.000000 -2.656758
v -2.656758 -0.000000 -3.633884
v -2.263592 -0.000000 -3.240718
v -3.240718 -0.000000 -2.263592
v 2.656758 0.500000 3.633884
v 3.633884 0.500000 2.656758
v 3.355874 1.500000 2.378748
v 2.378748 1.500000 3.355874
v 3.633884 0.000000 2.656758
v 2.656758 0.000000 3.633884
v 2.263592 0.000000 3.240718
v 3.240718 0.000000 2.263592
v -3.633884 0.500000 2.656758
v -2.656758 0.500000 3.633884
v -2.378748 1.500000 3.355874
v -3.355874 1.500000 2.378748
v -2.656758 0.000000 3.633884
v -3.633884 0.000000 2.656758
v -3.240718 0.000000 2.263592
v -2.263592 0.000000 3.240718
v -1.870427 0.000000 2.847553
v -2.847553 0.500000 1.870427
v -1.870427 0.500000 2.847553
v -2.847553 -0.000000 -1.870427
v -1.870427 -0.000000 -2.847553
v -1.870427 0.500000 -2.847553
v -2.847553 0.500000 -1.870427
v 1.870427 -0.000000 -2.847553
v 2.847553 -0.000000 -1.870427
v 2.847553 0.500000 -1.870427
v 1.870427 0.500000 -2.847553
v 2.847553 0.000000 1.870427
v 1.870427 0.000000 2.847553
v 1.870427 0.500000 2.847553
v 2.847553 0.500000 1.870427
v -1.934947 2.187500 -0.801481
v -0.801481 2.187500 -1.934948
v -0.994942 2.187500 -2.714504
v -2.714504 2.187500 -0.994943
v -1.934947 2.187500 0.801481
v -2.714504 2.187500 0.994942
v 0.801481 2.187500 1.934947
v -0.801481 2.187500 1.934947
v -0.994942 2.187500 2.714504
v 0.994942 2.187500 2.714504
v 1.934947 2.187500 0.801481
v 2.714504 2.187500 0.994942
v 1.934947 2.187500 -0.801481
v 2.714504 2.187500 -0.994943
v 0.801481 2.187500 -1.934948
v 0.994942 2.187500 -2.714504
v -1.934947 2.625000 -0.801481
v -0.801481 2.625000 -1.934948
v -0.994942 2.625000 -2.402004
v -2.402004 2.625000 -0.994943
v -1.934947 2.625000 0.801481
v -2.402004 2.625000 0.994942
v 0.801481 2.625000 1.934947
v -0.801481 2.625000 1.934947
v -0.994942 2.625000 2.402004
v 0.994942 2.625000 2.402004
v 1.934947 2.625000 0.801481
v 2.402004 2.625000 0.994942
v 1.934947 2.625000 -0.801481
v 2.402004 2.625000 -0.994943
v 0.801481 2.625000 -1.934948
v 0.994942 2.625000 -2.402004
v 2.136740 2.587500 3.426545
v 3.426546 2.587500 2.136740
v 2.591070 2.587500 1.301264
v 1.301264 2.587500 2.591070
v 3.426546 2.587500 -2.136740
v 2.136740 2.587500 -3.426546
v 1.301264 2.587500 -2.591070
v 2.591070 2.587500 -1.301264
v -2.136740 2.587500 -3.426546
v -3.426546 2.587500 -2.136740
v -2.591070 2.587500 -1.301264
v -1.301264 2.587500 -2.591070
v -3.426546 2.587500 2.136740
v -2.136740 2.587500 3.426545
v -1.301264 2.587500 2.591070
v -2.591070 2.587500 1.301264
v -3.082726 3.587500 2.437822
v -2.437823 3.587500 3.082725
v -1.832584 3.587500 2.477487
v -2.477488 3.587500 1.832584
v -2.437823 3.587500 -3.082726
v -3.082726 3.587500 -2.437823
v -2.477488 3.587500 -1.832585
v -1.832584 3.587500 -2.477488
v 3.082726 3.587500 -2.437823
v 2.437823 3.587500 -3.082726
v 1.832584 3.587500 -2.477488
v 2.477488 3.587500 -1.832585
v 2.437823 3.587500 3.082725
v 3.082726 3.587500 2.437822
v 2.477488 3.587500 1.832584
v 1.832584 3.587500 2.477487
v 0.187500 0.687500 -3.312500
v 0.187500 0.687500 -3.499375
v 0.187500 0.312500 -3.312500
v 0.187500 0.312500 -3.499375
v -0.187500 0.687500 -3.312500
v -0.187500 0.687500 -3.499375
v -0.187500 0.312500 -3.312500
v -0.187500 0.312500 -3.499375
v 0.093750 0.593750 -3.499375
v 0.093750 0.406250 -3.499375
v -0.093750 0.593750 -3.499375
v -0.093750 0.406250 -3.499375
v 0.093750 0.593750 -3.375000
v 0.093750 0.406250 -3.375000
v -0.093750 0.593750 -3.375000
v -0.093750 0.406250 -3.375000
v -0.187500 0.687500 3.312500
v -0.187500 0.687500 3.499375
v -0.187500 0.312500 3.312500
v -0.187500 0.312500 3.499375
v 0.187500 0.687500 3.312500
v 0.187500 0.687500 3.499375
v 0.187500 0.312500 3.312500
v 0.187500 0.312500 3.499375
v -0.093750 0.593750 3.499375
v -0.093750 0.406250 3.499375
v 0.093750 0.593750 3.499375
v 0.093750 0.406250 3.499375
v -0.093750 0.593750 3.375000
v -0.093750 0.406250 3.375000
v 0.093750 0.593750 3.375000
v 0.093750 0.406250 3.375000
v -3.312500 1.687500 -0.187500
v -3.312500 1.312500 -0.187500
v -3.312500 1.687500 0.187500
v -3.312500 1.312500 0.187500
v 0.187500 1.687500 -3.312500
v 0.187500 1.312500 -3.312500
v -0.187500 1.687500 -3.312500
v -0.187500 1.312500 -3.312500
v 3.312500 1.687500 0.187500
v 3.312500 1.312500 0.187500
v 3.312500 1.687500 -0.187500
v 3.312500 1.312500 -0.187500
v -0.187500 1.687500 3.312500
v -0.187500 1.312500 3.312500
v 0.187500 1.687500 3.312500
v 0.187500 1.312500 3.312500
v -3.312500 0.687500 -0.187500
v -3.499375 0.687500 -0.187500
v -3.312500 0.312500 -0.187500
v -3.499375 0.312500 -0.187500
v -3.312500 0.687500 0.187500
v -3.499375 0.687500 0.187500
v -3.312500 0.312500 0.187500
v -3.499375 0.312500 0.187500
v -3.499375 0.593750 -0.093750
v -3.499375 0.406250 -0.093750
v -3.499375 0.593750 0.093750
v -3.499375 0.406250 0.093750
v -3.375000 0.593750 -0.093750
v -3.375000 0.406250 -0.093750
v -3.375000 0.593750 0.093750
v -3.375000 0.406250 0.093750
v 3.312500 0.687500 0.187500
v 3.499375 0.687500 0.187500
v 3.312500 0.312500 0.187500
v 3.499375 0.312500 0.187500
v 3.312500 0.687500 -0.187500
v 3.499375 0.687500 -0.187500
v 3.312500 0.312500 -0.187500
v 3.499375 0.312500 -0.187500
v 3.499375 0.593750 0.093750
v 3.499375 0.406250 0.093750
v 3.499375 0.593750 -0.093750
v 3.499375 0.406250 -0.093750
v 3.375000 0.593750 0.093750
v 3.375000 0.406250 0.093750
v 3.375000 0.593750 -0.093750
v 3.375000 0.406250 -0.093750
vn -0.0000 -1.0000 -0.0000
vn 0.6581 0.3659 0.6581
vn -0.0000 1.0000 -0.0000
vn 1.0000 -0.0000 -0.0000
vn 0.6581 0.3659 -0.6581
vn -0.6581 0.3659 -0.6581
vn -1.0000 -0.0000 -0.0000
vn -0.6581 0.3659 0.6581
vn -0.0000 -0.0000 1.0000
vn -0.9857 0.1686 -0.0000
vn -0.7020 0.1201 0.7020
vn -0.0000 0.1686 0.9857
vn 0.9857 0.1686 -0.0000
vn 0.7020 0.1201 0.7020
vn 0.7020 0.1201 -0.7020
vn -0.0000 0.1686 -0.9857
vn -0.7020 0.1201 -0.7020
vn -0.7071 -0.0000 0.7071
vn 0.7071 -0.0000 -0.7071
vn -0.0000 -0.0000 -1.0000
vn 0.7071 -0.0000 0.7071
vn -0.7071 -0.0000 -0.7071
vn -0.0000 0.6235 -0.7818
vn -0.5529 0.6235 0.5528
vn -0.6123 -0.5000 0.6124
vn -0.6124 -0.6124 0.5000
vn -0.5529 0.5528 -0.6235
vn -0.8660 -0.5000 -0.0000
vn -0.6312 0.4508 -0.6312
vn -0.8137 0.5812 -0.0000
vn -0.0000 0.5812 0.8137
vn -0.6312 0.4508 0.6312
vn 0.6312 0.4508 0.6312
vn 0.8137 0.5812 -0.0000
vn 0.6312 0.4508 -0.6312
vn -0.0000 0.5812 -0.8137
vn -0.7068 0.0302 0.7068
vn 0.6434 0.4149 0.6434
vn 0.6781 0.2833 -0.6781
vn -0.6434 0.4149 -0.6434
vn -0.7068 0.0302 -0.7068
vn -0.6434 0.4149 0.6434
vn 0.6781 0.2833 0.6781
vn 0.6434 0.4149 -0.6434
vn 0.7068 0.0302 -0.7068
vn -0.6781 0.2833 0.6781
vn 0.7068 0.0302 0.7068
vn -0.6781 0.2833 -0.6781
vn 0.7818 -0.6235 -0.0000
vn 0.6124 0.5000 -0.6123
vn 0.5528 -0.6235 -0.5529
vn 0.6124 0.6124 0.5000
vn 0.5528 -0.5529 -0.6235
vn -0.0000 0.5000 0.8660
vt 0.208746 0.938453
vt 0.147675 0.999523
vt 0.104492 0.895269
vt 0.341797 0.927626
vt 0.298809 0.960938
vt 0.298809 0.927626
vt 0.244400 0.937448
vt 0.262721 0.955769
vt 0.231445 0.968724
vt 0.208746 0.852086
vt 0.265625 0.574219
vt 0.179688 0.636719
vt 0.179688 0.574219
vt 0.262721 0.981679
vt 0.147675 0.791016
vt 0.298828 0.927626
vt 0.341816 0.960938
vt 0.298828 0.960938
vt 0.244400 1.000000
vt 0.061309 0.791016
vt 0.218490 1.000000
vt 0.000238 0.852086
vt 0.341602 0.927626
vt 0.200169 0.981679
vt 0.000238 0.938453
vt 0.200169 0.955769
vt 0.061309 0.999523
vt 0.218490 0.937448
vt 0.311444 0.722157
vt 0.326039 0.778295
vt 0.311444 0.772249
vt 0.282069 0.822266
vt 0.276023 0.807670
vt 0.219885 0.822266
vt 0.225930 0.807670
vt 0.190509 0.772249
vt 0.175914 0.716111
vt 0.190509 0.722157
vt 0.175914 0.778295
vt 0.219885 0.672140
vt 0.225930 0.686736
vt 0.282069 0.672140
vt 0.276023 0.686736
vt 0.326039 0.716111
vt 0.050781 0.621094
vt 0.025391 0.646484
vt 0.025391 0.621094
vt 0.142263 0.763672
vt 0.113281 0.789062
vt 0.116353 0.763672
vt 0.142241 0.763672
vt 0.113259 0.789062
vt 0.116331 0.763672
vt 0.269536 0.800781
vt 0.284643 0.764216
vt 0.298544 0.771773
vt 0.340892 0.779029
vt 0.298066 0.847656
vt 0.290509 0.829412
vt 0.228511 0.800781
vt 0.261979 0.786881
vt 0.211700 0.847656
vt 0.219257 0.829412
vt 0.199503 0.771773
vt 0.236069 0.786881
vt 0.150629 0.786586
vt 0.168874 0.779029
vt 0.199503 0.730749
vt 0.213404 0.764216
vt 0.150629 0.700219
vt 0.168874 0.707776
vt 0.228511 0.701740
vt 0.213404 0.738306
vt 0.211700 0.639149
vt 0.219257 0.657393
vt 0.269536 0.701740
vt 0.236068 0.715641
vt 0.298066 0.639149
vt 0.290509 0.657393
vt 0.298544 0.730749
vt 0.261978 0.715641
vt 0.359137 0.700219
vt 0.340892 0.707776
vt 0.284643 0.738306
vt 0.359137 0.786586
vt 0.337891 0.992188
vt 0.378906 0.986328
vt 0.378906 0.992188
vt 0.372070 0.920884
vt 0.429072 0.916197
vt 0.429072 0.920884
vt 0.101562 0.666016
vt 0.171875 0.660156
vt 0.171875 0.666016
vt 0.372686 0.921861
vt 0.429688 0.917173
vt 0.429688 0.921861
vt 0.371875 0.920689
vt 0.428877 0.916001
vt 0.428877 0.920689
vt 0.371904 0.920689
vt 0.428906 0.916001
vt 0.428906 0.920689
vt 0.021592 0.619141
vt 0.086366 0.603516
vt 0.064775 0.619141
vt 0.086366 0.666016
vt 0.064775 0.650391
vt 0.000000 0.666016
vt 0.021592 0.650391
vt 0.000000 0.603516
vt 0.021933 0.619141
vt 0.087734 0.603516
vt 0.065800 0.619141
vt 0.087734 0.666016
vt 0.065800 0.650391
vt 0.021933 0.650391
vt 0.123047 0.718750
vt 0.140625 0.761719
vt 0.123047 0.761719
vt 0.148430 0.556641
vt 0.165806 0.587891
vt 0.148430 0.587891
vt 0.496094 0.941406
vt 0.539062 0.923828
vt 0.539062 0.941406
vt 0.111126 0.587891
vt 0.093750 0.556641
vt 0.111126 0.556641
vt 0.539062 0.904297
vt 0.496094 0.921875
vt 0.496094 0.904297
vt 0.148640 0.556641
vt 0.166016 0.587891
vt 0.148640 0.587891
vt 0.416016 0.521484
vt 0.398438 0.478516
vt 0.416016 0.478516
vt 0.111531 0.587891
vt 0.094155 0.556641
vt 0.111531 0.556641
vt 0.513672 0.839844
vt 0.496094 0.796875
vt 0.513672 0.796875
vt 0.539062 0.777344
vt 0.496094 0.794922
vt 0.496094 0.777344
vt 0.496094 0.775391
vt 0.539062 0.757812
vt 0.539062 0.775391
vt 0.291016 0.460938
vt 0.308594 0.503906
vt 0.291016 0.503906
vt 0.111140 0.587891
vt 0.093764 0.556641
vt 0.111140 0.556641
vt 0.298828 0.910156
vt 0.341797 0.894531
vt 0.341797 0.910156
vt 0.148640 0.603516
vt 0.166016 0.603516
vt 0.094155 0.603516
vt 0.111531 0.603516
vt 0.429362 0.905078
vt 0.365234 0.906250
vt 0.372360 0.905078
vt 0.365234 0.900391
vt 0.372360 0.900391
vt 0.007632 1.000000
vt 0.000507 1.000000
vt 0.064634 1.000000
vt 0.436487 0.900391
vt 0.436487 0.906250
vt 0.263672 0.740234
vt 0.234375 0.767578
vt 0.234375 0.740234
vt 0.167969 0.610185
vt 0.131046 0.605498
vt 0.167969 0.605498
vt 0.136719 0.820312
vt 0.080078 0.857422
vt 0.080078 0.820312
vt 0.091983 0.605498
vt 0.128906 0.610185
vt 0.091983 0.610185
vt 0.148430 0.603516
vt 0.165806 0.603516
vt 0.093750 0.603516
vt 0.111126 0.603516
vt 0.428422 0.912891
vt 0.364295 0.914062
vt 0.371420 0.912891
vt 0.364295 0.908203
vt 0.371420 0.908203
vt 0.328125 0.777018
vt 0.328125 0.784143
vt 0.330078 0.720016
vt 0.435547 0.908203
vt 0.435547 0.914062
vt 0.234375 0.767383
vt 0.263672 0.767383
vt 0.167783 0.610576
vt 0.130859 0.605888
vt 0.167783 0.605888
vt 0.029297 0.867188
vt 0.066406 0.923828
vt 0.029297 0.923828
vt 0.091797 0.605498
vt 0.128720 0.610185
vt 0.091797 0.610185
vt 0.121094 0.484375
vt 0.164062 0.468750
vt 0.164062 0.484375
vt 0.000000 0.934860
vt 0.000000 0.927734
vt 0.000000 0.991862
vt 0.167783 0.610185
vt 0.130859 0.605498
vt 0.167783 0.605498
vt 0.066406 0.867188
vt 0.515625 0.832031
vt 0.558594 0.816406
vt 0.558594 0.832031
vt 0.093764 0.603516
vt 0.111140 0.603516
vt 0.586118 0.589844
vt 0.593243 0.589844
vt 0.529116 0.587891
vt 0.458984 0.679688
vt 0.515625 0.642578
vt 0.515625 0.679688
vt 0.106656 0.716082
vt 0.063834 0.697833
vt 0.076120 0.685547
vt 0.143551 0.587891
vt 0.271484 0.972656
vt 0.265625 0.929688
vt 0.271484 0.929688
vt 0.116620 0.587891
vt 0.128906 0.556641
vt 0.341816 0.912125
vt 0.298828 0.912125
vt 0.128906 0.541016
vt 0.111531 0.541016
vt 0.558594 0.798828
vt 0.515625 0.814453
vt 0.515625 0.798828
vt 0.148640 0.541016
vt 0.131264 0.556641
vt 0.131264 0.541016
vt 0.050833 0.718750
vt 0.032584 0.761571
vt 0.020298 0.749285
vt 0.143341 0.587891
vt 0.116215 0.587891
vt 0.128501 0.556641
vt 0.341602 0.912125
vt 0.298809 0.912125
vt 0.128501 0.541016
vt 0.111126 0.541016
vt 0.560547 0.673828
vt 0.517578 0.689453
vt 0.517578 0.673828
vt 0.148430 0.541016
vt 0.131055 0.556641
vt 0.131055 0.541016
vt 0.044870 0.773858
vt 0.063119 0.731037
vt 0.075406 0.743323
vt 0.265625 0.972656
vt 0.341797 0.912125
vt 0.560547 0.656250
vt 0.517578 0.671875
vt 0.517578 0.656250
vt 0.051548 0.710120
vt 0.094369 0.728369
vt 0.082083 0.740655
vt 0.116229 0.587891
vt 0.128516 0.556641
vt 0.128516 0.541016
vt 0.111140 0.541016
vt 0.560547 0.638672
vt 0.517578 0.654297
vt 0.517578 0.638672
vt 0.093764 0.541016
vt 0.435547 0.501953
vt 0.417969 0.458984
vt 0.435547 0.458984
vt 0.166016 0.556641
vt 0.166016 0.541016
vt 0.063119 0.731036
vt 0.093750 0.541016
vt 0.539062 0.738281
vt 0.496094 0.755859
vt 0.496094 0.738281
vt 0.165806 0.556641
vt 0.165806 0.541016
vt 0.094369 0.728368
vt 0.094155 0.541016
vt 0.437500 0.458984
vt 0.455078 0.501953
vt 0.437500 0.501953
vt 0.032584 0.761572
vt 0.501953 0.511719
vt 0.544922 0.494141
vt 0.544922 0.511719
vt 0.000080 0.753642
vt 0.040035 0.778116
vt 0.035501 0.789062
vt 0.329260 0.998819
vt 0.274342 0.949617
vt 0.275523 0.945083
vt 0.000080 0.703549
vt 0.011026 0.749107
vt 0.274342 0.878365
vt 0.275523 0.882899
vt 0.085593 0.668128
vt 0.040035 0.679075
vt 0.035501 0.668128
vt 0.329260 0.829162
vt 0.395978 0.827982
vt 0.391444 0.829162
vt 0.011026 0.708083
vt 0.324725 0.827982
vt 0.121014 0.703549
vt 0.081059 0.679075
vt 0.446361 0.878365
vt 0.445180 0.882899
vt 0.121014 0.753642
vt 0.110067 0.708083
vt 0.446361 0.949617
vt 0.445180 0.945083
vt 0.085593 0.789062
vt 0.110067 0.749107
vt 0.395978 1.000000
vt 0.391444 0.998819
vt 0.081059 0.778116
vt 0.324725 1.000000
vt 0.214844 0.917969
vt 0.265625 0.904297
vt 0.265625 0.917969
vt 0.190676 0.570312
vt 0.259766 0.554688
vt 0.252860 0.570312
vt 0.320312 0.982422
vt 0.382812 0.964844
vt 0.382812 0.982422
vt 0.252683 0.570312
vt 0.183594 0.554688
vt 0.259588 0.554688
vt 0.371904 0.934361
vt 0.428906 0.934361
vt 0.091797 0.623857
vt 0.128720 0.623857
vt 0.001367 0.568978
vt 0.058369 0.555306
vt 0.058369 0.568978
vt 0.130859 0.623857
vt 0.167783 0.623857
vt 0.372070 0.934556
vt 0.429072 0.934556
vt 0.091983 0.623857
vt 0.128906 0.623857
vt 0.330078 0.848274
vt 0.387080 0.834603
vt 0.387080 0.848274
vt 0.131046 0.623857
vt 0.167969 0.623857
vt 0.372686 0.935533
vt 0.429688 0.935533
vt 0.001592 0.568978
vt 0.058594 0.555306
vt 0.058594 0.568978
vt 0.130859 0.624248
vt 0.167783 0.624248
vt 0.371875 0.934361
vt 0.428877 0.934361
vt 0.386126 0.965625
vt 0.414626 0.965625
vt 0.119675 0.658203
vt 0.344329 0.880859
vt 0.372829 0.880859
vt 0.140276 0.658203
vt 0.167024 0.658203
vt 0.415437 0.966797
vt 0.119489 0.658203
vt 0.015842 0.601562
vt 0.044343 0.601562
vt 0.140090 0.658203
vt 0.166838 0.658203
vt 0.386321 0.965820
vt 0.414822 0.965820
vt 0.414656 0.965625
vt 0.015618 0.601562
vt 0.044119 0.601562
vt 0.171875 0.986328
vt 0.183594 0.992188
vt 0.171875 0.992188
vt 0.183559 0.986226
vt 0.171910 0.992289
vt 0.171842 0.986528
vt 0.183594 0.986328
vt 0.011719 0.972656
vt 0.000000 0.960938
vt 0.011719 0.960938
vt 0.187500 0.990234
vt 0.195312 0.982422
vt 0.195312 0.990234
vt 0.194336 0.989258
vt 0.185547 0.992188
vt 0.188477 0.989258
vt 0.185547 0.980469
vt 0.188477 0.983398
vt 0.197266 0.980469
vt 0.194336 0.983398
vt 0.197266 0.992188
vt 0.187500 0.984375
vt 0.195312 0.984375
vt 0.189453 0.990234
vt 0.187500 0.982422
vt 0.189453 0.982422
vt 0.171875 0.980469
vt 0.183594 0.980469
vt 0.197266 0.978516
vt 0.185547 0.966797
vt 0.197266 0.966797
vt 0.011719 0.787109
vt 0.000000 0.775391
vt 0.011719 0.775391
vt 0.085938 0.767578
vt 0.074219 0.755859
vt 0.085938 0.755859
vt 0.263672 0.939453
vt 0.251953 0.927734
vt 0.263672 0.927734
vt 0.025391 0.740234
vt 0.013672 0.728516
vt 0.025391 0.728516
vt 0.039062 0.726562
vt 0.027344 0.714844
vt 0.039062 0.714844
vt 0.341797 0.960938
vt 0.265625 0.636719
vt 0.341816 0.927626
vt 0.341602 0.960938
vt 0.050781 0.646484
vt 0.145334 0.789062
vt 0.145313 0.789062
vt 0.337891 0.986328
vt 0.372070 0.916197
vt 0.101562 0.660156
vt 0.372686 0.917173
vt 0.371875 0.916001
vt 0.371904 0.916001
vt 0.140625 0.718750
vt 0.496094 0.923828
vt 0.093750 0.587891
vt 0.539062 0.921875
vt 0.398438 0.521484
vt 0.094155 0.587891
vt 0.496094 0.839844
vt 0.539062 0.794922
vt 0.496094 0.757812
vt 0.308594 0.460938
vt 0.093764 0.587891
vt 0.298828 0.894531
vt 0.071759 1.000000
vt 0.429362 0.900391
vt 0.263672 0.767578
vt 0.131046 0.610185
vt 0.136719 0.857422
vt 0.128906 0.605498
vt 0.330078 0.712891
vt 0.428422 0.908203
vt 0.130859 0.610576
vt 0.128720 0.605498
vt 0.121094 0.468750
vt 0.000000 0.998987
vt 0.130859 0.610185
vt 0.515625 0.816406
vt 0.521991 0.587891
vt 0.458984 0.642578
vt 0.558594 0.814453
vt 0.560547 0.689453
vt 0.560547 0.671875
vt 0.560547 0.654297
vt 0.417969 0.501953
vt 0.539062 0.755859
vt 0.455078 0.458984
vt 0.501953 0.494141
vt 0.214844 0.904297
vt 0.183771 0.554688
vt 0.320312 0.964844
vt 0.190499 0.570312
vt 0.001367 0.555306
vt 0.330078 0.834603
vt 0.001592 0.555306
vt 0.092927 0.658203
vt 0.386936 0.966797
vt 0.092741 0.658203
vt 0.386155 0.965625
vt 0.183627 0.991988
vt 0.000000 0.972656
vt 0.185547 0.978516
vt 0.000000 0.787109
vt 0.074219 0.767578
vt 0.251953 0.939453
vt 0.013672 0.740234
vt 0.027344 0.726562
s 1
f 5/1/1 3/2/1 2/3/1
f 165/4/2 167/5/2 164/6/2
f 35/7/3 27/8/3 29/9/3
f 7/10/1 5/1/1 2/3/1
f 7/11/4 6/12/4 5/13/4
f 27/8/3 28/14/3 29/9/3
f 9/15/1 7/10/1 2/3/1
f 148/16/5 150/17/5 151/18/5
f 28/14/3 30/19/3 29/9/3
f 11/20/1 9/15/1 2/3/1
f 30/19/3 31/21/3 29/9/3
f 13/22/1 11/20/1 2/3/1
f 157/23/6 159/5/6 156/6/6
f 31/21/3 32/24/3 29/9/3
f 15/25/1 13/22/1 2/3/1
f 15/11/7 14/12/7 13/13/7
f 32/24/3 33/26/3 29/9/3
f 17/27/1 15/25/1 2/3/1
f 172/16/8 174/17/8 175/18/8
f 33/26/3 34/28/3 29/9/3
f 3/2/1 17/27/1 2/3/1
f 3/11/9 18/12/9 17/13/9
f 34/28/3 35/7/3 29/9/3
f 221/29/3 224/30/3 223/31/3
f 223/31/3 226/32/3 225/33/3
f 225/33/3 213/34/3 212/35/3
f 211/36/3 216/37/3 215/38/3
f 212/35/3 214/39/3 211/36/3
f 215/38/3 219/40/3 218/41/3
f 218/41/3 220/42/3 217/43/3
f 217/43/3 222/44/3 221/29/3
f 27/45/10 20/46/10 28/47/10
f 28/48/11 21/49/11 30/50/11
f 30/45/12 22/46/12 31/47/12
f 32/45/13 24/46/13 33/47/13
f 31/51/14 23/52/14 32/53/14
f 33/48/15 25/49/15 34/50/15
f 34/45/16 26/46/16 35/47/16
f 35/51/17 19/52/17 27/53/17
f 36/54/3 20/55/3 37/56/3
f 38/57/3 10/58/3 39/59/3
f 40/60/3 21/61/3 36/54/3
f 39/59/3 12/62/3 41/63/3
f 42/64/3 22/65/3 40/60/3
f 41/63/3 14/66/3 43/67/3
f 44/68/3 23/69/3 42/64/3
f 43/67/3 16/70/3 45/71/3
f 46/72/3 24/73/3 44/68/3
f 45/71/3 18/74/3 47/75/3
f 48/76/3 25/77/3 46/72/3
f 47/75/3 4/78/3 49/79/3
f 50/80/3 26/81/3 48/76/3
f 49/79/3 6/82/3 51/83/3
f 37/56/3 19/84/3 50/80/3
f 51/83/3 8/85/3 38/57/3
f 52/86/18 37/87/18 53/88/18
f 109/89/19 111/90/19 108/91/19
f 56/86/9 36/87/9 52/88/9
f 55/92/20 41/93/20 57/94/20
f 58/86/21 40/87/21 56/88/21
f 121/95/22 123/96/22 120/97/22
f 60/86/4 42/87/4 58/88/4
f 59/92/7 45/93/7 61/94/7
f 62/86/19 44/87/19 60/88/19
f 145/98/18 147/99/18 144/100/18
f 64/86/20 46/87/20 62/88/20
f 63/92/9 49/93/9 65/94/9
f 66/86/22 48/87/22 64/88/22
f 133/101/21 135/102/21 132/103/21
f 53/86/7 50/87/7 66/88/7
f 67/92/4 38/93/4 54/94/4
f 68/104/22 13/105/22 69/106/22
f 69/106/22 14/107/22 70/108/22
f 70/108/22 12/109/22 71/110/22
f 71/110/22 11/111/22 68/104/22
f 72/112/19 9/113/19 73/114/19
f 73/114/19 10/115/19 74/116/19
f 74/116/19 8/109/19 75/117/19
f 75/117/19 7/111/19 72/112/19
f 76/118/1 69/119/1 77/120/1
f 77/121/18 70/122/18 78/123/18
f 113/124/3 115/125/3 112/126/3
f 79/127/19 68/128/19 76/129/19
f 80/130/1 73/131/1 81/132/1
f 81/133/22 74/134/22 82/135/22
f 101/136/3 103/137/3 100/138/3
f 83/139/21 72/140/21 80/141/21
f 84/112/21 5/113/21 85/114/21
f 85/114/21 6/115/21 86/116/21
f 86/116/21 4/109/21 87/117/21
f 87/117/21 3/111/21 84/112/21
f 88/112/18 17/113/18 89/114/18
f 89/114/18 18/115/18 90/116/18
f 90/116/18 16/109/18 91/117/18
f 91/117/18 15/111/18 88/112/18
f 92/142/1 85/143/1 93/144/1
f 93/121/19 86/122/19 94/123/19
f 125/145/3 127/146/3 124/147/3
f 95/127/18 84/128/18 92/129/18
f 96/148/1 89/149/1 97/150/1
f 97/133/21 90/134/21 98/135/21
f 137/151/3 139/152/3 136/153/3
f 99/154/22 88/155/22 96/156/22
f 100/157/19 82/158/19 101/159/19
f 101/160/22 74/134/22 102/161/22
f 102/157/18 75/158/18 103/159/18
f 103/162/21 83/139/21 100/163/21
f 104/164/19 54/165/19 105/166/19
f 105/166/19 38/167/19 106/168/19
s 0
f 107/169/23 39/170/24 106/171/25
s 1
f 104/164/19 39/172/19 55/173/19
f 252/174/3 254/175/3 251/176/3
f 109/177/21 106/178/21 110/179/21
f 110/180/1 107/181/1 111/182/1
f 111/183/22 104/184/22 108/185/22
f 112/157/22 78/158/22 113/159/22
f 113/186/18 70/122/18 114/187/18
f 114/157/21 71/158/21 115/159/21
f 115/188/19 79/127/19 112/189/19
f 116/190/22 57/191/22 117/192/22
f 117/192/22 41/193/22 118/194/22
s 0
f 119/195/26 43/196/3 118/197/3
s 1
f 116/190/22 43/198/22 59/199/22
f 248/200/3 250/174/3 247/201/3
f 121/202/19 118/203/19 122/204/19
f 122/205/1 119/206/1 123/207/1
f 123/208/18 116/209/18 120/210/18
f 124/157/21 94/158/21 125/159/21
f 125/186/19 86/122/19 126/187/19
f 126/211/22 87/212/22 127/213/22
f 127/188/18 95/127/18 124/189/18
f 128/190/21 65/191/21 129/192/21
f 129/192/21 49/193/21 130/194/21
s 0
f 131/214/27 51/215/3 130/216/3
s 1
f 128/190/21 51/198/21 67/199/21
f 256/174/3 258/175/3 255/176/3
f 133/217/18 130/218/18 134/219/18
f 134/206/1 131/205/1 135/220/1
f 135/208/19 128/209/19 132/210/19
f 136/157/18 98/158/18 137/159/18
f 137/160/21 90/134/21 138/161/21
f 138/221/19 91/222/19 139/223/19
f 139/224/22 99/154/22 136/225/22
f 140/164/18 61/165/18 141/166/18
f 141/166/18 45/167/18 142/168/18
f 143/226/28 47/227/25 142/228/24
f 140/164/18 47/172/18 63/173/18
f 244/174/3 246/175/3 243/176/3
f 145/177/22 142/178/22 146/179/22
f 146/229/1 143/230/1 147/231/1
f 147/183/21 140/184/21 144/185/21
f 153/232/1 155/233/1 152/234/1
f 150/235/22 81/133/22 82/135/22
f 150/236/3 83/237/3 151/238/3
f 151/239/21 80/141/21 148/240/21
f 152/241/19 148/16/19 153/242/19
f 153/243/21 80/141/21 154/244/21
f 188/245/18 190/246/18 187/247/18
f 155/248/22 149/249/22 152/250/22
f 161/251/1 163/252/1 160/253/1
f 158/254/18 77/121/18 78/123/18
f 158/236/3 79/237/3 159/238/3
f 159/255/19 76/129/19 156/256/19
f 160/257/22 156/6/22 161/258/22
f 161/259/19 76/129/19 162/260/19
f 184/261/21 186/262/21 183/263/21
f 163/264/18 157/265/18 160/266/18
f 169/267/1 171/268/1 168/269/1
f 166/254/19 93/121/19 94/123/19
f 166/237/3 95/236/3 167/270/3
f 167/255/18 92/129/18 164/256/18
f 168/271/21 164/6/21 169/258/21
f 169/259/18 92/129/18 170/260/18
f 192/272/22 194/273/22 191/274/22
f 171/264/19 165/265/19 168/266/19
f 177/275/1 179/276/1 176/277/1
f 174/235/21 97/133/21 98/135/21
f 174/237/3 99/236/3 175/270/3
f 175/278/22 96/156/22 172/279/22
f 176/241/18 172/16/18 177/242/18
f 177/280/22 96/156/22 178/281/22
f 1/282/19 182/283/19 180/284/19
f 179/248/21 173/249/21 176/250/21
f 180/232/1 178/233/1 1/234/1
f 1/285/22 96/156/22 181/155/22
f 181/286/3 97/287/3 182/288/3
f 182/289/21 179/248/21 180/290/21
f 183/267/1 162/291/1 184/269/1
f 184/292/19 76/129/19 185/128/19
f 185/293/3 77/294/3 186/295/3
f 186/296/18 163/264/18 183/297/18
f 187/275/1 154/298/1 188/277/1
f 188/299/21 80/141/21 189/140/21
f 189/300/3 81/301/3 190/302/3
f 190/289/22 155/248/22 187/290/22
f 191/251/1 170/303/1 192/253/1
f 192/292/18 92/129/18 193/128/18
f 193/304/3 93/305/3 194/306/3
f 194/296/19 171/264/19 191/297/19
f 195/307/3 56/308/3 196/309/3
f 197/310/3 59/311/3 198/312/3
f 199/313/3 58/314/3 195/307/3
f 198/312/3 61/315/3 200/316/3
f 201/317/3 62/318/3 202/319/3
f 203/320/3 65/321/3 204/322/3
f 202/319/3 60/323/3 199/313/3
f 200/316/3 63/324/3 203/320/3
f 205/325/3 64/326/3 201/317/3
f 204/322/3 67/327/3 206/328/3
f 207/329/3 66/330/3 205/325/3
f 206/328/3 54/331/3 208/332/3
f 209/333/3 53/334/3 207/329/3
f 208/332/3 55/335/3 210/336/3
f 196/309/3 52/337/3 209/333/3
f 210/336/3 57/338/3 197/310/3
f 211/339/21 196/340/21 212/341/21
f 213/342/29 198/343/29 214/344/29
f 215/339/4 195/340/4 211/341/4
f 214/345/30 200/346/30 216/347/30
f 217/339/20 202/340/20 218/341/20
f 219/345/31 204/346/31 220/347/31
f 218/339/19 199/340/19 215/341/19
f 219/348/32 200/349/32 203/350/32
f 221/339/22 201/340/22 217/341/22
f 220/342/33 206/343/33 222/344/33
f 223/339/7 205/340/7 221/341/7
f 222/345/34 208/346/34 224/347/34
f 225/339/18 207/340/18 223/341/18
f 226/348/35 208/349/35 210/350/35
f 212/339/9 209/340/9 225/341/9
f 226/345/36 197/346/36 213/347/36
f 227/351/21 132/103/21 228/352/21
f 228/353/19 128/209/19 229/354/19
f 229/355/22 129/356/22 230/357/22
f 230/358/18 133/217/18 227/359/18
f 231/360/19 108/91/19 232/361/19
f 232/362/22 104/184/22 233/363/22
f 233/364/18 105/365/18 234/366/18
f 234/367/21 109/177/21 231/368/21
f 235/369/22 120/97/22 236/370/22
f 236/353/18 116/209/18 237/354/18
f 237/371/21 117/372/21 238/373/21
f 238/374/19 121/202/19 235/375/19
f 239/376/18 144/100/18 240/377/18
f 240/362/21 140/184/21 241/363/21
f 241/364/19 141/365/19 242/366/19
f 242/367/22 145/177/22 239/368/22
f 243/378/37 240/377/37 244/379/37
f 245/380/38 240/362/38 241/363/38
f 245/381/39 242/366/39 246/382/39
f 246/383/40 239/368/40 243/384/40
f 248/385/41 235/369/41 236/370/41
f 249/386/42 236/353/42 237/354/42
f 249/387/43 238/373/43 250/388/43
f 250/389/44 235/359/44 247/390/44
f 251/391/45 232/361/45 252/392/45
f 253/380/40 232/362/40 233/363/40
f 253/381/46 234/366/46 254/382/46
f 254/383/38 231/368/38 251/384/38
f 256/393/47 227/351/47 228/352/47
f 257/386/44 228/353/44 229/354/44
f 257/394/48 230/357/48 258/395/48
f 258/389/42 227/359/42 255/390/42
f 259/396/4 262/397/4 260/398/4
f 263/399/7 266/400/7 265/401/7
f 259/402/3 264/398/3 263/396/3
f 261/397/1 266/396/1 262/402/1
f 259/403/9 265/404/9 261/405/9
f 271/406/20 274/407/20 273/408/20
f 269/409/20 260/410/20 267/411/20
f 267/411/20 262/412/20 268/413/20
f 268/413/20 266/414/20 270/415/20
f 270/415/20 264/416/20 269/409/20
f 273/417/1 267/407/1 271/418/1
f 271/419/7 268/420/7 272/421/7
f 272/407/3 270/417/3 274/420/3
f 274/420/4 269/419/4 273/406/4
f 275/396/7 278/397/7 276/398/7
f 279/398/4 282/402/4 281/397/4
f 275/398/3 280/402/3 279/397/3
f 277/396/1 282/397/1 278/398/1
f 275/397/20 281/422/20 277/423/20
f 287/406/9 290/407/9 289/408/9
f 285/409/9 276/410/9 283/411/9
f 283/411/9 278/412/9 284/413/9
f 284/413/9 282/414/9 286/415/9
f 286/415/9 280/416/9 285/409/9
f 289/407/1 283/417/1 287/420/1
f 287/419/4 284/420/4 288/421/4
f 288/417/3 286/407/3 290/418/3
f 290/420/7 285/419/7 289/406/7
f 291/424/4 294/425/4 292/426/4
f 295/427/9 298/428/9 296/429/9
f 299/430/7 302/431/7 300/432/7
f 303/433/20 306/434/20 304/435/20
f 307/396/20 310/397/20 308/398/20
f 311/398/9 314/402/9 313/397/9
f 307/398/3 312/402/3 311/397/3
f 309/397/1 314/396/1 310/402/1
f 307/436/4 313/437/4 309/438/4
f 319/406/7 322/407/7 321/408/7
f 317/409/7 308/410/7 315/411/7
f 315/411/7 310/412/7 316/413/7
f 316/413/7 314/414/7 318/415/7
f 318/415/7 312/416/7 317/409/7
f 321/419/1 315/420/1 319/421/1
f 319/419/9 316/420/9 320/421/9
f 320/419/3 318/420/3 322/421/3
f 322/420/20 317/419/20 321/406/20
f 323/396/9 326/397/9 324/398/9
f 327/398/20 330/402/20 329/397/20
f 323/402/3 328/398/3 327/396/3
f 325/396/1 330/397/1 326/398/1
f 323/439/7 329/440/7 325/441/7
f 335/406/4 338/407/4 337/408/4
f 333/409/4 324/410/4 331/411/4
f 331/411/4 326/412/4 332/413/4
f 332/413/4 330/414/4 334/415/4
f 334/415/4 328/416/4 333/409/4
f 337/420/1 331/419/1 335/406/1
f 335/419/20 332/420/20 336/421/20
f 336/420/3 334/419/3 338/406/3
f 338/420/9 333/419/9 337/406/9
f 11/11/20 10/12/20 9/13/20
f 165/4/2 166/442/2 167/5/2
f 7/11/4 8/443/4 6/12/4
f 148/16/5 149/444/5 150/17/5
f 157/23/6 158/445/6 159/5/6
f 15/11/7 16/443/7 14/12/7
f 172/16/8 173/444/8 174/17/8
f 3/11/9 4/443/9 18/12/9
f 221/29/3 222/44/3 224/30/3
f 223/31/3 224/30/3 226/32/3
f 225/33/3 226/32/3 213/34/3
f 211/36/3 214/39/3 216/37/3
f 212/35/3 213/34/3 214/39/3
f 215/38/3 216/37/3 219/40/3
f 218/41/3 219/40/3 220/42/3
f 217/43/3 220/42/3 222/44/3
f 27/45/10 19/446/10 20/46/10
f 28/48/11 20/447/11 21/49/11
f 30/45/12 21/446/12 22/46/12
f 32/45/13 23/446/13 24/46/13
f 31/51/14 22/448/14 23/52/14
f 33/48/15 24/447/15 25/49/15
f 34/45/16 25/446/16 26/46/16
f 35/51/17 26/448/17 19/52/17
f 36/54/3 21/61/3 20/55/3
f 38/57/3 8/85/3 10/58/3
f 40/60/3 22/65/3 21/61/3
f 39/59/3 10/58/3 12/62/3
f 42/64/3 23/69/3 22/65/3
f 41/63/3 12/62/3 14/66/3
f 44/68/3 24/73/3 23/69/3
f 43/67/3 14/66/3 16/70/3
f 46/72/3 25/77/3 24/73/3
f 45/71/3 16/70/3 18/74/3
f 48/76/3 26/81/3 25/77/3
f 47/75/3 18/74/3 4/78/3
f 50/80/3 19/84/3 26/81/3
f 49/79/3 4/78/3 6/82/3
f 37/56/3 20/55/3 19/84/3
f 51/83/3 6/82/3 8/85/3
f 52/86/18 36/449/18 37/87/18
f 109/89/19 110/450/19 111/90/19
f 56/86/9 40/449/9 36/87/9
f 55/92/20 39/451/20 41/93/20
f 58/86/21 42/449/21 40/87/21
f 121/95/22 122/452/22 123/96/22
f 60/86/4 44/449/4 42/87/4
f 59/92/7 43/451/7 45/93/7
f 62/86/19 46/449/19 44/87/19
f 145/98/18 146/453/18 147/99/18
f 64/86/20 48/449/20 46/87/20
f 63/92/9 47/451/9 49/93/9
f 66/86/22 50/449/22 48/87/22
f 133/101/21 134/454/21 135/102/21
f 53/86/7 37/449/7 50/87/7
f 67/92/4 51/451/4 38/93/4
f 68/104/22 11/111/22 13/105/22
f 69/106/22 13/105/22 14/107/22
f 70/108/22 14/107/22 12/109/22
f 71/110/22 12/109/22 11/111/22
f 72/112/19 7/111/19 9/113/19
f 73/114/19 9/113/19 10/115/19
f 74/116/19 10/115/19 8/109/19
f 75/117/19 8/109/19 7/111/19
f 76/118/1 68/455/1 69/119/1
f 77/121/18 69/296/18 70/122/18
f 113/124/3 114/456/3 115/125/3
f 79/127/19 71/457/19 68/128/19
f 80/130/1 72/458/1 73/131/1
f 81/133/22 73/289/22 74/134/22
f 101/136/3 102/459/3 103/137/3
f 83/139/21 75/460/21 72/140/21
f 84/112/21 3/111/21 5/113/21
f 85/114/21 5/113/21 6/115/21
f 86/116/21 6/115/21 4/109/21
f 87/117/21 4/109/21 3/111/21
f 88/112/18 15/111/18 17/113/18
f 89/114/18 17/113/18 18/115/18
f 90/116/18 18/115/18 16/109/18
f 91/117/18 16/109/18 15/111/18
f 92/142/1 84/461/1 85/143/1
f 93/121/19 85/296/19 86/122/19
f 125/145/3 126/462/3 127/146/3
f 95/127/18 87/457/18 84/128/18
f 96/148/1 88/463/1 89/149/1
f 97/133/21 89/289/21 90/134/21
f 137/151/3 138/464/3 139/152/3
f 99/154/22 91/465/22 88/155/22
f 100/157/19 83/466/19 82/158/19
f 101/160/22 82/135/22 74/134/22
f 102/157/18 74/466/18 75/158/18
f 103/162/21 75/460/21 83/139/21
f 104/164/19 55/173/19 54/165/19
f 105/166/19 54/165/19 38/167/19
s 0
f 107/169/49 38/467/50 39/170/51
s 1
f 104/164/19 107/468/19 39/172/19
f 252/174/3 253/469/3 254/175/3
f 109/177/21 105/470/21 106/178/21
f 110/180/1 106/471/1 107/181/1
f 111/183/22 107/472/22 104/184/22
f 112/157/22 79/466/22 78/158/22
f 113/186/18 78/123/18 70/122/18
f 114/157/21 70/466/21 71/158/21
f 115/188/19 71/457/19 79/127/19
f 116/190/22 59/199/22 57/191/22
f 117/192/22 57/191/22 41/193/22
s 0
f 119/195/52 41/473/3 43/196/3
s 1
f 116/190/22 119/474/22 43/198/22
f 248/200/3 249/176/3 250/174/3
f 121/202/19 117/475/19 118/203/19
f 122/205/1 118/220/1 119/206/1
f 123/208/18 119/476/18 116/209/18
f 124/157/21 95/466/21 94/158/21
f 125/186/19 94/123/19 86/122/19
f 126/211/22 86/477/22 87/212/22
f 127/188/18 87/457/18 95/127/18
f 128/190/21 67/199/21 65/191/21
f 129/192/21 65/191/21 49/193/21
s 0
f 131/214/53 49/478/3 51/215/3
s 1
f 128/190/21 131/474/21 51/198/21
f 256/174/3 257/469/3 258/175/3
f 133/217/18 129/479/18 130/218/18
f 134/206/1 130/207/1 131/205/1
f 135/208/19 131/476/19 128/209/19
f 136/157/18 99/466/18 98/158/18
f 137/160/21 98/135/21 90/134/21
f 138/221/19 90/480/19 91/222/19
f 139/224/22 91/465/22 99/154/22
f 140/164/18 63/173/18 61/165/18
f 141/166/18 61/165/18 45/167/18
f 143/226/54 45/481/51 47/227/50
f 140/164/18 143/468/18 47/172/18
f 244/174/3 245/469/3 246/175/3
f 145/177/22 141/470/22 142/178/22
f 146/229/1 142/482/1 143/230/1
f 147/183/21 143/472/21 140/184/21
f 153/232/1 154/298/1 155/233/1
f 150/235/22 149/249/22 81/133/22
f 150/236/3 82/270/3 83/237/3
f 151/239/21 83/139/21 80/141/21
f 152/241/19 149/444/19 148/16/19
f 153/243/21 148/240/21 80/141/21
f 188/245/18 189/483/18 190/246/18
f 155/248/22 81/133/22 149/249/22
f 161/251/1 162/291/1 163/252/1
f 158/254/18 157/265/18 77/121/18
f 158/236/3 78/270/3 79/237/3
f 159/255/19 79/127/19 76/129/19
f 160/257/22 157/23/22 156/6/22
f 161/259/19 156/256/19 76/129/19
f 184/261/21 185/484/21 186/262/21
f 163/264/18 77/121/18 157/265/18
f 169/267/1 170/303/1 171/268/1
f 166/254/19 165/265/19 93/121/19
f 166/237/3 94/238/3 95/236/3
f 167/255/18 95/127/18 92/129/18
f 168/271/21 165/4/21 164/6/21
f 169/259/18 164/256/18 92/129/18
f 192/272/22 193/485/22 194/273/22
f 171/264/19 93/121/19 165/265/19
f 177/275/1 178/233/1 179/276/1
f 174/235/21 173/249/21 97/133/21
f 174/237/3 98/238/3 99/236/3
f 175/278/22 99/154/22 96/156/22
f 176/241/18 173/444/18 172/16/18
f 177/280/22 172/279/22 96/156/22
f 1/282/19 181/486/19 182/283/19
f 179/248/21 97/133/21 173/249/21
f 180/232/1 179/276/1 178/233/1
f 1/285/22 178/281/22 96/156/22
f 181/286/3 96/487/3 97/287/3
f 182/289/21 97/133/21 179/248/21
f 183/267/1 163/252/1 162/291/1
f 184/292/19 162/260/19 76/129/19
f 185/293/3 76/488/3 77/294/3
f 186/296/18 77/121/18 163/264/18
f 187/275/1 155/233/1 154/298/1
f 188/299/21 154/244/21 80/141/21
f 189/300/3 80/489/3 81/301/3
f 190/289/22 81/133/22 155/248/22
f 191/251/1 171/268/1 170/303/1
f 192/292/18 170/260/18 92/129/18
f 193/304/3 92/490/3 93/305/3
f 194/296/19 93/121/19 171/264/19
f 195/307/3 58/314/3 56/308/3
f 197/310/3 57/338/3 59/311/3
f 199/313/3 60/323/3 58/314/3
f 198/312/3 59/311/3 61/315/3
f 201/317/3 64/326/3 62/318/3
f 203/320/3 63/324/3 65/321/3
f 202/319/3 62/318/3 60/323/3
f 200/316/3 61/315/3 63/324/3
f 205/325/3 66/330/3 64/326/3
f 204/322/3 65/321/3 67/327/3
f 207/329/3 53/334/3 66/330/3
f 206/328/3 67/327/3 54/331/3
f 209/333/3 52/337/3 53/334/3
f 208/332/3 54/331/3 55/335/3
f 196/309/3 56/308/3 52/337/3
f 210/336/3 55/335/3 57/338/3
f 211/339/21 195/491/21 196/340/21
f 213/342/29 197/492/29 198/343/29
f 215/339/4 199/491/4 195/340/4
f 214/345/30 198/493/30 200/346/30
f 217/339/20 201/491/20 202/340/20
f 219/345/31 203/493/31 204/346/31
f 218/339/19 202/491/19 199/340/19
f 219/348/32 216/494/32 200/349/32
f 221/339/22 205/491/22 201/340/22
f 220/342/33 204/492/33 206/343/33
f 223/339/7 207/491/7 205/340/7
f 222/345/34 206/493/34 208/346/34
f 225/339/18 209/491/18 207/340/18
f 226/348/35 224/494/35 208/349/35
f 212/339/9 196/491/9 209/340/9
f 226/345/36 210/493/36 197/346/36
f 227/351/21 133/101/21 132/103/21
f 228/353/19 132/210/19 128/209/19
f 229/355/22 128/495/22 129/356/22
f 230/358/18 129/479/18 133/217/18
f 231/360/19 109/89/19 108/91/19
f 232/362/22 108/185/22 104/184/22
f 233/364/18 104/496/18 105/365/18
f 234/367/21 105/470/21 109/177/21
f 235/369/22 121/95/22 120/97/22
f 236/353/18 120/210/18 116/209/18
f 237/371/21 116/497/21 117/372/21
f 238/374/19 117/475/19 121/202/19
f 239/376/18 145/98/18 144/100/18
f 240/362/21 144/185/21 140/184/21
f 241/364/19 140/496/19 141/365/19
f 242/367/22 141/470/22 145/177/22
f 243/378/37 239/376/37 240/377/37
f 245/380/38 244/498/38 240/362/38
f 245/381/39 241/364/39 242/366/39
f 246/383/40 242/367/40 239/368/40
f 248/385/41 247/499/41 235/369/41
f 249/386/42 248/500/42 236/353/42
f 249/387/43 237/371/43 238/373/43
f 250/389/44 238/358/44 235/359/44
f 251/391/45 231/360/45 232/361/45
f 253/380/40 252/498/40 232/362/40
f 253/381/46 233/364/46 234/366/46
f 254/383/38 234/367/38 231/368/38
f 256/393/47 255/501/47 227/351/47
f 257/386/44 256/500/44 228/353/44
f 257/394/48 229/355/48 230/357/48
f 258/389/42 230/358/42 227/359/42
f 259/396/4 261/402/4 262/397/4
f 263/399/7 264/502/7 266/400/7
f 259/402/3 260/397/3 264/398/3
f 261/397/1 265/398/1 266/396/1
f 259/403/9 263/503/9 265/404/9
f 271/406/20 272/420/20 274/407/20
f 269/409/20 264/416/20 260/410/20
f 267/411/20 260/410/20 262/412/20
f 268/413/20 262/412/20 266/414/20
f 270/415/20 266/414/20 264/416/20
f 273/417/1 269/420/1 267/407/1
f 271/419/7 267/406/7 268/420/7
f 272/407/3 268/418/3 270/417/3
f 274/420/4 270/421/4 269/419/4
f 275/396/7 277/402/7 278/397/7
f 279/398/4 280/396/4 282/402/4
f 275/398/3 276/396/3 280/402/3
f 277/396/1 281/402/1 282/397/1
f 275/397/20 279/398/20 281/422/20
f 287/406/9 288/420/9 290/407/9
f 285/409/9 280/416/9 276/410/9
f 283/411/9 276/410/9 278/412/9
f 284/413/9 278/412/9 282/414/9
f 286/415/9 282/414/9 280/416/9
f 289/407/1 285/418/1 283/417/1
f 287/419/4 283/406/4 284/420/4
f 288/417/3 284/420/3 286/407/3
f 290/420/7 286/421/7 285/419/7
f 291/424/4 293/504/4 294/425/4
f 295/427/9 297/505/9 298/428/9
f 299/430/7 301/506/7 302/431/7
f 303/433/20 305/507/20 306/434/20
f 307/396/20 309/402/20 310/397/20
f 311/398/9 312/396/9 314/402/9
f 307/398/3 308/396/3 312/402/3
f 309/397/1 313/398/1 314/396/1
f 307/436/4 311/508/4 313/437/4
f 319/406/7 320/420/7 322/407/7
f 317/409/7 312/416/7 308/410/7
f 315/411/7 308/410/7 310/412/7
f 316/413/7 310/412/7 314/414/7
f 318/415/7 314/414/7 312/416/7
f 321/419/1 317/406/1 315/420/1
f 319/419/9 315/406/9 316/420/9
f 320/419/3 316/406/3 318/420/3
f 322/420/20 318/421/20 317/419/20
f 323/396/9 325/402/9 326/397/9
f 327/398/20 328/396/20 330/402/20
f 323/402/3 324/397/3 328/398/3
f 325/396/1 329/402/1 330/397/1
f 323/439/7 327/509/7 329/440/7
f 335/406/4 336/420/4 338/407/4
f 333/409/4 328/416/4 324/410/4
f 331/411/4 324/410/4 326/412/4
f 332/413/4 326/412/4 330/414/4
f 334/415/4 330/414/4 328/416/4
f 337/420/1 333/421/1 331/419/1
f 335/419/20 331/406/20 332/420/20
f 336/420/3 332/421/3 334/419/3
f 338/420/9 334/421/9 333/419/9
f 11/11/20 12/443/20 10/12/20
