# Blender 4.3.2
# www.blender.org
o cube.001
v 0.062500 -0.187500 -0.062500
v -0.062500 -0.187500 -0.062500
v 0.375000 0.687500 -0.125000
v 0.375000 -0.687500 -0.125000
v -0.375000 0.687500 -0.125000
v -0.375000 -0.687500 -0.125000
v 0.187500 -0.687500 -0.125000
v -0.187500 0.687500 -0.125000
v 0.312500 -0.687500 -0.062500
v -0.312500 -0.687500 -0.062500
v 0.312500 0.687500 -0.062500
v 0.187500 0.687500 -0.062500
v -0.187500 0.687500 -0.062500
v -0.312500 0.687500 -0.062500
v 0.375000 0.562500 -0.125000
v 0.375000 0.375000 -0.125000
v 0.500000 0.250000 -0.125000
v 0.500000 0.187500 -0.125000
v 0.500000 -0.187500 -0.125000
v 0.500000 -0.250000 -0.125000
v 0.375000 -0.375000 -0.125000
v 0.375000 -0.562500 -0.125000
v -0.375000 0.562500 -0.125000
v -0.375000 0.375000 -0.125000
v -0.500000 0.250000 -0.125000
v -0.500000 0.187500 -0.125000
v -0.500000 -0.187500 -0.125000
v -0.500000 -0.250000 -0.125000
v -0.375000 -0.562500 -0.125000
v 0.375000 0.375000 -0.062500
v 0.500000 0.250000 -0.062500
v 0.500000 -0.250000 -0.062500
v 0.375000 -0.375000 -0.062500
v -0.375000 0.437500 -0.062500
v -0.375000 0.375000 -0.062500
v -0.500000 0.250000 -0.062500
v -0.500000 -0.250000 -0.062500
v -0.375000 -0.375000 -0.062500
v -0.375000 -0.437500 -0.062500
v -0.312500 -0.625000 -0.062500
v -0.312500 -0.375000 -0.062500
v -0.437500 -0.250000 -0.062500
v -0.437500 0.250000 -0.062500
v -0.312500 0.375000 -0.062500
v -0.312500 0.625000 -0.062500
v -0.062500 0.187500 -0.062500
v 0.062500 0.187500 -0.062500
v 0.312500 -0.625000 -0.062500
v 0.312500 -0.375000 -0.062500
v 0.437500 -0.250000 -0.062500
v 0.437500 0.250000 -0.062500
v 0.312500 0.375000 -0.062500
v 0.312500 0.625000 -0.062500
v 0.312500 -0.625000 -0.125000
v 0.312500 -0.562500 -0.125000
v 0.437500 -0.250000 -0.125000
v 0.437500 -0.187500 -0.125000
v 0.437500 0.250000 -0.125000
v 0.312500 0.625000 -0.125000
v -0.312500 -0.625000 -0.125000
v -0.312500 -0.375000 -0.125000
v -0.437500 -0.250000 -0.125000
v -0.437500 -0.187500 -0.125000
v -0.437500 0.250000 -0.125000
v -0.312500 0.375000 -0.125000
v -0.312500 0.562500 -0.125000
v -0.312500 0.625000 -0.125000
v 0.375000 -0.625000 0.000000
v 0.375000 -0.687500 0.000000
v -0.375000 -0.625000 0.000000
v -0.375000 -0.687500 0.000000
v -0.312500 -0.687500 0.000000
v -0.312500 0.687500 -0.000000
v -0.375000 0.687500 -0.000000
v 0.312500 -0.687500 0.000000
v 0.375000 0.687500 -0.000000
v 0.312500 0.687500 -0.000000
v -0.312500 0.625000 -0.000000
v 0.312500 0.625000 -0.000000
v 0.375000 0.625000 -0.000000
v 0.375000 0.562500 -0.000000
v 0.375000 0.437500 -0.062500
v 0.375000 -0.437500 -0.062500
v 0.375000 -0.562500 0.000000
v -0.375000 0.625000 -0.000000
v -0.375000 0.562500 -0.000000
v -0.375000 -0.562500 0.000000
v -0.312500 -0.625000 0.000000
v -0.312500 -0.562500 0.000000
v -0.312500 -0.437500 -0.062500
v -0.312500 0.437500 -0.062500
v -0.312500 0.562500 -0.000000
v 0.312500 -0.625000 0.000000
v 0.312500 -0.562500 0.000000
v 0.312500 -0.437500 -0.062500
v 0.312500 0.437500 -0.062500
v 0.312500 0.562500 -0.000000
v 0.125000 -0.750000 -0.125000
v -0.125000 -0.750000 -0.125000
v -0.187500 -0.687500 -0.125000
v 0.187500 0.687500 -0.125000
v 0.125000 0.750000 -0.125000
v -0.125000 0.750000 -0.125000
v 0.187500 -0.687500 -0.062500
v 0.125000 -0.750000 -0.062500
v -0.125000 -0.750000 -0.062500
v -0.187500 -0.687500 -0.062500
v 0.125000 0.750000 -0.062500
v -0.125000 0.750000 -0.062500
v 0.375000 0.500000 -0.187500
v 0.375000 0.437500 -0.187500
v 0.375000 -0.437500 -0.187500
v 0.375000 -0.500000 -0.187500
v -0.375000 0.500000 -0.187500
v -0.375000 0.437500 -0.187500
v -0.375000 -0.375000 -0.125000
v -0.375000 -0.437500 -0.187500
v -0.375000 -0.500000 -0.187500
v 0.312500 -0.500000 -0.187500
v 0.312500 -0.437500 -0.187500
v 0.312500 -0.375000 -0.125000
v 0.312500 0.375000 -0.125000
v 0.312500 0.437500 -0.187500
v 0.312500 0.500000 -0.187500
v 0.312500 0.562500 -0.125000
v -0.312500 -0.562500 -0.125000
v -0.312500 -0.500000 -0.187500
v -0.312500 -0.437500 -0.187500
v -0.312500 0.437500 -0.187500
v -0.312500 0.500000 -0.187500
v 0.500000 0.125000 -0.187500
v 0.500000 -0.125000 -0.187500
v -0.500000 0.125000 -0.187500
v -0.500000 -0.125000 -0.187500
v 0.437500 -0.125000 -0.187500
v 0.437500 0.125000 -0.187500
v 0.437500 0.187500 -0.125000
v -0.437500 -0.125000 -0.187500
v -0.437500 0.125000 -0.187500
v -0.437500 0.187500 -0.125000
vn 1.0000 -0.0000 -0.0000
vn -0.0000 -1.0000 -0.0000
vn -1.0000 -0.0000 -0.0000
vn -0.0000 1.0000 -0.0000
vn -0.0000 -0.0000 1.0000
vn -0.0000 -0.0000 -1.0000
vn -0.7071 0.7071 -0.0000
vn 0.7071 -0.7071 -0.0000
vn 0.7071 0.7071 -0.0000
vn -0.0000 0.4472 0.8944
vn -0.0000 -0.4472 0.8944
vn -0.7071 -0.7071 -0.0000
vn -0.0000 -0.7071 -0.7071
vn -0.0000 0.7071 -0.7071
vt -0.000000 0.968750
vt 0.015625 0.968750
vt 0.015625 0.984375
vt -0.000000 0.984375
s 0
f 92/1/1 91/2/1 45/3/1
f 72/1/1 10/2/1 40/3/1
f 6/1/2 10/2/2 71/3/2
f 65/1/1 130/2/1 66/3/1
f 4/1/2 9/2/2 7/3/2
f 68/1/1 69/2/1 22/3/1
f 121/1/3 119/2/3 55/3/3
f 124/1/3 122/2/3 125/3/3
f 115/1/3 24/2/3 34/3/3
f 11/1/4 76/2/4 3/3/4
f 50/1/5 33/2/5 32/3/5
f 101/1/6 3/2/6 59/3/6
f 12/1/5 13/2/5 45/3/5
f 29/1/3 71/2/3 70/3/3
f 21/1/6 121/2/6 56/3/6
f 18/1/1 31/2/1 19/3/1
f 15/1/1 76/2/1 80/3/1
f 138/1/1 140/2/1 63/3/1
f 62/1/6 61/2/6 116/3/6
f 26/1/3 27/2/3 37/3/3
f 40/1/5 107/2/5 104/3/5
f 100/1/6 6/2/6 60/3/6
f 5/1/4 14/2/4 8/3/4
f 77/1/3 11/2/3 53/3/3
f 126/1/1 128/2/1 61/3/1
f 94/1/3 95/2/3 48/3/3
f 137/1/3 135/2/3 57/3/3
f 135/2/6 131/4/6 132/1/6
f 45/1/1 14/2/1 73/3/1
f 73/1/1 78/2/1 45/3/1
f 78/1/1 92/2/1 45/3/1
f 40/1/1 90/2/1 89/3/1
f 89/1/1 88/2/1 40/3/1
f 88/1/1 72/2/1 40/3/1
f 52/2/5 82/4/5 96/1/5
f 6/1/2 100/2/2 10/3/2
f 100/1/2 107/2/2 10/3/2
f 10/1/2 72/2/2 71/3/2
f 65/1/1 129/2/1 130/3/1
f 4/1/2 69/2/2 9/3/2
f 69/1/2 75/2/2 9/3/2
f 9/1/2 104/2/2 7/3/2
f 112/1/1 21/2/1 83/3/1
f 21/1/1 33/2/1 83/3/1
f 83/1/1 84/2/1 22/3/1
f 84/1/1 68/2/1 22/3/1
f 22/1/1 113/2/1 83/3/1
f 113/1/1 112/2/1 83/3/1
f 69/1/1 4/2/1 22/3/1
f 121/1/3 120/2/3 119/3/3
f 124/1/3 123/2/3 122/3/3
f 34/1/3 86/2/3 23/3/3
f 86/1/3 85/2/3 23/3/3
f 85/1/3 74/2/3 23/3/3
f 74/1/3 5/2/3 23/3/3
f 23/1/3 114/2/3 34/3/3
f 114/1/3 115/2/3 34/3/3
f 24/1/3 35/2/3 34/3/3
f 11/1/4 77/2/4 76/3/4
f 3/1/4 101/2/4 11/3/4
f 101/1/4 12/2/4 11/3/4
f 83/2/5 49/4/5 95/1/5
f 52/1/5 51/2/5 30/3/5
f 50/1/5 49/2/5 33/3/5
f 31/2/5 50/4/5 32/1/5
f 31/1/5 30/2/5 51/3/5
f 34/2/5 44/4/5 91/1/5
f 67/1/6 66/2/6 23/3/6
f 8/1/6 103/2/6 102/3/6
f 8/1/6 102/2/6 101/3/6
f 67/1/6 23/2/6 5/3/6
f 15/1/6 125/2/6 59/3/6
f 59/1/6 67/2/6 8/3/6
f 67/1/6 5/2/6 8/3/6
f 3/1/6 15/2/6 59/3/6
f 59/1/6 8/2/6 101/3/6
f 43/1/5 44/2/5 35/3/5
f 41/2/5 39/4/5 90/1/5
f 37/2/5 43/4/5 36/1/5
f 41/1/5 42/2/5 38/3/5
f 43/1/5 35/2/5 36/3/5
f 37/1/5 38/2/5 42/3/5
f 35/2/7 25/4/7 36/1/7
f 45/1/5 53/2/5 12/3/5
f 53/1/5 11/2/5 12/3/5
f 12/1/5 108/2/5 109/3/5
f 13/1/5 14/2/5 45/3/5
f 12/1/5 109/2/5 13/3/5
f 20/2/8 33/4/8 21/1/8
f 20/2/6 57/4/6 19/1/6
f 39/1/3 38/2/3 116/3/3
f 116/1/3 117/2/3 39/3/3
f 117/1/3 118/2/3 39/3/3
f 29/1/3 6/2/3 71/3/3
f 118/1/3 29/2/3 39/3/3
f 70/1/3 87/2/3 29/3/3
f 87/1/3 39/2/3 29/3/3
f 16/2/9 31/4/9 17/1/9
f 20/1/6 21/2/6 56/3/6
f 47/2/5 2/4/5 1/1/5
f 89/2/10 39/4/10 87/1/10
f 18/1/1 17/2/1 31/3/1
f 31/1/1 32/2/1 19/3/1
f 32/1/1 20/2/1 19/3/1
f 19/1/1 132/2/1 131/3/1
f 19/1/1 131/2/1 18/3/1
f 63/2/6 28/4/6 27/1/6
f 80/1/1 81/2/1 15/3/1
f 81/1/1 82/2/1 15/3/1
f 82/1/1 30/2/1 16/3/1
f 16/1/1 111/2/1 82/3/1
f 111/1/1 110/2/1 82/3/1
f 15/1/1 3/2/1 76/3/1
f 110/1/1 15/2/1 82/3/1
f 138/1/1 139/2/1 140/3/1
f 116/1/6 28/2/6 62/3/6
f 25/2/6 140/4/6 26/1/6
f 37/1/3 36/2/3 26/3/3
f 36/1/3 25/2/3 26/3/3
f 26/1/3 133/2/3 134/3/3
f 27/1/3 28/2/3 37/3/3
f 26/1/3 134/2/3 27/3/3
f 25/1/6 24/2/6 64/3/6
f 24/1/6 65/2/6 64/3/6
f 79/2/5 76/4/5 77/1/5
f 9/1/5 48/2/5 104/3/5
f 48/1/5 40/2/5 104/3/5
f 40/1/5 10/2/5 107/3/5
f 107/1/5 106/2/5 105/3/5
f 107/1/5 105/2/5 104/3/5
f 7/1/6 98/2/6 99/3/6
f 7/1/6 99/2/6 100/3/6
f 55/1/6 22/2/6 54/3/6
f 22/1/6 4/2/6 54/3/6
f 54/1/6 4/2/6 7/3/6
f 29/1/6 126/2/6 60/3/6
f 60/1/6 54/2/6 7/3/6
f 60/1/6 7/2/6 100/3/6
f 6/1/6 29/2/6 60/3/6
f 85/2/5 73/4/5 74/1/5
f 71/2/5 88/4/5 70/1/5
f 70/2/5 89/4/5 87/1/5
f 91/2/11 86/4/11 34/1/11
f 81/2/11 96/4/11 82/1/11
f 86/2/5 78/4/5 85/1/5
f 75/2/5 68/4/5 93/1/5
f 93/2/5 84/4/5 94/1/5
f 83/2/10 94/4/10 84/1/10
f 97/2/5 80/4/5 79/1/5
f 98/2/2 106/4/2 99/1/2
f 37/2/12 116/4/12 38/1/12
f 100/2/12 106/4/12 107/1/12
f 5/1/4 74/2/4 14/3/4
f 74/1/4 73/2/4 14/3/4
f 14/1/4 13/2/4 8/3/4
f 98/2/8 104/4/8 105/1/8
f 53/1/3 96/2/3 97/3/3
f 97/1/3 79/2/3 53/3/3
f 79/1/3 77/2/3 53/3/3
f 13/2/7 103/4/7 8/1/7
f 108/2/9 101/4/9 102/1/9
f 22/2/13 119/4/13 113/1/13
f 113/2/6 120/4/6 112/1/6
f 112/2/14 121/4/14 21/1/14
f 16/2/13 123/4/13 111/1/13
f 111/2/6 124/4/6 110/1/6
f 110/2/14 125/4/14 15/1/14
f 126/2/13 118/4/13 127/1/13
f 127/2/6 117/4/6 128/1/6
f 128/2/14 116/4/14 61/1/14
f 65/2/13 115/4/13 129/1/13
f 129/2/6 114/4/6 130/1/6
f 130/2/14 23/4/14 66/1/14
f 19/2/13 135/4/13 132/1/13
f 126/1/1 127/2/1 128/3/1
f 48/1/3 9/2/3 75/3/3
f 75/1/3 93/2/3 48/3/3
f 93/1/3 94/2/3 48/3/3
f 131/2/14 137/4/14 18/1/14
f 63/2/13 134/4/13 138/1/13
f 133/2/6 138/4/6 134/1/6
f 139/2/14 26/4/14 140/1/14
f 137/2/6 17/4/6 18/1/6
f 137/1/3 136/2/3 135/3/3
f 58/1/6 122/2/6 16/3/6
f 16/1/6 17/2/6 58/3/6
f 108/2/4 103/4/4 109/1/4
f 135/2/6 136/3/6 131/4/6
f 52/2/5 30/3/5 82/4/5
f 83/2/5 33/3/5 49/4/5
f 31/2/5 51/3/5 50/4/5
f 34/2/5 35/3/5 44/4/5
f 41/2/5 38/3/5 39/4/5
f 37/2/5 42/3/5 43/4/5
f 35/2/7 24/3/7 25/4/7
f 20/2/8 32/3/8 33/4/8
f 20/2/6 56/3/6 57/4/6
f 16/2/9 30/3/9 31/4/9
f 47/2/5 46/3/5 2/4/5
f 89/2/10 90/3/10 39/4/10
f 63/2/6 62/3/6 28/4/6
f 25/2/6 64/3/6 140/4/6
f 79/2/5 80/3/5 76/4/5
f 85/2/5 78/3/5 73/4/5
f 71/2/5 72/3/5 88/4/5
f 70/2/5 88/3/5 89/4/5
f 91/2/11 92/3/11 86/4/11
f 81/2/11 97/3/11 96/4/11
f 86/2/5 92/3/5 78/4/5
f 75/2/5 69/3/5 68/4/5
f 93/2/5 68/3/5 84/4/5
f 83/2/10 95/3/10 94/4/10
f 97/2/5 81/3/5 80/4/5
f 98/2/2 105/3/2 106/4/2
f 37/2/12 28/3/12 116/4/12
f 100/2/12 99/3/12 106/4/12
f 98/2/8 7/3/8 104/4/8
f 13/2/7 109/3/7 103/4/7
f 108/2/9 12/3/9 101/4/9
f 22/2/13 55/3/13 119/4/13
f 113/2/6 119/3/6 120/4/6
f 112/2/14 120/3/14 121/4/14
f 16/2/13 122/3/13 123/4/13
f 111/2/6 123/3/6 124/4/6
f 110/2/14 124/3/14 125/4/14
f 126/2/13 29/3/13 118/4/13
f 127/2/6 118/3/6 117/4/6
f 128/2/14 117/3/14 116/4/14
f 65/2/13 24/3/13 115/4/13
f 129/2/6 115/3/6 114/4/6
f 130/2/14 114/3/14 23/4/14
f 19/2/13 57/3/13 135/4/13
f 131/2/14 136/3/14 137/4/14
f 63/2/13 27/3/13 134/4/13
f 133/2/6 139/3/6 138/4/6
f 139/2/14 133/3/14 26/4/14
f 137/2/6 58/3/6 17/4/6
f 108/2/4 102/3/4 103/4/4
o cube.002
v 0.312500 0.625000 -0.125000
v 0.312500 -0.625000 -0.125000
v -0.312500 0.625000 -0.125000
v -0.312500 -0.625000 -0.125000
v 0.312500 0.500000 -0.125000
v 0.312500 0.375000 -0.125000
v 0.437500 0.250000 -0.125000
v 0.437500 0.125000 -0.125000
v 0.437500 -0.000000 -0.125000
v 0.437500 -0.125000 -0.125000
v 0.437500 -0.250000 -0.125000
v 0.312500 -0.375000 -0.125000
v 0.312500 -0.500000 -0.125000
v -0.312500 0.500000 -0.125000
v -0.312500 0.375000 -0.125000
v -0.437500 0.250000 -0.125000
v -0.437500 0.125000 -0.125000
v -0.437500 -0.000000 -0.125000
v -0.437500 -0.125000 -0.125000
v -0.437500 -0.250000 -0.125000
v -0.312500 -0.375000 -0.125000
v -0.312500 -0.500000 -0.125000
vn -0.0000 -0.0000 -1.0000
vt 0.187500 0.937500
vt 0.031250 0.968750
vt 0.031250 0.937500
vt 0.187500 0.656250
vt 0.031250 0.687500
vt 0.031250 0.656250
vt 0.187500 0.687500
vt 0.031250 0.718750
vt 0.187500 0.718750
vt 0.031250 0.750000
vt 0.187500 0.750000
vt 0.031250 0.781250
vt 0.187500 0.781250
vt 0.031250 0.812500
vt 0.187500 0.812500
vt 0.031250 0.843750
vt 0.187500 0.843750
vt 0.031250 0.875000
vt 0.187500 0.875000
vt 0.031250 0.906250
vt 0.187500 0.906250
vt 0.187500 0.968750
s 0
f 154/5/15 141/6/15 145/7/15
f 144/8/15 153/9/15 142/10/15
f 162/11/15 152/12/15 153/9/15
f 161/13/15 151/14/15 152/12/15
f 160/15/15 150/16/15 151/14/15
f 159/17/15 149/18/15 150/16/15
f 158/19/15 148/20/15 149/18/15
f 157/21/15 147/22/15 148/20/15
f 156/23/15 146/24/15 147/22/15
f 155/25/15 145/7/15 146/24/15
f 154/5/15 143/26/15 141/6/15
f 144/8/15 162/11/15 153/9/15
f 162/11/15 161/13/15 152/12/15
f 161/13/15 160/15/15 151/14/15
f 160/15/15 159/17/15 150/16/15
f 159/17/15 158/19/15 149/18/15
f 158/19/15 157/21/15 148/20/15
f 157/21/15 156/23/15 147/22/15
f 156/23/15 155/25/15 146/24/15
f 155/25/15 154/5/15 145/7/15
o cube.003
v -0.312500 -0.625000 -0.062500
v -0.312500 -0.375000 -0.062500
v -0.437500 -0.250000 -0.062500
v -0.437500 0.250000 -0.062500
v -0.312500 0.375000 -0.062500
v -0.312500 0.625000 -0.062500
v 0.312500 -0.625000 -0.062500
v 0.312500 -0.375000 -0.062500
v 0.437500 -0.250000 -0.062500
v 0.437500 0.250000 -0.062500
v 0.312500 0.375000 -0.062500
v 0.312500 0.625000 -0.062500
v -0.187500 -0.323223 -0.062500
v -0.312500 -0.198223 -0.062500
v -0.312500 0.198223 -0.062500
v -0.187500 0.323223 -0.062500
v -0.187500 0.500000 -0.062500
v 0.187500 -0.323223 -0.062500
v 0.312500 -0.198223 -0.062500
v 0.312500 0.198223 -0.062500
v 0.187500 0.323223 -0.062500
v 0.187500 -0.500000 -0.062500
v -0.187500 -0.500000 -0.062500
v 0.187500 0.500000 -0.062500
v -0.250000 -0.349112 -0.062500
v -0.375000 -0.224112 -0.062500
v -0.375000 0.224112 -0.062500
v -0.250000 0.349112 -0.062500
v -0.250000 0.562500 -0.062500
v 0.250000 -0.349112 -0.062500
v 0.375000 -0.224112 -0.062500
v 0.375000 0.224112 -0.062500
v 0.250000 0.349112 -0.062500
v 0.250000 -0.562500 -0.062500
v -0.250000 -0.562500 -0.062500
v 0.250000 0.562500 -0.062500
vn -0.0000 -0.0000 1.0000
vt 0.281250 0.937500
vt 0.265625 0.953125
vt 0.265625 0.937500
vt 0.250000 0.953125
vt 0.234375 0.968750
vt 0.234375 0.953125
vt 0.250000 0.968750
vt 0.375000 0.656250
vt 0.390625 0.671875
vt 0.375000 0.671875
vt 0.390625 0.656250
vt 0.250000 0.937500
vt 0.281250 0.953125
s 0
f 176/27/16 180/28/16 181/29/16
f 188/30/16 164/31/16 187/32/16
f 189/30/16 165/31/16 188/32/16
f 189/32/16 167/33/16 166/31/16
f 191/30/16 167/31/16 190/32/16
f 193/34/16 170/35/16 171/36/16
f 193/37/16 172/36/16 194/34/16
f 194/37/16 173/36/16 195/34/16
f 197/37/16 169/36/16 196/34/16
f 198/30/16 168/31/16 191/32/16
f 197/32/16 164/33/16 163/31/16
f 196/37/16 170/36/16 192/34/16
f 198/34/16 173/35/16 174/36/16
f 176/29/16 187/30/16 175/38/16
f 177/29/16 188/30/16 176/38/16
f 177/38/16 190/28/16 189/30/16
f 179/29/16 190/30/16 178/38/16
f 181/38/16 192/28/16 193/30/16
f 181/29/16 194/30/16 182/38/16
f 182/29/16 195/30/16 183/38/16
f 185/29/16 196/30/16 184/38/16
f 186/29/16 191/30/16 179/38/16
f 185/38/16 187/28/16 197/30/16
f 184/29/16 192/30/16 180/38/16
f 186/38/16 195/28/16 198/30/16
f 185/27/16 180/28/16 175/29/16
f 176/27/16 182/28/16 177/29/16
f 178/27/16 186/28/16 179/29/16
f 183/27/16 177/28/16 182/29/16
f 176/27/16 175/39/16 180/28/16
f 188/30/16 165/33/16 164/31/16
f 189/30/16 166/33/16 165/31/16
f 189/32/16 190/30/16 167/33/16
f 191/30/16 168/33/16 167/31/16
f 193/34/16 192/37/16 170/35/16
f 193/37/16 171/35/16 172/36/16
f 194/37/16 172/35/16 173/36/16
f 197/37/16 163/35/16 169/36/16
f 198/30/16 174/33/16 168/31/16
f 197/32/16 187/30/16 164/33/16
f 196/37/16 169/35/16 170/36/16
f 198/34/16 195/37/16 173/35/16
f 176/29/16 188/28/16 187/30/16
f 177/29/16 189/28/16 188/30/16
f 177/38/16 178/29/16 190/28/16
f 179/29/16 191/28/16 190/30/16
f 181/38/16 180/29/16 192/28/16
f 181/29/16 193/28/16 194/30/16
f 182/29/16 194/28/16 195/30/16
f 185/29/16 197/28/16 196/30/16
f 186/29/16 198/28/16 191/30/16
f 185/38/16 175/29/16 187/28/16
f 184/29/16 196/28/16 192/30/16
f 186/38/16 183/29/16 195/28/16
f 185/27/16 184/39/16 180/28/16
f 176/27/16 181/39/16 182/28/16
f 178/27/16 183/39/16 186/28/16
f 183/27/16 178/39/16 177/28/16
o cube.004
v 0.062500 0.187500 0.312500
v 0.062500 -0.187500 0.312500
v 0.062500 -0.187500 -0.062500
v -0.062500 0.187500 0.312500
v -0.062500 -0.187500 -0.062500
v -0.062500 -0.187500 0.312500
v -0.062500 0.187500 -0.062500
v 0.062500 0.187500 -0.062500
vn 1.0000 -0.0000 -0.0000
vn -0.0000 -0.0000 1.0000
vn -1.0000 -0.0000 -0.0000
vn -0.0000 1.0000 -0.0000
vn -0.0000 -1.0000 -0.0000
vt 0.625000 0.812500
vt 0.531250 0.906250
vt 0.531250 0.812500
vt 0.546875 0.812500
vt 0.500000 0.906250
vt 0.500000 0.812500
vt 0.406250 0.906250
vt 0.406250 0.812500
vt 0.500000 1.000000
vt 0.562500 0.906250
vt 0.531250 1.000000
vt 0.625000 0.906250
vt 0.546875 0.906250
vt 0.562500 1.000000
s 0
f 201/40/17 199/41/17 200/42/17
f 200/43/18 202/44/18 204/45/18
f 204/45/19 205/46/19 203/47/19
f 199/41/20 205/48/20 202/44/20
f 201/49/21 204/50/21 203/41/21
f 201/40/17 206/51/17 199/41/17
f 200/43/18 199/52/18 202/44/18
f 204/45/19 202/44/19 205/46/19
f 199/41/20 206/50/20 205/48/20
f 201/49/21 200/53/21 204/50/21
